<?xml version="1.0" encoding="UTF-8"?>
<svg xmlns="http://www.w3.org/2000/svg" xmlns:xlink="http://www.w3.org/1999/xlink" width="50px" height="50px" viewBox="0 0 50 50" version="1.1">
<defs>
<filter id="alpha" filterUnits="objectBoundingBox" x="0%" y="0%" width="100%" height="100%">
  <feColorMatrix type="matrix" in="SourceGraphic" values="0 0 0 0 1 0 0 0 0 1 0 0 0 0 1 0 0 0 1 0"/>
</filter>
<mask id="mask0">
  <g filter="url(#alpha)">
<rect x="0" y="0" width="50" height="50" style="fill:rgb(0%,0%,0%);fill-opacity:0.976471;stroke:none;"/>
  </g>
</mask>
<clipPath id="clip1">
  <rect x="0" y="0" width="50" height="50"/>
</clipPath>
<g id="surface5" clip-path="url(#clip1)">
<path style=" stroke:none;fill-rule:evenodd;fill:rgb(0.392157%,0.392157%,0.784314%);fill-opacity:1;" d="M 24.171875 -0.046875 C 24.691406 -0.046875 25.210938 -0.046875 25.734375 -0.046875 C 26.234375 0.101562 26.722656 0.316406 27.195312 0.585938 C 34.636719 4.746094 42.089844 8.878906 49.5625 12.988281 C 49.679688 13.121094 49.808594 13.238281 49.953125 13.328125 C 49.953125 14.46875 49.953125 15.609375 49.953125 16.75 C 49.355469 18.15625 48.28125 18.886719 46.726562 18.945312 C 45.855469 20.125 44.992188 21.3125 44.140625 22.507812 C 44.074219 28.46875 44.074219 34.421875 44.140625 40.382812 C 44.957031 41.578125 45.789062 42.765625 46.632812 43.945312 C 47.382812 43.964844 48.132812 44.027344 48.875 44.140625 C 49.351562 44.371094 49.710938 44.710938 49.953125 45.164062 C 49.953125 46.402344 49.953125 47.640625 49.953125 48.875 C 49.683594 49.375 49.292969 49.730469 48.78125 49.953125 C 32.894531 49.953125 17.007812 49.953125 1.125 49.953125 C 0.609375 49.730469 0.21875 49.375 -0.046875 48.875 C -0.046875 47.640625 -0.046875 46.402344 -0.046875 45.164062 C 0.191406 44.710938 0.550781 44.371094 1.023438 44.140625 C 1.769531 44.027344 2.519531 43.964844 3.273438 43.945312 C 4.113281 42.765625 4.945312 41.578125 5.761719 40.382812 C 5.828125 34.421875 5.828125 28.46875 5.761719 22.507812 C 4.910156 21.3125 4.046875 20.125 3.171875 18.945312 C 1.59375 18.9375 0.519531 18.207031 -0.046875 16.75 C -0.046875 15.609375 -0.046875 14.46875 -0.046875 13.328125 C 3.59375 11.214844 7.273438 9.148438 10.984375 7.128906 C 11.359375 7.035156 11.6875 7.113281 11.960938 7.375 C 11.980469 7.667969 11.960938 7.960938 11.914062 8.25 C 9.234375 9.84375 6.515625 11.375 3.757812 12.84375 C 3.683594 12.871094 3.617188 12.917969 3.5625 12.988281 C 17.820312 13.054688 32.078125 13.054688 46.335938 12.988281 C 46.285156 12.917969 46.21875 12.871094 46.140625 12.84375 C 39.40625 9.117188 32.667969 5.386719 25.929688 1.660156 C 25.171875 1.304688 24.457031 1.351562 23.78125 1.804688 C 20.710938 3.457031 17.648438 5.132812 14.601562 6.835938 C 14.160156 6.941406 13.804688 6.828125 13.523438 6.492188 C 13.457031 6.074219 13.585938 5.730469 13.914062 5.46875 C 16.910156 3.808594 19.90625 2.148438 22.898438 0.488281 C 23.316406 0.257812 23.738281 0.078125 24.171875 -0.046875 Z M 37.453125 32.179688 C 37.453125 32.796875 37.453125 33.414062 37.453125 34.03125 C 37.09375 34.015625 36.847656 34.179688 36.71875 34.523438 C 36.6875 36.507812 36.652344 38.492188 36.621094 40.476562 C 35.824219 41.617188 35.027344 42.757812 34.226562 43.898438 C 28.042969 44.027344 21.859375 44.027344 15.671875 43.898438 C 14.875 42.757812 14.078125 41.617188 13.28125 40.476562 C 13.214844 34.457031 13.214844 28.433594 13.28125 22.414062 C 14.109375 21.257812 14.941406 20.101562 15.773438 18.945312 C 21.890625 18.878906 28.011719 18.878906 34.132812 18.945312 C 34.960938 20.101562 35.789062 21.257812 36.621094 22.414062 C 36.652344 25.472656 36.6875 28.53125 36.71875 31.59375 C 36.863281 31.914062 37.105469 32.109375 37.453125 32.179688 Z M 37.453125 32.179688 "/>
</g>
<mask id="mask1">
  <g filter="url(#alpha)">
<rect x="0" y="0" width="50" height="50" style="fill:rgb(0%,0%,0%);fill-opacity:0.956863;stroke:none;"/>
  </g>
</mask>
<clipPath id="clip2">
  <rect x="0" y="0" width="50" height="50"/>
</clipPath>
<g id="surface8" clip-path="url(#clip2)">
<path style=" stroke:none;fill-rule:evenodd;fill:rgb(0.392157%,0.392157%,0%);fill-opacity:1;" d="M 24.367188 23 C 28.425781 22.976562 31.257812 24.816406 32.859375 28.515625 C 34.136719 32.828125 32.933594 36.246094 29.25 38.769531 C 25.390625 40.671875 21.890625 40.167969 18.75 37.257812 C 16.261719 34.195312 15.871094 30.875 17.578125 27.296875 C 19.148438 24.761719 21.410156 23.328125 24.367188 23 Z M 24.367188 23 "/>
</g>
</defs>
<g id="surface1">
<use xlink:href="#surface5" mask="url(#mask0)"/>
<path style=" stroke:none;fill-rule:evenodd;fill:rgb(52.941176%,84.313725%,63.137255%);fill-opacity:1;" d="M 46.140625 12.84375 C 45.445312 12.9375 44.726562 12.972656 43.992188 12.9375 C 37.570312 9.320312 31.125 5.722656 24.65625 2.148438 C 24.382812 1.976562 24.089844 1.863281 23.78125 1.804688 C 24.457031 1.351562 25.171875 1.304688 25.929688 1.660156 C 32.667969 5.386719 39.40625 9.117188 46.140625 12.84375 Z M 46.140625 12.84375 "/>
<path style=" stroke:none;fill-rule:evenodd;fill:rgb(67.843137%,89.803922%,60.784314%);fill-opacity:1;" d="M 23.78125 1.804688 C 24.089844 1.863281 24.382812 1.976562 24.65625 2.148438 C 31.125 5.722656 37.570312 9.320312 43.992188 12.9375 C 30.566406 12.972656 17.15625 12.9375 3.757812 12.84375 C 6.515625 11.375 9.234375 9.84375 11.914062 8.25 C 11.960938 7.960938 11.980469 7.667969 11.960938 7.375 C 12.515625 7.128906 13.035156 6.835938 13.523438 6.492188 C 13.804688 6.828125 14.160156 6.941406 14.601562 6.835938 C 17.648438 5.132812 20.710938 3.457031 23.78125 1.804688 Z M 23.78125 1.804688 "/>
<path style=" stroke:none;fill-rule:evenodd;fill:rgb(0.784314%,1.176471%,0.784314%);fill-opacity:1;" d="M 24.070312 4.445312 C 26.113281 4.167969 27.496094 4.980469 28.222656 6.882812 C 28.550781 8.980469 27.722656 10.363281 25.734375 11.035156 C 23.828125 11.328125 22.511719 10.597656 21.777344 8.835938 C 21.308594 6.71875 22.074219 5.253906 24.070312 4.445312 Z M 24.070312 4.445312 "/>
<path style=" stroke:none;fill-rule:evenodd;fill:rgb(19.607843%,36.078431%,49.411765%);fill-opacity:1;" d="M 23.976562 9.328125 C 24.207031 9.257812 24.355469 9.09375 24.414062 8.835938 C 24.773438 7.960938 24.707031 7.117188 24.21875 6.296875 C 24.121094 6.21875 24.007812 6.183594 23.875 6.203125 C 24.992188 5.589844 25.921875 5.816406 26.660156 6.882812 C 27.089844 8.800781 26.324219 9.695312 24.367188 9.570312 C 24.210938 9.511719 24.082031 9.429688 23.976562 9.328125 Z M 23.976562 9.328125 "/>
<path style=" stroke:none;fill-rule:evenodd;fill:rgb(23.529412%,41.960784%,56.862745%);fill-opacity:1;" d="M 23.875 6.203125 C 24.007812 6.183594 24.121094 6.21875 24.21875 6.296875 C 24.707031 7.117188 24.773438 7.960938 24.414062 8.835938 C 24.355469 9.09375 24.207031 9.257812 23.976562 9.328125 C 23.546875 9.140625 23.269531 8.816406 23.144531 8.351562 C 22.890625 7.449219 23.136719 6.734375 23.875 6.203125 Z M 23.875 6.203125 "/>
<path style=" stroke:none;fill-rule:evenodd;fill:rgb(40%,53.72549%,36.862745%);fill-opacity:1;" d="M 3.757812 12.84375 C 17.15625 12.9375 30.566406 12.972656 43.992188 12.9375 C 44.726562 12.972656 45.445312 12.9375 46.140625 12.84375 C 46.21875 12.871094 46.285156 12.917969 46.335938 12.988281 C 32.078125 13.054688 17.820312 13.054688 3.5625 12.988281 C 3.617188 12.917969 3.683594 12.871094 3.757812 12.84375 Z M 3.757812 12.84375 "/>
<path style=" stroke:none;fill-rule:evenodd;fill:rgb(23.529412%,42.352941%,57.254902%);fill-opacity:1;" d="M 46.242188 14.5 C 46.257812 15.152344 46.242188 15.804688 46.191406 16.453125 C 46.15625 16.75 46.042969 17.011719 45.851562 17.234375 C 31.429688 17.335938 17.007812 17.367188 2.585938 17.335938 C 2.125 17.246094 1.78125 16.984375 1.5625 16.554688 C 1.425781 15.878906 1.378906 15.195312 1.414062 14.5 C 16.359375 14.5 31.296875 14.5 46.242188 14.5 Z M 46.242188 14.5 "/>
<path style=" stroke:none;fill-rule:evenodd;fill:rgb(18.039216%,33.333333%,45.098039%);fill-opacity:1;" d="M 46.242188 14.5 C 46.988281 14.5 47.738281 14.5 48.484375 14.5 C 48.503906 15.121094 48.484375 15.738281 48.4375 16.359375 C 48.21875 16.871094 47.84375 17.210938 47.3125 17.382812 C 32.390625 17.464844 17.480469 17.449219 2.585938 17.335938 C 17.007812 17.367188 31.429688 17.335938 45.851562 17.234375 C 46.042969 17.011719 46.15625 16.75 46.191406 16.453125 C 46.242188 15.804688 46.257812 15.152344 46.242188 14.5 Z M 46.242188 14.5 "/>
<path style=" stroke:none;fill-rule:evenodd;fill:rgb(26.27451%,35.294118%,24.313725%);fill-opacity:1;" d="M 13.820312 18.992188 C 13.1875 18.898438 12.535156 18.863281 11.867188 18.898438 C 9.601562 18.863281 7.355469 18.898438 5.125 18.992188 C 5.074219 18.988281 5.042969 18.957031 5.03125 18.898438 C 7.992188 18.765625 10.953125 18.765625 13.914062 18.898438 C 13.902344 18.957031 13.871094 18.988281 13.820312 18.992188 Z M 13.820312 18.992188 "/>
<path style=" stroke:none;fill-rule:evenodd;fill:rgb(26.27451%,35.686275%,24.313725%);fill-opacity:1;" d="M 44.773438 18.992188 C 44.109375 18.898438 43.425781 18.863281 42.726562 18.898438 C 40.496094 18.863281 38.28125 18.898438 36.085938 18.992188 C 36.03125 18.988281 36 18.957031 35.984375 18.898438 C 38.949219 18.765625 41.910156 18.765625 44.875 18.898438 C 44.859375 18.957031 44.828125 18.988281 44.773438 18.992188 Z M 44.773438 18.992188 "/>
<path style=" stroke:none;fill-rule:evenodd;fill:rgb(67.843137%,89.803922%,60.784314%);fill-opacity:1;" d="M 11.867188 18.898438 C 11.292969 19.730469 10.707031 20.5625 10.109375 21.386719 C 9.035156 21.4375 7.960938 21.453125 6.882812 21.4375 C 6.300781 20.625 5.714844 19.808594 5.125 18.992188 C 7.355469 18.898438 9.601562 18.863281 11.867188 18.898438 Z M 11.867188 18.898438 "/>
<path style=" stroke:none;fill-rule:evenodd;fill:rgb(52.941176%,83.529412%,62.352941%);fill-opacity:1;" d="M 11.867188 18.898438 C 12.535156 18.863281 13.1875 18.898438 13.820312 18.992188 C 13.246094 19.828125 12.660156 20.660156 12.0625 21.484375 C 10.320312 21.566406 8.59375 21.550781 6.882812 21.4375 C 7.960938 21.453125 9.035156 21.4375 10.109375 21.386719 C 10.707031 20.5625 11.292969 19.730469 11.867188 18.898438 Z M 11.867188 18.898438 "/>
<path style=" stroke:none;fill-rule:evenodd;fill:rgb(67.843137%,89.803922%,60.784314%);fill-opacity:1;" d="M 42.726562 18.898438 C 42.214844 19.734375 41.660156 20.546875 41.0625 21.335938 C 39.992188 21.433594 38.917969 21.46875 37.84375 21.4375 C 37.234375 20.644531 36.648438 19.828125 36.085938 18.992188 C 38.28125 18.898438 40.496094 18.863281 42.726562 18.898438 Z M 42.726562 18.898438 "/>
<path style=" stroke:none;fill-rule:evenodd;fill:rgb(52.941176%,83.529412%,62.352941%);fill-opacity:1;" d="M 42.726562 18.898438 C 43.425781 18.863281 44.109375 18.898438 44.773438 18.992188 C 44.171875 19.808594 43.585938 20.640625 43.015625 21.484375 C 41.277344 21.566406 39.550781 21.550781 37.84375 21.4375 C 38.917969 21.46875 39.992188 21.433594 41.0625 21.335938 C 41.660156 20.546875 42.214844 19.734375 42.726562 18.898438 Z M 42.726562 18.898438 "/>
<path style=" stroke:none;fill-rule:evenodd;fill:rgb(91.372549%,96.078431%,100%);fill-opacity:1;" d="M 9.523438 23 C 9.523438 28.628906 9.523438 34.261719 9.523438 39.890625 C 8.773438 39.890625 8.023438 39.890625 7.273438 39.890625 C 7.273438 34.261719 7.273438 28.628906 7.273438 23 C 8.023438 23 8.773438 23 9.523438 23 Z M 9.523438 23 "/>
<path style=" stroke:none;fill-rule:evenodd;fill:rgb(84.313725%,92.156863%,98.823529%);fill-opacity:1;" d="M 9.523438 23 C 10.238281 23 10.953125 23 11.671875 23 C 11.671875 28.664062 11.671875 34.328125 11.671875 39.992188 C 10.1875 40.023438 8.722656 39.988281 7.273438 39.890625 C 8.023438 39.890625 8.773438 39.890625 9.523438 39.890625 C 9.523438 34.261719 9.523438 28.628906 9.523438 23 Z M 9.523438 23 "/>
<use xlink:href="#surface8" mask="url(#mask1)"/>
<path style=" stroke:none;fill-rule:evenodd;fill:rgb(91.372549%,96.078431%,99.607843%);fill-opacity:1;" d="M 40.476562 23 C 40.476562 28.628906 40.476562 34.261719 40.476562 39.890625 C 39.730469 39.890625 38.980469 39.890625 38.234375 39.890625 C 38.25 38.101562 38.234375 36.3125 38.183594 34.523438 C 38.007812 34.246094 37.765625 34.085938 37.453125 34.03125 C 37.453125 33.414062 37.453125 32.796875 37.453125 32.179688 C 37.773438 32.089844 38.015625 31.894531 38.183594 31.59375 C 38.234375 28.726562 38.25 25.863281 38.234375 23 C 38.980469 23 39.730469 23 40.476562 23 Z M 40.476562 23 "/>
<path style=" stroke:none;fill-rule:evenodd;fill:rgb(84.313725%,92.156863%,98.823529%);fill-opacity:1;" d="M 40.476562 23 C 41.195312 23 41.910156 23 42.625 23 C 42.625 28.664062 42.625 34.328125 42.625 39.992188 C 41.144531 40.023438 39.679688 39.988281 38.234375 39.890625 C 38.980469 39.890625 39.730469 39.890625 40.476562 39.890625 C 40.476562 34.261719 40.476562 28.628906 40.476562 23 Z M 40.476562 23 "/>
<path style=" stroke:none;fill-rule:evenodd;fill:rgb(98.431373%,87.058824%,46.666667%);fill-opacity:1;" d="M 25.4375 24.5625 C 29.226562 26.867188 30.449219 30.15625 29.101562 34.421875 C 28.390625 36.046875 27.265625 37.300781 25.734375 38.183594 C 25.191406 38.320312 24.636719 38.371094 24.070312 38.328125 C 20.628906 37.695312 18.625 35.644531 18.066406 32.179688 C 17.960938 28.398438 19.703125 25.910156 23.289062 24.707031 C 24 24.578125 24.71875 24.53125 25.4375 24.5625 Z M 25.4375 24.5625 "/>
<path style=" stroke:none;fill-rule:evenodd;fill:rgb(96.862745%,81.176471%,40%);fill-opacity:1;" d="M 25.4375 24.5625 C 28.925781 25.035156 31.054688 26.988281 31.835938 30.421875 C 32.066406 34.308594 30.355469 36.898438 26.710938 38.183594 C 25.824219 38.421875 24.945312 38.472656 24.070312 38.328125 C 24.636719 38.371094 25.191406 38.320312 25.734375 38.183594 C 27.265625 37.300781 28.390625 36.046875 29.101562 34.421875 C 30.449219 30.15625 29.226562 26.867188 25.4375 24.5625 Z M 25.4375 24.5625 "/>
<path style=" stroke:none;fill-rule:evenodd;fill:rgb(1.568627%,1.176471%,0.392157%);fill-opacity:1;" d="M 26.023438 28.273438 C 25.921875 28.179688 25.789062 28.148438 25.632812 28.171875 C 25.601562 29.039062 25.636719 29.882812 25.734375 30.710938 C 27.285156 30.953125 28.003906 31.863281 27.882812 33.445312 C 28.050781 35.128906 27.300781 36.042969 25.632812 36.179688 C 25.804688 36.839844 25.558594 37.230469 24.902344 37.351562 C 24.324219 37.179688 24.113281 36.789062 24.265625 36.179688 C 22.683594 36.078125 21.949219 35.230469 22.070312 33.640625 C 22.457031 33.160156 22.878906 33.128906 23.339844 33.546875 C 23.4375 33.871094 23.535156 34.195312 23.632812 34.523438 C 23.808594 34.691406 24.019531 34.753906 24.265625 34.71875 C 24.265625 33.871094 24.265625 33.023438 24.265625 32.179688 C 22.601562 32.039062 21.855469 31.128906 22.023438 29.445312 C 21.898438 27.796875 22.648438 26.882812 24.265625 26.710938 C 24.210938 25.609375 24.652344 25.347656 25.585938 25.929688 C 25.632812 26.1875 25.652344 26.445312 25.632812 26.710938 C 27.210938 26.832031 27.941406 27.679688 27.832031 29.25 C 27.734375 29.558594 27.519531 29.6875 27.195312 29.640625 C 26.597656 29.550781 26.320312 29.195312 26.367188 28.5625 C 26.265625 28.445312 26.152344 28.347656 26.023438 28.273438 Z M 26.023438 28.273438 "/>
<path style=" stroke:none;fill-rule:evenodd;fill:rgb(98.823529%,87.058824%,46.666667%);fill-opacity:1;" d="M 23.875 28.273438 C 23.976562 28.273438 24.070312 28.273438 24.171875 28.273438 C 24.171875 29.085938 24.171875 29.898438 24.171875 30.710938 C 23.847656 30.765625 23.636719 30.632812 23.535156 30.320312 C 23.46875 29.734375 23.46875 29.148438 23.535156 28.5625 C 23.636719 28.445312 23.75 28.347656 23.875 28.273438 Z M 23.875 28.273438 "/>
<path style=" stroke:none;fill-rule:evenodd;fill:rgb(51.372549%,45.098039%,24.313725%);fill-opacity:1;" d="M 23.875 28.273438 C 23.980469 28.179688 24.113281 28.148438 24.265625 28.171875 C 24.300781 29.039062 24.265625 29.882812 24.171875 30.710938 C 24.171875 29.898438 24.171875 29.085938 24.171875 28.273438 C 24.070312 28.273438 23.976562 28.273438 23.875 28.273438 Z M 23.875 28.273438 "/>
<path style=" stroke:none;fill-rule:evenodd;fill:rgb(51.372549%,45.098039%,24.313725%);fill-opacity:1;" d="M 26.023438 28.273438 C 25.929688 28.273438 25.828125 28.273438 25.734375 28.273438 C 25.734375 29.085938 25.734375 29.898438 25.734375 30.710938 C 25.636719 29.882812 25.601562 29.039062 25.632812 28.171875 C 25.789062 28.148438 25.921875 28.179688 26.023438 28.273438 Z M 26.023438 28.273438 "/>
<path style=" stroke:none;fill-rule:evenodd;fill:rgb(50.980392%,44.705882%,23.921569%);fill-opacity:1;" d="M 26.023438 32.273438 C 25.929688 32.273438 25.828125 32.273438 25.734375 32.273438 C 25.734375 33.089844 25.734375 33.902344 25.734375 34.71875 C 25.636719 33.886719 25.601562 33.042969 25.632812 32.179688 C 25.789062 32.152344 25.921875 32.183594 26.023438 32.273438 Z M 26.023438 32.273438 "/>
<path style=" stroke:none;fill-rule:evenodd;fill:rgb(98.431373%,87.058824%,46.666667%);fill-opacity:1;" d="M 26.023438 32.273438 C 26.152344 32.351562 26.265625 32.449219 26.367188 32.570312 C 26.433594 33.15625 26.433594 33.742188 26.367188 34.328125 C 26.265625 34.636719 26.054688 34.769531 25.734375 34.71875 C 25.734375 33.902344 25.734375 33.089844 25.734375 32.273438 C 25.828125 32.273438 25.929688 32.273438 26.023438 32.273438 Z M 26.023438 32.273438 "/>
<path style=" stroke:none;fill-rule:evenodd;fill:rgb(67.45098%,89.019608%,60.392157%);fill-opacity:1;" d="M 10.109375 41.453125 C 10.691406 42.332031 11.277344 43.210938 11.867188 44.09375 C 9.585938 44.109375 7.308594 44.09375 5.03125 44.042969 C 5.625 43.179688 6.242188 42.332031 6.882812 41.503906 C 7.957031 41.453125 9.03125 41.4375 10.109375 41.453125 Z M 10.109375 41.453125 "/>
<path style=" stroke:none;fill-rule:evenodd;fill:rgb(52.941176%,84.313725%,63.137255%);fill-opacity:1;" d="M 10.109375 41.453125 C 10.792969 41.421875 11.476562 41.457031 12.15625 41.554688 C 12.730469 42.390625 13.316406 43.222656 13.914062 44.042969 C 13.234375 44.09375 12.550781 44.109375 11.867188 44.09375 C 11.277344 43.210938 10.691406 42.332031 10.109375 41.453125 Z M 10.109375 41.453125 "/>
<path style=" stroke:none;fill-rule:evenodd;fill:rgb(67.45098%,89.019608%,60.392157%);fill-opacity:1;" d="M 40.96875 41.453125 C 41.609375 42.316406 42.226562 43.195312 42.820312 44.09375 C 40.542969 44.109375 38.265625 44.09375 35.984375 44.042969 C 36.585938 43.222656 37.171875 42.390625 37.742188 41.554688 C 38.816406 41.457031 39.890625 41.421875 40.96875 41.453125 Z M 40.96875 41.453125 "/>
<path style=" stroke:none;fill-rule:evenodd;fill:rgb(52.941176%,84.313725%,63.137255%);fill-opacity:1;" d="M 40.96875 41.453125 C 41.652344 41.4375 42.335938 41.453125 43.015625 41.503906 C 43.613281 42.367188 44.230469 43.214844 44.875 44.042969 C 44.191406 44.09375 43.507812 44.109375 42.820312 44.09375 C 42.226562 43.195312 41.609375 42.316406 40.96875 41.453125 Z M 40.96875 41.453125 "/>
<path style=" stroke:none;fill-rule:evenodd;fill:rgb(23.529412%,42.352941%,57.254902%);fill-opacity:1;" d="M 46.242188 45.554688 C 46.242188 46.5 46.242188 47.445312 46.242188 48.390625 C 31.332031 48.390625 16.421875 48.390625 1.515625 48.390625 C 1.382812 47.46875 1.382812 46.542969 1.515625 45.605469 C 16.421875 45.554688 31.332031 45.539062 46.242188 45.554688 Z M 46.242188 45.554688 "/>
<path style=" stroke:none;fill-rule:evenodd;fill:rgb(20.392157%,36.470588%,49.411765%);fill-opacity:1;" d="M 46.242188 45.554688 C 46.980469 45.527344 47.714844 45.558594 48.4375 45.65625 C 48.515625 46.589844 48.5 47.515625 48.390625 48.4375 C 32.746094 48.519531 17.121094 48.503906 1.515625 48.390625 C 16.421875 48.390625 31.332031 48.390625 46.242188 48.390625 C 46.242188 47.445312 46.242188 46.5 46.242188 45.554688 Z M 46.242188 45.554688 "/>
</g>
</svg>
