<?xml version="1.0" encoding="UTF-8"?>
<svg xmlns="http://www.w3.org/2000/svg" xmlns:xlink="http://www.w3.org/1999/xlink" width="50px" height="50px" viewBox="0 0 50 50" version="1.1">
<defs>
<filter id="alpha" filterUnits="objectBoundingBox" x="0%" y="0%" width="100%" height="100%">
  <feColorMatrix type="matrix" in="SourceGraphic" values="0 0 0 0 1 0 0 0 0 1 0 0 0 0 1 0 0 0 1 0"/>
</filter>
<mask id="mask0">
  <g filter="url(#alpha)">
<rect x="0" y="0" width="50" height="50" style="fill:rgb(0%,0%,0%);fill-opacity:0.980392;stroke:none;"/>
  </g>
</mask>
<clipPath id="clip1">
  <rect x="0" y="0" width="50" height="50"/>
</clipPath>
<g id="surface5" clip-path="url(#clip1)">
<path style=" stroke:none;fill-rule:evenodd;fill:rgb(30.980392%,72.941176%,43.137255%);fill-opacity:1;" d="M 47.609375 -0.046875 C 48.195312 -0.046875 48.78125 -0.046875 49.367188 -0.046875 C 49.59375 0.113281 49.789062 0.308594 49.953125 0.539062 C 49.953125 1.125 49.953125 1.710938 49.953125 2.296875 C 49.796875 3.808594 49.652344 5.339844 49.511719 6.882812 C 49.152344 7.699219 48.550781 7.945312 47.703125 7.617188 C 47.171875 7.179688 46.667969 6.710938 46.191406 6.203125 C 43.3125 9.082031 40.429688 11.960938 37.546875 14.84375 C 36.238281 15.652344 34.902344 15.683594 33.546875 14.941406 C 32.019531 13.511719 30.519531 12.046875 29.054688 10.546875 C 28.804688 10.40625 28.546875 10.375 28.273438 10.449219 C 23.746094 14.910156 19.222656 19.367188 14.695312 23.828125 C 13.355469 24.464844 12.054688 24.398438 10.789062 23.632812 C 9.976562 22.820312 9.164062 22.003906 8.351562 21.191406 C 7.925781 20.867188 7.503906 20.867188 7.078125 21.191406 C 5.578125 22.722656 4.050781 24.222656 2.492188 25.683594 C 1.316406 26.089844 0.46875 25.75 -0.046875 24.65625 C -0.046875 24.265625 -0.046875 23.875 -0.046875 23.484375 C 1.78125 21.507812 3.667969 19.574219 5.617188 17.675781 C 6.878906 16.910156 8.179688 16.84375 9.523438 17.480469 C 10.625 18.488281 11.699219 19.527344 12.742188 20.605469 C 12.808594 20.671875 12.875 20.671875 12.9375 20.605469 C 17.300781 16.242188 21.664062 11.882812 26.023438 7.519531 C 27.40625 6.351562 28.902344 6.1875 30.515625 7.03125 C 32.042969 8.460938 33.542969 9.925781 35.007812 11.425781 C 35.257812 11.566406 35.515625 11.597656 35.789062 11.523438 C 38.457031 8.953125 41.09375 6.351562 43.703125 3.710938 C 43.082031 3.191406 42.578125 2.589844 42.1875 1.90625 C 42.058594 1.3125 42.238281 0.84375 42.726562 0.488281 C 44.359375 0.277344 45.988281 0.0976562 47.609375 -0.046875 Z M 47.609375 -0.046875 "/>
</g>
<mask id="mask1">
  <g filter="url(#alpha)">
<rect x="0" y="0" width="50" height="50" style="fill:rgb(0%,0%,0%);fill-opacity:0.992157;stroke:none;"/>
  </g>
</mask>
<clipPath id="clip2">
  <rect x="0" y="0" width="50" height="50"/>
</clipPath>
<g id="surface8" clip-path="url(#clip2)">
<path style=" stroke:none;fill-rule:evenodd;fill:rgb(94.901961%,83.137255%,35.294118%);fill-opacity:1;" d="M 49.953125 23.679688 C 49.953125 24.527344 49.953125 25.375 49.953125 26.21875 C 49.15625 29.621094 47.074219 31.769531 43.703125 32.664062 C 42.691406 32.664062 41.683594 32.664062 40.671875 32.664062 C 36.246094 31.367188 34.179688 28.40625 34.472656 23.78125 C 35.175781 20.3125 37.242188 18.144531 40.671875 17.285156 C 44.710938 16.742188 47.625 18.285156 49.414062 21.921875 C 49.625 22.511719 49.804688 23.097656 49.953125 23.679688 Z M 49.953125 23.679688 "/>
</g>
<mask id="mask2">
  <g filter="url(#alpha)">
<rect x="0" y="0" width="50" height="50" style="fill:rgb(0%,0%,0%);fill-opacity:0.992157;stroke:none;"/>
  </g>
</mask>
<clipPath id="clip3">
  <rect x="0" y="0" width="50" height="50"/>
</clipPath>
<g id="surface11" clip-path="url(#clip3)">
<path style=" stroke:none;fill-rule:evenodd;fill:rgb(94.901961%,83.137255%,35.294118%);fill-opacity:1;" d="M 26.21875 39.601562 C 25.375 39.601562 24.527344 39.601562 23.679688 39.601562 C 20.484375 38.894531 18.382812 36.972656 17.382812 33.835938 C 16.644531 30.027344 17.898438 27.082031 21.140625 25 C 24.234375 23.542969 27.164062 23.800781 29.929688 25.78125 C 32.75 28.445312 33.449219 31.585938 32.03125 35.203125 C 30.777344 37.582031 28.839844 39.046875 26.21875 39.601562 Z M 26.21875 39.601562 "/>
</g>
<mask id="mask3">
  <g filter="url(#alpha)">
<rect x="0" y="0" width="50" height="50" style="fill:rgb(0%,0%,0%);fill-opacity:0.992157;stroke:none;"/>
  </g>
</mask>
<clipPath id="clip4">
  <rect x="0" y="0" width="50" height="50"/>
</clipPath>
<g id="surface14" clip-path="url(#clip4)">
<path style=" stroke:none;fill-rule:evenodd;fill:rgb(94.901961%,83.137255%,35.294118%);fill-opacity:1;" d="M 9.328125 46.4375 C 8.25 46.566406 7.179688 46.566406 6.101562 46.4375 C 2.730469 45.550781 0.679688 43.402344 -0.046875 39.992188 C -0.046875 39.144531 -0.046875 38.296875 -0.046875 37.453125 C 0.9375 33.390625 3.523438 31.210938 7.714844 30.90625 C 11.941406 31.210938 14.511719 33.425781 15.429688 37.546875 C 15.753906 42.152344 13.71875 45.117188 9.328125 46.4375 Z M 9.328125 46.4375 "/>
</g>
<mask id="mask4">
  <g filter="url(#alpha)">
<rect x="0" y="0" width="50" height="50" style="fill:rgb(0%,0%,0%);fill-opacity:0.988235;stroke:none;"/>
  </g>
</mask>
<clipPath id="clip5">
  <rect x="0" y="0" width="50" height="50"/>
</clipPath>
<g id="surface17" clip-path="url(#clip5)">
<path style=" stroke:none;fill-rule:evenodd;fill:rgb(94.117647%,76.862745%,9.803922%);fill-opacity:1;" d="M 40.671875 32.664062 C 41.683594 32.664062 42.691406 32.664062 43.703125 32.664062 C 45.070312 32.648438 46.4375 32.664062 47.804688 32.714844 C 49.117188 33.269531 49.460938 34.199219 48.828125 35.5 C 48.550781 35.789062 48.242188 36.015625 47.898438 36.179688 C 44.09375 36.179688 40.28125 36.179688 36.476562 36.179688 C 35.359375 35.617188 35.015625 34.738281 35.449219 33.546875 C 35.722656 33.136719 36.097656 32.863281 36.570312 32.714844 C 37.9375 32.664062 39.304688 32.648438 40.671875 32.664062 Z M 40.671875 32.664062 "/>
</g>
<mask id="mask5">
  <g filter="url(#alpha)">
<rect x="0" y="0" width="50" height="50" style="fill:rgb(0%,0%,0%);fill-opacity:0.996078;stroke:none;"/>
  </g>
</mask>
<clipPath id="clip6">
  <rect x="0" y="0" width="50" height="50"/>
</clipPath>
<g id="surface20" clip-path="url(#clip6)">
<path style=" stroke:none;fill-rule:evenodd;fill:rgb(95.294118%,83.529412%,35.294118%);fill-opacity:1;" d="M 36.476562 36.179688 C 40.28125 36.179688 44.09375 36.179688 47.898438 36.179688 C 49.105469 36.773438 49.417969 37.683594 48.828125 38.914062 C 48.589844 39.203125 48.3125 39.433594 48 39.601562 C 44.15625 39.601562 40.316406 39.601562 36.476562 39.601562 C 35.269531 38.992188 34.960938 38.082031 35.546875 36.867188 C 35.789062 36.539062 36.097656 36.3125 36.476562 36.179688 Z M 36.476562 36.179688 "/>
</g>
<mask id="mask6">
  <g filter="url(#alpha)">
<rect x="0" y="0" width="50" height="50" style="fill:rgb(0%,0%,0%);fill-opacity:0.992157;stroke:none;"/>
  </g>
</mask>
<clipPath id="clip7">
  <rect x="0" y="0" width="50" height="50"/>
</clipPath>
<g id="surface23" clip-path="url(#clip7)">
<path style=" stroke:none;fill-rule:evenodd;fill:rgb(94.117647%,76.862745%,10.196078%);fill-opacity:1;" d="M 23.679688 39.601562 C 24.527344 39.601562 25.375 39.601562 26.21875 39.601562 C 27.71875 39.582031 29.214844 39.601562 30.710938 39.648438 C 31.664062 40.074219 32.039062 40.804688 31.835938 41.84375 C 31.636719 42.453125 31.226562 42.84375 30.617188 43.015625 C 26.839844 43.148438 23.0625 43.148438 19.289062 43.015625 C 18.300781 42.640625 17.894531 41.925781 18.066406 40.867188 C 18.207031 40.246094 18.582031 39.839844 19.1875 39.648438 C 20.6875 39.601562 22.183594 39.582031 23.679688 39.601562 Z M 23.679688 39.601562 "/>
</g>
<mask id="mask7">
  <g filter="url(#alpha)">
<rect x="0" y="0" width="50" height="50" style="fill:rgb(0%,0%,0%);fill-opacity:0.992157;stroke:none;"/>
  </g>
</mask>
<clipPath id="clip8">
  <rect x="0" y="0" width="50" height="50"/>
</clipPath>
<g id="surface26" clip-path="url(#clip8)">
<path style=" stroke:none;fill-rule:evenodd;fill:rgb(94.117647%,76.862745%,10.196078%);fill-opacity:1;" d="M 36.476562 39.601562 C 40.316406 39.601562 44.15625 39.601562 48 39.601562 C 49.191406 40.332031 49.433594 41.308594 48.730469 42.53125 C 48.476562 42.800781 48.167969 42.964844 47.804688 43.015625 C 44.058594 43.148438 40.316406 43.148438 36.570312 43.015625 C 35.75 42.761719 35.292969 42.191406 35.203125 41.308594 C 35.28125 40.46875 35.707031 39.898438 36.476562 39.601562 Z M 36.476562 39.601562 "/>
</g>
<mask id="mask8">
  <g filter="url(#alpha)">
<rect x="0" y="0" width="50" height="50" style="fill:rgb(0%,0%,0%);fill-opacity:0.996078;stroke:none;"/>
  </g>
</mask>
<clipPath id="clip9">
  <rect x="0" y="0" width="50" height="50"/>
</clipPath>
<g id="surface29" clip-path="url(#clip9)">
<path style=" stroke:none;fill-rule:evenodd;fill:rgb(95.294118%,83.137255%,35.294118%);fill-opacity:1;" d="M 19.289062 43.015625 C 23.0625 43.148438 26.839844 43.148438 30.617188 43.015625 C 31.832031 43.585938 32.171875 44.496094 31.640625 45.75 C 31.363281 46.113281 31.019531 46.375 30.617188 46.53125 C 26.839844 46.53125 23.0625 46.53125 19.289062 46.53125 C 18.070312 45.964844 17.730469 45.054688 18.261719 43.796875 C 18.539062 43.4375 18.882812 43.175781 19.289062 43.015625 Z M 19.289062 43.015625 "/>
</g>
<mask id="mask9">
  <g filter="url(#alpha)">
<rect x="0" y="0" width="50" height="50" style="fill:rgb(0%,0%,0%);fill-opacity:0.996078;stroke:none;"/>
  </g>
</mask>
<clipPath id="clip10">
  <rect x="0" y="0" width="50" height="50"/>
</clipPath>
<g id="surface32" clip-path="url(#clip10)">
<path style=" stroke:none;fill-rule:evenodd;fill:rgb(95.294118%,83.529412%,35.294118%);fill-opacity:1;" d="M 36.570312 43.015625 C 40.316406 43.148438 44.058594 43.148438 47.804688 43.015625 C 49.113281 43.59375 49.453125 44.539062 48.828125 45.851562 C 48.585938 46.15625 48.277344 46.351562 47.898438 46.4375 C 44.097656 46.53125 40.289062 46.566406 36.476562 46.53125 C 35.226562 45.839844 34.949219 44.863281 35.644531 43.601562 C 35.921875 43.34375 36.230469 43.148438 36.570312 43.015625 Z M 36.570312 43.015625 "/>
</g>
<mask id="mask10">
  <g filter="url(#alpha)">
<rect x="0" y="0" width="50" height="50" style="fill:rgb(0%,0%,0%);fill-opacity:0.992157;stroke:none;"/>
  </g>
</mask>
<clipPath id="clip11">
  <rect x="0" y="0" width="50" height="50"/>
</clipPath>
<g id="surface35" clip-path="url(#clip11)">
<path style=" stroke:none;fill-rule:evenodd;fill:rgb(94.117647%,76.862745%,9.411765%);fill-opacity:1;" d="M 6.101562 46.4375 C 7.179688 46.566406 8.25 46.566406 9.328125 46.4375 C 10.628906 46.417969 11.929688 46.4375 13.234375 46.484375 C 14.59375 47.011719 14.96875 47.9375 14.355469 49.265625 C 14.117188 49.554688 13.839844 49.785156 13.523438 49.953125 C 9.652344 49.953125 5.777344 49.953125 1.90625 49.953125 C 0.628906 49.132812 0.433594 48.109375 1.320312 46.875 C 1.574219 46.664062 1.867188 46.535156 2.195312 46.484375 C 3.5 46.4375 4.800781 46.417969 6.101562 46.4375 Z M 6.101562 46.4375 "/>
</g>
<mask id="mask11">
  <g filter="url(#alpha)">
<rect x="0" y="0" width="50" height="50" style="fill:rgb(0%,0%,0%);fill-opacity:0.992157;stroke:none;"/>
  </g>
</mask>
<clipPath id="clip12">
  <rect x="0" y="0" width="50" height="50"/>
</clipPath>
<g id="surface38" clip-path="url(#clip12)">
<path style=" stroke:none;fill-rule:evenodd;fill:rgb(94.117647%,76.862745%,9.803922%);fill-opacity:1;" d="M 19.289062 46.53125 C 23.0625 46.53125 26.839844 46.53125 30.617188 46.53125 C 31.4375 46.777344 31.859375 47.328125 31.882812 48.195312 C 31.832031 49.023438 31.441406 49.609375 30.710938 49.953125 C 26.871094 49.953125 23.03125 49.953125 19.1875 49.953125 C 18 49.296875 17.722656 48.351562 18.359375 47.117188 C 18.601562 46.8125 18.910156 46.617188 19.289062 46.53125 Z M 19.289062 46.53125 "/>
</g>
<mask id="mask12">
  <g filter="url(#alpha)">
<rect x="0" y="0" width="50" height="50" style="fill:rgb(0%,0%,0%);fill-opacity:0.992157;stroke:none;"/>
  </g>
</mask>
<clipPath id="clip13">
  <rect x="0" y="0" width="50" height="50"/>
</clipPath>
<g id="surface41" clip-path="url(#clip13)">
<path style=" stroke:none;fill-rule:evenodd;fill:rgb(94.117647%,76.862745%,9.803922%);fill-opacity:1;" d="M 47.898438 46.4375 C 49.09375 47.078125 49.40625 48.023438 48.828125 49.265625 C 48.589844 49.554688 48.3125 49.785156 48 49.953125 C 44.125 49.953125 40.25 49.953125 36.375 49.953125 C 35.261719 49.296875 34.984375 48.386719 35.546875 47.21875 C 35.792969 46.890625 36.101562 46.660156 36.476562 46.53125 C 40.289062 46.566406 44.097656 46.53125 47.898438 46.4375 Z M 47.898438 46.4375 "/>
</g>
</defs>
<g id="surface1">
<use xlink:href="#surface5" mask="url(#mask0)"/>
<use xlink:href="#surface8" mask="url(#mask1)"/>
<path style=" stroke:none;fill-rule:evenodd;fill:rgb(69.803922%,56.862745%,27.45098%);fill-opacity:1;" d="M 41.84375 19.773438 C 42.628906 19.710938 43.050781 20.070312 43.117188 20.851562 C 44.046875 21.140625 44.484375 21.761719 44.433594 22.703125 C 44.183594 23.152344 43.8125 23.296875 43.3125 23.144531 C 43.082031 22.917969 42.855469 22.6875 42.625 22.460938 C 41.6875 22.261719 41.28125 22.632812 41.40625 23.585938 C 41.453125 23.722656 41.53125 23.835938 41.648438 23.925781 C 42.800781 23.972656 43.730469 24.445312 44.433594 25.34375 C 45.023438 26.617188 44.8125 27.738281 43.796875 28.710938 C 43.574219 28.90625 43.3125 29.019531 43.015625 29.054688 C 43.050781 29.867188 42.660156 30.207031 41.84375 30.078125 C 41.699219 29.929688 41.554688 29.785156 41.40625 29.640625 C 41.359375 29.445312 41.339844 29.25 41.359375 29.054688 C 40.734375 28.902344 40.261719 28.546875 39.941406 27.976562 C 39.730469 27.082031 40.070312 26.675781 40.96875 26.757812 C 41.269531 26.933594 41.527344 27.160156 41.75 27.441406 C 42.6875 27.640625 43.09375 27.269531 42.96875 26.320312 C 42.886719 26.105469 42.742188 25.960938 42.53125 25.878906 C 40.324219 25.683594 39.398438 24.496094 39.746094 22.3125 C 40.054688 21.5625 40.59375 21.074219 41.359375 20.851562 C 41.300781 20.386719 41.464844 20.027344 41.84375 19.773438 Z M 41.84375 19.773438 "/>
<use xlink:href="#surface11" mask="url(#mask2)"/>
<path style=" stroke:none;fill-rule:evenodd;fill:rgb(69.411765%,56.470588%,27.45098%);fill-opacity:1;" d="M 24.5625 26.710938 C 25.371094 26.609375 25.796875 26.96875 25.828125 27.78125 C 26.917969 28.074219 27.355469 28.757812 27.148438 29.835938 C 26.855469 30.105469 26.515625 30.183594 26.125 30.078125 C 25.851562 29.898438 25.625 29.667969 25.4375 29.394531 C 24.515625 29.113281 24.078125 29.453125 24.121094 30.421875 C 24.199219 30.59375 24.3125 30.742188 24.460938 30.859375 C 25.367188 30.910156 26.164062 31.21875 26.855469 31.789062 C 27.613281 32.851562 27.679688 33.957031 27.050781 35.109375 C 26.742188 35.511719 26.351562 35.804688 25.878906 35.984375 C 25.738281 36.910156 25.230469 37.1875 24.367188 36.816406 C 24.183594 36.566406 24.070312 36.292969 24.023438 35.984375 C 23.410156 35.730469 22.953125 35.308594 22.65625 34.71875 C 22.574219 33.820312 22.980469 33.480469 23.875 33.691406 C 24.109375 33.957031 24.367188 34.183594 24.65625 34.375 C 25.488281 34.457031 25.863281 34.082031 25.78125 33.25 C 25.660156 32.96875 25.449219 32.792969 25.148438 32.714844 C 23.082031 32.539062 22.183594 31.417969 22.460938 29.34375 C 22.746094 28.570312 23.269531 28.015625 24.023438 27.6875 C 24.078125 27.285156 24.253906 26.960938 24.5625 26.710938 Z M 24.5625 26.710938 "/>
<use xlink:href="#surface14" mask="url(#mask3)"/>
<use xlink:href="#surface17" mask="url(#mask4)"/>
<path style=" stroke:none;fill-rule:evenodd;fill:rgb(69.803922%,56.862745%,27.45098%);fill-opacity:1;" d="M 7.46875 33.546875 C 8.171875 33.5625 8.5625 33.917969 8.640625 34.617188 C 9.269531 34.875 9.742188 35.296875 10.058594 35.890625 C 10.140625 36.71875 9.765625 37.09375 8.9375 37.011719 C 8.640625 36.847656 8.414062 36.621094 8.25 36.328125 C 7.269531 35.980469 6.828125 36.324219 6.933594 37.351562 C 7.011719 37.527344 7.125 37.675781 7.273438 37.792969 C 9.03125 37.835938 10.039062 38.714844 10.304688 40.429688 C 10.230469 41.601562 9.660156 42.429688 8.59375 42.921875 C 8.488281 43.8125 8.015625 44.089844 7.179688 43.75 C 6.957031 43.519531 6.839844 43.246094 6.835938 42.921875 C 6.191406 42.632812 5.703125 42.175781 5.371094 41.554688 C 5.359375 40.71875 5.765625 40.378906 6.59375 40.527344 C 6.886719 40.921875 7.261719 41.199219 7.714844 41.359375 C 8.394531 41.199219 8.65625 40.777344 8.496094 40.085938 C 8.125 39.664062 7.652344 39.484375 7.078125 39.550781 C 5.460938 38.933594 4.859375 37.777344 5.273438 36.085938 C 5.582031 35.332031 6.121094 34.84375 6.882812 34.617188 C 6.828125 34.121094 7.023438 33.765625 7.46875 33.546875 Z M 7.46875 33.546875 "/>
<use xlink:href="#surface20" mask="url(#mask5)"/>
<use xlink:href="#surface23" mask="url(#mask6)"/>
<use xlink:href="#surface26" mask="url(#mask7)"/>
<use xlink:href="#surface29" mask="url(#mask8)"/>
<use xlink:href="#surface32" mask="url(#mask9)"/>
<use xlink:href="#surface35" mask="url(#mask10)"/>
<use xlink:href="#surface38" mask="url(#mask11)"/>
<use xlink:href="#surface41" mask="url(#mask12)"/>
</g>
</svg>
