<?xml version="1.0" encoding="UTF-8"?>
<svg xmlns="http://www.w3.org/2000/svg" xmlns:xlink="http://www.w3.org/1999/xlink" width="50px" height="50px" viewBox="0 0 50 50" version="1.1">
<defs>
<filter id="alpha" filterUnits="objectBoundingBox" x="0%" y="0%" width="100%" height="100%">
  <feColorMatrix type="matrix" in="SourceGraphic" values="0 0 0 0 1 0 0 0 0 1 0 0 0 0 1 0 0 0 1 0"/>
</filter>
<mask id="mask0">
  <g filter="url(#alpha)">
<rect x="0" y="0" width="50" height="50" style="fill:rgb(0%,0%,0%);fill-opacity:0.988235;stroke:none;"/>
  </g>
</mask>
<clipPath id="clip1">
  <rect x="0" y="0" width="50" height="50"/>
</clipPath>
<g id="surface5" clip-path="url(#clip1)">
<path style=" stroke:none;fill-rule:evenodd;fill:rgb(0.392157%,0%,0%);fill-opacity:1;" d="M 6.882812 3.078125 C 9.273438 2.800781 11.386719 3.421875 13.234375 4.929688 C 15.359375 3.171875 17.769531 2.632812 20.460938 3.320312 C 23.378906 4.300781 25.105469 6.300781 25.632812 9.328125 C 31.136719 9.308594 36.636719 9.328125 42.140625 9.375 C 43.359375 9.683594 44.125 10.449219 44.433594 11.671875 C 44.484375 16.617188 44.5 21.566406 44.484375 26.515625 C 45.492188 26.496094 46.5 26.515625 47.507812 26.5625 C 48.875 27.09375 49.414062 28.089844 49.121094 29.539062 C 48.53125 30.9375 47.472656 31.503906 45.945312 31.25 C 46.164062 32.074219 46.035156 32.839844 45.554688 33.546875 C 46.207031 34.585938 46.207031 35.628906 45.554688 36.671875 C 46.1875 37.671875 46.203125 38.679688 45.605469 39.695312 C 45.324219 40.039062 44.984375 40.300781 44.578125 40.476562 C 44.5 41.289062 44.449219 42.105469 44.433594 42.921875 C 44.125 44.140625 43.359375 44.90625 42.140625 45.214844 C 36.410156 45.28125 30.679688 45.28125 24.953125 45.214844 C 23.730469 44.90625 22.964844 44.140625 22.65625 42.921875 C 22.609375 42.140625 22.589844 41.359375 22.609375 40.578125 C 19.570312 40.363281 16.675781 39.613281 13.914062 38.328125 C 11.09375 39.214844 8.261719 40.0625 5.421875 40.867188 C 5.421875 35.726562 5.421875 30.582031 5.421875 25.4375 C 8.261719 26.246094 11.09375 27.09375 13.914062 27.976562 C 15.707031 27.082031 17.496094 26.1875 19.289062 25.292969 C 20.34375 24.949219 21.417969 24.867188 22.507812 25.046875 C 22.625 23.097656 22.640625 21.144531 22.558594 19.1875 C 21.921875 19.953125 21.222656 20.65625 20.460938 21.289062 C 19.09375 22.234375 17.726562 23.175781 16.359375 24.121094 C 14.273438 25.226562 12.191406 25.226562 10.109375 24.121094 C 8.578125 23.046875 7.046875 21.972656 5.515625 20.898438 C 1.539062 17.351562 0.0898438 12.972656 1.171875 7.765625 C 2.296875 5.242188 4.203125 3.679688 6.882812 3.078125 Z M 6.882812 3.078125 "/>
</g>
</defs>
<g id="surface1">
<use xlink:href="#surface5" mask="url(#mask0)"/>
<path style=" stroke:none;fill-rule:evenodd;fill:rgb(99.215686%,50.588235%,42.745098%);fill-opacity:1;" d="M 7.179688 4.640625 C 8.867188 4.476562 10.394531 4.882812 11.765625 5.859375 C 12.242188 6.347656 12.730469 6.820312 13.234375 7.273438 C 13.804688 6.71875 14.390625 6.183594 14.992188 5.664062 C 17.144531 4.332031 19.328125 4.300781 21.53125 5.566406 C 23.03125 6.605469 23.859375 8.019531 24.023438 9.8125 C 22.707031 10.914062 22.234375 12.3125 22.609375 14.015625 C 21.214844 14.046875 19.832031 14.011719 18.457031 13.914062 C 17.78125 11.582031 17.128906 9.238281 16.503906 6.882812 C 15.152344 10.304688 13.800781 13.71875 12.453125 17.140625 C 11.9375 15.839844 11.433594 14.539062 10.9375 13.234375 C 10.722656 12.984375 10.476562 12.773438 10.203125 12.597656 C 9.589844 12.5 8.972656 12.417969 8.351562 12.351562 C 7.777344 11.238281 6.867188 10.765625 5.617188 10.9375 C 3.917969 11.703125 3.476562 12.925781 4.296875 14.601562 C 5.558594 15.890625 6.828125 15.890625 8.105469 14.601562 C 8.1875 14.4375 8.269531 14.273438 8.351562 14.109375 C 8.773438 13.980469 9.195312 13.980469 9.617188 14.109375 C 10.523438 16.601562 11.46875 19.074219 12.453125 21.53125 C 13.714844 18.316406 14.96875 15.09375 16.210938 11.867188 C 16.53125 12.761719 16.824219 13.671875 17.089844 14.601562 C 17.230469 14.96875 17.476562 15.246094 17.820312 15.429688 C 19.40625 15.574219 21.003906 15.621094 22.609375 15.578125 C 22.679688 16.085938 22.566406 16.539062 22.265625 16.945312 C 21.640625 17.832031 20.9375 18.660156 20.164062 19.433594 C 18.992188 20.28125 17.820312 21.125 16.648438 21.972656 C 16.011719 22.4375 15.328125 22.828125 14.601562 23.144531 C 13.335938 23.5625 12.132812 23.429688 10.984375 22.753906 C 9.390625 21.695312 7.828125 20.589844 6.296875 19.433594 C 3.179688 16.527344 1.929688 12.960938 2.539062 8.742188 C 3.375 6.554688 4.921875 5.1875 7.179688 4.640625 Z M 7.179688 4.640625 "/>
<path style=" stroke:none;fill-rule:evenodd;fill:rgb(58.431373%,61.960784%,66.27451%);fill-opacity:1;" d="M 25.242188 10.890625 C 26.449219 10.890625 27.652344 10.890625 28.859375 10.890625 C 28.839844 11.507812 28.859375 12.125 28.90625 12.742188 C 29.03125 13.328125 29.375 13.734375 29.929688 13.964844 C 31.753906 14.03125 33.578125 14.03125 35.398438 13.964844 C 36.023438 13.828125 36.429688 13.453125 36.621094 12.84375 C 36.671875 12.191406 36.6875 11.539062 36.671875 10.890625 C 38.363281 10.871094 40.054688 10.890625 41.75 10.9375 C 42.277344 11.109375 42.652344 11.449219 42.871094 11.960938 C 42.921875 13.167969 42.9375 14.371094 42.921875 15.578125 C 36.671875 15.578125 30.421875 15.578125 24.171875 15.578125 C 24.152344 14.371094 24.171875 13.167969 24.21875 11.960938 C 24.449219 11.488281 24.789062 11.128906 25.242188 10.890625 Z M 25.242188 10.890625 "/>
<path style=" stroke:none;fill-rule:evenodd;fill:rgb(89.803922%,91.372549%,92.54902%);fill-opacity:1;" d="M 30.421875 10.890625 C 31.984375 10.890625 33.546875 10.890625 35.109375 10.890625 C 35.109375 11.410156 35.109375 11.929688 35.109375 12.453125 C 33.546875 12.453125 31.984375 12.453125 30.421875 12.453125 C 30.421875 11.929688 30.421875 11.410156 30.421875 10.890625 Z M 30.421875 10.890625 "/>
<path style=" stroke:none;fill-rule:evenodd;fill:rgb(94.509804%,80.784314%,41.960784%);fill-opacity:1;" d="M 5.90625 12.453125 C 6.703125 12.386719 7.046875 12.742188 6.933594 13.523438 C 6.714844 13.953125 6.375 14.097656 5.90625 13.964844 C 5.480469 13.746094 5.335938 13.40625 5.46875 12.9375 C 5.570312 12.726562 5.714844 12.5625 5.90625 12.453125 Z M 5.90625 12.453125 "/>
<path style=" stroke:none;fill-rule:evenodd;fill:rgb(40.784314%,83.529412%,95.294118%);fill-opacity:1;" d="M 24.171875 17.140625 C 30.421875 17.140625 36.671875 17.140625 42.921875 17.140625 C 42.921875 21.304688 42.921875 25.472656 42.921875 29.640625 C 41.566406 29.410156 40.574219 29.898438 39.941406 31.101562 C 39.652344 31.996094 39.800781 32.808594 40.382812 33.546875 C 39.605469 34.578125 39.605469 35.621094 40.382812 36.671875 C 40.226562 36.882812 40.09375 37.109375 39.992188 37.351562 C 34.71875 37.453125 29.445312 37.484375 24.171875 37.453125 C 24.136719 36.246094 24.171875 35.039062 24.265625 33.835938 C 25.816406 34.625 27.164062 34.363281 28.320312 33.054688 C 29.046875 31.886719 29.03125 30.730469 28.273438 29.589844 C 28.980469 29.632812 29.695312 29.648438 30.421875 29.640625 C 29.992188 32.121094 31.015625 33.164062 33.496094 32.765625 C 36.027344 33.210938 37.085938 32.167969 36.671875 29.640625 C 39.199219 30.054688 40.242188 28.996094 39.796875 26.464844 C 40.195312 23.984375 39.152344 22.960938 36.671875 23.390625 C 37.085938 20.859375 36.03125 19.820312 33.496094 20.265625 C 31.015625 19.867188 29.988281 20.90625 30.421875 23.390625 C 29.734375 23.371094 29.050781 23.390625 28.367188 23.4375 C 27.96875 23.609375 27.660156 23.886719 27.441406 24.265625 C 27.277344 25.699219 27.246094 27.128906 27.34375 28.5625 C 26.40625 27.527344 25.378906 26.601562 24.265625 25.78125 C 24.171875 22.90625 24.136719 20.027344 24.171875 17.140625 Z M 24.171875 17.140625 "/>
<path style=" stroke:none;fill-rule:evenodd;fill:rgb(99.607843%,50.980392%,42.745098%);fill-opacity:1;" d="M 31.984375 21.828125 C 33.023438 21.828125 34.066406 21.828125 35.109375 21.828125 C 35.109375 22.867188 35.109375 23.910156 35.109375 24.953125 C 36.148438 24.953125 37.191406 24.953125 38.234375 24.953125 C 38.234375 25.992188 38.234375 27.035156 38.234375 28.078125 C 37.191406 28.078125 36.148438 28.078125 35.109375 28.078125 C 35.109375 29.117188 35.109375 30.160156 35.109375 31.203125 C 34.066406 31.203125 33.023438 31.203125 31.984375 31.203125 C 31.984375 30.160156 31.984375 29.117188 31.984375 28.078125 C 30.941406 28.078125 29.898438 28.078125 28.859375 28.078125 C 28.859375 27.035156 28.859375 25.992188 28.859375 24.953125 C 29.898438 24.953125 30.941406 24.953125 31.984375 24.953125 C 31.984375 23.910156 31.984375 22.867188 31.984375 21.828125 Z M 31.984375 21.828125 "/>
<path style=" stroke:none;fill-rule:evenodd;fill:rgb(93.333333%,81.176471%,70.196078%);fill-opacity:1;" d="M 20.65625 26.515625 C 21.820312 26.4375 22.894531 26.714844 23.875 27.34375 C 24.933594 28.402344 25.992188 29.460938 27.050781 30.515625 C 27.566406 32.019531 27.027344 32.753906 25.4375 32.714844 C 25.308594 32.648438 25.179688 32.585938 25.046875 32.519531 C 24.199219 31.636719 23.320312 30.792969 22.414062 29.980469 C 22.132812 29.84375 21.839844 29.746094 21.53125 29.6875 C 20.851562 29.640625 20.167969 29.621094 19.484375 29.640625 C 19.484375 30.160156 19.484375 30.679688 19.484375 31.203125 C 20.132812 31.183594 20.785156 31.203125 21.4375 31.25 C 21.839844 31.554688 22.214844 31.898438 22.558594 32.273438 C 22.609375 34.488281 22.625 36.703125 22.609375 38.914062 C 19.902344 38.785156 17.332031 38.132812 14.890625 36.960938 C 14.777344 34.425781 14.761719 31.886719 14.84375 29.34375 C 16.757812 28.332031 18.695312 27.386719 20.65625 26.515625 Z M 20.65625 26.515625 "/>
<path style=" stroke:none;fill-rule:evenodd;fill:rgb(70.196078%,86.27451%,49.411765%);fill-opacity:1;" d="M 6.984375 27.585938 C 9.039062 28.1875 11.089844 28.804688 13.132812 29.445312 C 13.265625 31.917969 13.265625 34.390625 13.132812 36.867188 C 11.117188 37.484375 9.097656 38.101562 7.078125 38.71875 C 6.984375 35.011719 6.949219 31.300781 6.984375 27.585938 Z M 6.984375 27.585938 "/>
<path style=" stroke:none;fill-rule:evenodd;fill:rgb(92.941176%,80.392157%,69.803922%);fill-opacity:1;" d="M 44.484375 28.078125 C 45.363281 28.058594 46.242188 28.078125 47.117188 28.125 C 47.609375 28.417969 47.726562 28.828125 47.460938 29.34375 C 47.371094 29.464844 47.257812 29.542969 47.117188 29.589844 C 46.242188 29.640625 45.363281 29.65625 44.484375 29.640625 C 44.484375 29.117188 44.484375 28.597656 44.484375 28.078125 Z M 44.484375 28.078125 "/>
<path style=" stroke:none;fill-rule:evenodd;fill:rgb(92.156863%,80%,69.019608%);fill-opacity:1;" d="M 41.84375 31.203125 C 42.5625 31.183594 43.277344 31.203125 43.992188 31.25 C 44.421875 31.46875 44.566406 31.808594 44.433594 32.273438 C 44.351562 32.488281 44.207031 32.632812 43.992188 32.714844 C 43.277344 32.78125 42.5625 32.78125 41.84375 32.714844 C 41.355469 32.421875 41.238281 32.015625 41.503906 31.492188 C 41.617188 31.382812 41.730469 31.285156 41.84375 31.203125 Z M 41.84375 31.203125 "/>
<path style=" stroke:none;fill-rule:evenodd;fill:rgb(92.156863%,80%,69.019608%);fill-opacity:1;" d="M 41.84375 34.328125 C 42.5625 34.308594 43.277344 34.328125 43.992188 34.375 C 44.421875 34.59375 44.566406 34.933594 44.433594 35.398438 C 44.351562 35.613281 44.207031 35.757812 43.992188 35.839844 C 43.277344 35.90625 42.5625 35.90625 41.84375 35.839844 C 41.355469 35.546875 41.238281 35.140625 41.503906 34.617188 C 41.617188 34.507812 41.730469 34.410156 41.84375 34.328125 Z M 41.84375 34.328125 "/>
<path style=" stroke:none;fill-rule:evenodd;fill:rgb(92.156863%,80%,69.019608%);fill-opacity:1;" d="M 41.84375 37.453125 C 42.5625 37.433594 43.277344 37.453125 43.992188 37.5 C 44.421875 37.71875 44.566406 38.058594 44.433594 38.523438 C 44.351562 38.738281 44.207031 38.882812 43.992188 38.964844 C 43.277344 39.03125 42.5625 39.03125 41.84375 38.964844 C 41.355469 38.671875 41.238281 38.265625 41.503906 37.742188 C 41.617188 37.632812 41.730469 37.535156 41.84375 37.453125 Z M 41.84375 37.453125 "/>
<path style=" stroke:none;fill-rule:evenodd;fill:rgb(58.431373%,61.960784%,66.27451%);fill-opacity:1;" d="M 24.171875 39.015625 C 29.445312 38.980469 34.71875 39.015625 39.992188 39.109375 C 40.601562 40.304688 41.578125 40.792969 42.921875 40.578125 C 42.957031 41.332031 42.910156 42.082031 42.773438 42.820312 C 42.546875 43.242188 42.207031 43.519531 41.75 43.652344 C 36.246094 43.71875 30.746094 43.71875 25.242188 43.652344 C 24.730469 43.433594 24.390625 43.058594 24.21875 42.53125 C 24.171875 41.359375 24.152344 40.1875 24.171875 39.015625 Z M 24.171875 39.015625 "/>
<path style=" stroke:none;fill-rule:evenodd;fill:rgb(0%,0%,0%);fill-opacity:1;" d="M 30.421875 40.578125 C 32.503906 40.578125 34.585938 40.578125 36.671875 40.578125 C 36.671875 41.097656 36.671875 41.617188 36.671875 42.140625 C 34.585938 42.140625 32.503906 42.140625 30.421875 42.140625 C 30.421875 41.617188 30.421875 41.097656 30.421875 40.578125 Z M 30.421875 40.578125 "/>
</g>
</svg>
