<?xml version="1.0" encoding="UTF-8"?>
<svg xmlns="http://www.w3.org/2000/svg" xmlns:xlink="http://www.w3.org/1999/xlink" width="50px" height="50px" viewBox="0 0 50 50" version="1.1">
<defs>
<filter id="alpha" filterUnits="objectBoundingBox" x="0%" y="0%" width="100%" height="100%">
  <feColorMatrix type="matrix" in="SourceGraphic" values="0 0 0 0 1 0 0 0 0 1 0 0 0 0 1 0 0 0 1 0"/>
</filter>
<mask id="mask0">
  <g filter="url(#alpha)">
<rect x="0" y="0" width="50" height="50" style="fill:rgb(0%,0%,0%);fill-opacity:0.992157;stroke:none;"/>
  </g>
</mask>
<clipPath id="clip1">
  <rect x="0" y="0" width="50" height="50"/>
</clipPath>
<g id="surface5" clip-path="url(#clip1)">
<path style=" stroke:none;fill-rule:evenodd;fill:rgb(27.843137%,92.54902%,89.411765%);fill-opacity:1;" d="M 26.023438 15.382812 C 25.847656 15.378906 25.6875 15.429688 25.539062 15.527344 C 22.671875 18 19.773438 20.425781 16.84375 22.804688 C 15.152344 22.820312 13.460938 22.804688 11.765625 22.753906 C 10.875 22.542969 10.273438 22.007812 9.960938 21.140625 C 9.804688 18.117188 9.769531 15.089844 9.863281 12.0625 C 10.074219 10.808594 10.808594 10.074219 12.0625 9.863281 C 16.164062 9.769531 20.265625 9.800781 24.367188 9.960938 C 25.203125 10.246094 25.738281 10.8125 25.976562 11.671875 C 26.023438 12.90625 26.042969 14.144531 26.023438 15.382812 Z M 26.023438 15.382812 "/>
</g>
<mask id="mask1">
  <g filter="url(#alpha)">
<rect x="0" y="0" width="50" height="50" style="fill:rgb(0%,0%,0%);fill-opacity:0.937255;stroke:none;"/>
  </g>
</mask>
<clipPath id="clip2">
  <rect x="0" y="0" width="50" height="50"/>
</clipPath>
<g id="surface8" clip-path="url(#clip2)">
<path style=" stroke:none;fill-rule:evenodd;fill:rgb(19.607843%,20%,20%);fill-opacity:1;" d="M 26.023438 15.382812 C 26.285156 15.425781 26.511719 15.539062 26.710938 15.722656 C 31.152344 19.515625 35.59375 23.308594 40.039062 27.101562 C 40.105469 27.457031 40.105469 27.816406 40.039062 28.171875 C 39.992188 28.289062 39.910156 28.367188 39.796875 28.417969 C 38.492188 28.46875 37.191406 28.484375 35.890625 28.46875 C 35.9375 32.21875 35.886719 35.960938 35.742188 39.695312 C 35.628906 39.832031 35.480469 39.914062 35.304688 39.941406 C 29.085938 40.007812 22.867188 40.007812 16.648438 39.941406 C 16.472656 39.914062 16.324219 39.832031 16.210938 39.695312 C 16.066406 35.996094 16.015625 32.285156 16.0625 28.5625 C 14.761719 28.582031 13.460938 28.5625 12.15625 28.515625 C 11.988281 28.417969 11.871094 28.269531 11.816406 28.078125 C 11.65625 27.503906 11.800781 27.03125 12.257812 26.660156 C 13.804688 25.386719 15.335938 24.101562 16.84375 22.804688 C 19.773438 20.425781 22.671875 18 25.539062 15.527344 C 25.6875 15.429688 25.847656 15.378906 26.023438 15.382812 Z M 26.023438 16.84375 C 30.207031 20.359375 34.40625 23.859375 38.625 27.34375 C 37.386719 27.375 36.148438 27.410156 34.914062 27.441406 C 34.792969 27.53125 34.714844 27.644531 34.667969 27.78125 C 34.617188 31.429688 34.601562 35.074219 34.617188 38.71875 C 28.824219 38.71875 23.03125 38.71875 17.234375 38.71875 C 17.253906 35.042969 17.234375 31.363281 17.1875 27.6875 C 17.140625 27.570312 17.058594 27.492188 16.945312 27.441406 C 15.707031 27.410156 14.46875 27.375 13.234375 27.34375 C 15.070312 25.847656 16.894531 24.332031 18.703125 22.804688 C 20.492188 22.820312 22.28125 22.804688 24.070312 22.753906 C 25.058594 22.519531 25.691406 21.914062 25.976562 20.945312 C 26.023438 19.582031 26.042969 18.214844 26.023438 16.84375 Z M 25.734375 26.320312 C 26.984375 26.382812 27.554688 27.035156 27.441406 28.273438 C 26.914062 29.445312 26.082031 29.722656 24.953125 29.101562 C 24.136719 28.191406 24.203125 27.34375 25.148438 26.5625 C 25.351562 26.480469 25.546875 26.398438 25.734375 26.320312 Z M 25.734375 26.320312 "/>
</g>
<mask id="mask2">
  <g filter="url(#alpha)">
<rect x="0" y="0" width="50" height="50" style="fill:rgb(0%,0%,0%);fill-opacity:0.992157;stroke:none;"/>
  </g>
</mask>
<clipPath id="clip3">
  <rect x="0" y="0" width="50" height="50"/>
</clipPath>
<g id="surface11" clip-path="url(#clip3)">
<path style=" stroke:none;fill-rule:evenodd;fill:rgb(27.843137%,92.156863%,89.019608%);fill-opacity:1;" d="M 26.023438 16.84375 C 26.042969 18.214844 26.023438 19.582031 25.976562 20.945312 C 25.691406 21.914062 25.058594 22.519531 24.070312 22.753906 C 22.28125 22.804688 20.492188 22.820312 18.703125 22.804688 C 21.070312 20.769531 23.445312 18.734375 25.828125 16.699219 C 25.957031 16.648438 26.023438 16.695312 26.023438 16.84375 Z M 26.023438 16.84375 "/>
</g>
<mask id="mask3">
  <g filter="url(#alpha)">
<rect x="0" y="0" width="50" height="50" style="fill:rgb(0%,0%,0%);fill-opacity:0.933333;stroke:none;"/>
  </g>
</mask>
<clipPath id="clip4">
  <rect x="0" y="0" width="50" height="50"/>
</clipPath>
<g id="surface14" clip-path="url(#clip4)">
<path style=" stroke:none;fill-rule:evenodd;fill:rgb(19.607843%,19.607843%,19.607843%);fill-opacity:1;" d="M 25.4375 25.148438 C 27.949219 25.214844 28.972656 26.484375 28.515625 28.953125 C 27.753906 30.433594 26.566406 30.9375 24.953125 30.46875 C 23.808594 29.992188 23.222656 29.128906 23.195312 27.882812 C 23.304688 26.433594 24.054688 25.523438 25.4375 25.148438 Z M 25.734375 26.320312 C 25.546875 26.398438 25.351562 26.480469 25.148438 26.5625 C 24.203125 27.34375 24.136719 28.191406 24.953125 29.101562 C 26.082031 29.722656 26.914062 29.445312 27.441406 28.273438 C 27.554688 27.035156 26.984375 26.382812 25.734375 26.320312 Z M 25.734375 26.320312 "/>
</g>
<mask id="mask4">
  <g filter="url(#alpha)">
<rect x="0" y="0" width="50" height="50" style="fill:rgb(0%,0%,0%);fill-opacity:0.929412;stroke:none;"/>
  </g>
</mask>
<clipPath id="clip5">
  <rect x="0" y="0" width="50" height="50"/>
</clipPath>
<g id="surface17" clip-path="url(#clip5)">
<path style=" stroke:none;fill-rule:evenodd;fill:rgb(19.607843%,19.607843%,19.607843%);fill-opacity:1;" d="M 24.460938 31.101562 C 25.441406 31.085938 26.417969 31.101562 27.390625 31.152344 C 29.527344 31.757812 30.585938 33.171875 30.566406 35.398438 C 30.242188 35.875 29.882812 35.90625 29.492188 35.5 C 29.332031 33.273438 28.144531 32.195312 25.929688 32.273438 C 23.765625 32.253906 22.59375 33.328125 22.414062 35.5 C 22.070312 35.875 21.730469 35.875 21.386719 35.5 C 21.304688 33.25 22.332031 31.785156 24.460938 31.101562 Z M 24.460938 31.101562 "/>
</g>
</defs>
<g id="surface1">
<use xlink:href="#surface5" mask="url(#mask0)"/>
<path style=" stroke:none;fill-rule:evenodd;fill:rgb(20%,20.784314%,20.784314%);fill-opacity:1;" d="M 17.429688 12.742188 C 17.65625 12.71875 17.867188 12.75 18.066406 12.84375 C 18.535156 13.894531 19.023438 14.9375 19.53125 15.96875 C 19.679688 15.75 19.859375 15.570312 20.070312 15.429688 C 20.882812 15.363281 21.695312 15.363281 22.507812 15.429688 C 22.90625 15.796875 22.875 16.121094 22.414062 16.40625 C 21.792969 16.4375 21.175781 16.472656 20.554688 16.503906 C 20.308594 16.898438 20.015625 17.257812 19.679688 17.578125 C 19.484375 17.644531 19.289062 17.644531 19.09375 17.578125 C 18.640625 16.660156 18.203125 15.734375 17.773438 14.796875 C 17.226562 16.179688 16.707031 17.582031 16.210938 18.992188 C 15.957031 19.339844 15.664062 19.375 15.332031 19.09375 C 14.941406 18.195312 14.597656 17.285156 14.304688 16.359375 C 13.839844 16.394531 13.382812 16.34375 12.9375 16.210938 C 12.773438 15.867188 12.839844 15.574219 13.132812 15.332031 C 13.6875 15.265625 14.242188 15.265625 14.796875 15.332031 C 14.875 15.414062 14.957031 15.496094 15.039062 15.578125 C 15.269531 16.101562 15.496094 16.621094 15.722656 17.140625 C 16.164062 15.910156 16.589844 14.671875 16.992188 13.429688 C 17.09375 13.160156 17.238281 12.933594 17.429688 12.742188 Z M 17.429688 12.742188 "/>
<use xlink:href="#surface8" mask="url(#mask1)"/>
<use xlink:href="#surface11" mask="url(#mask2)"/>
<use xlink:href="#surface14" mask="url(#mask3)"/>
<use xlink:href="#surface17" mask="url(#mask4)"/>
</g>
</svg>
