<?xml version="1.0" encoding="UTF-8"?>
<svg xmlns="http://www.w3.org/2000/svg" xmlns:xlink="http://www.w3.org/1999/xlink" width="50px" height="50px" viewBox="0 0 50 50" version="1.1">
<defs>
<filter id="alpha" filterUnits="objectBoundingBox" x="0%" y="0%" width="100%" height="100%">
  <feColorMatrix type="matrix" in="SourceGraphic" values="0 0 0 0 1 0 0 0 0 1 0 0 0 0 1 0 0 0 1 0"/>
</filter>
<mask id="mask0">
  <g filter="url(#alpha)">
<rect x="0" y="0" width="50" height="50" style="fill:rgb(0%,0%,0%);fill-opacity:0.976471;stroke:none;"/>
  </g>
</mask>
<clipPath id="clip1">
  <rect x="0" y="0" width="50" height="50"/>
</clipPath>
<g id="surface5" clip-path="url(#clip1)">
<path style=" stroke:none;fill-rule:evenodd;fill:rgb(32.941176%,27.45098%,61.176471%);fill-opacity:1;" d="M 12.84375 -0.046875 C 20.230469 -0.046875 27.621094 -0.046875 35.007812 -0.046875 C 36.65625 0.378906 37.714844 1.421875 38.183594 3.078125 C 38.328125 7.46875 38.375 11.863281 38.328125 16.257812 C 37.777344 15.773438 37.257812 15.25 36.765625 14.695312 C 36.785156 10.921875 36.765625 7.144531 36.71875 3.367188 C 36.351562 2.316406 35.617188 1.679688 34.523438 1.464844 C 33.742188 1.417969 32.960938 1.398438 32.179688 1.414062 C 25.828125 1.398438 19.480469 1.414062 13.132812 1.464844 C 12.003906 1.78125 11.304688 2.515625 11.035156 3.664062 C 10.984375 6.558594 10.96875 9.457031 10.984375 12.351562 C 10.5 12.351562 10.007812 12.351562 9.523438 12.351562 C 9.476562 9.222656 9.523438 6.097656 9.667969 2.976562 C 10.175781 1.378906 11.234375 0.371094 12.84375 -0.046875 Z M 12.84375 -0.046875 "/>
</g>
<mask id="mask1">
  <g filter="url(#alpha)">
<rect x="0" y="0" width="50" height="50" style="fill:rgb(0%,0%,0%);fill-opacity:0.988235;stroke:none;"/>
  </g>
</mask>
<clipPath id="clip2">
  <rect x="0" y="0" width="50" height="50"/>
</clipPath>
<g id="surface8" clip-path="url(#clip2)">
<path style=" stroke:none;fill-rule:evenodd;fill:rgb(100%,80.392157%,74.509804%);fill-opacity:1;" d="M 8.25 12.351562 C 9.121094 12.65625 9.726562 13.242188 10.058594 14.109375 C 10.144531 15.09375 10.113281 16.070312 9.960938 17.039062 C 9.578125 17.796875 8.976562 18.285156 8.15625 18.507812 C 9.085938 18.773438 9.722656 19.359375 10.058594 20.265625 C 10.125 21.109375 10.125 21.957031 10.058594 22.804688 C 9.773438 23.726562 9.167969 24.34375 8.25 24.65625 C 9.660156 25.207031 10.28125 26.230469 10.109375 27.734375 C 10.292969 29.347656 9.609375 30.355469 8.054688 30.761719 C 9.660156 31.21875 10.34375 32.273438 10.109375 33.9375 C 10.269531 35.539062 9.585938 36.546875 8.054688 36.960938 C 6.640625 37.0625 5.710938 36.441406 5.273438 35.109375 C 5.183594 34.15625 5.214844 33.210938 5.371094 32.273438 C 5.707031 31.511719 6.273438 31.007812 7.078125 30.761719 C 6.152344 30.484375 5.550781 29.882812 5.273438 28.953125 C 5.183594 28.003906 5.214844 27.058594 5.371094 26.125 C 5.675781 25.378906 6.210938 24.890625 6.984375 24.65625 C 6.273438 24.359375 5.738281 23.871094 5.371094 23.195312 C 5.21875 22.222656 5.1875 21.246094 5.273438 20.265625 C 5.527344 19.375 6.097656 18.789062 6.984375 18.507812 C 5.617188 17.960938 5.03125 16.953125 5.226562 15.476562 C 5 14.125 5.488281 13.132812 6.6875 12.5 C 7.199219 12.371094 7.722656 12.320312 8.25 12.351562 Z M 8.25 12.351562 "/>
</g>
<mask id="mask2">
  <g filter="url(#alpha)">
<rect x="0" y="0" width="50" height="50" style="fill:rgb(0%,0%,0%);fill-opacity:0.984314;stroke:none;"/>
  </g>
</mask>
<clipPath id="clip3">
  <rect x="0" y="0" width="50" height="50"/>
</clipPath>
<g id="surface11" clip-path="url(#clip3)">
<path style=" stroke:none;fill-rule:evenodd;fill:rgb(32.941176%,27.45098%,61.176471%);fill-opacity:1;" d="M 9.523438 36.960938 C 10.007812 36.960938 10.5 36.960938 10.984375 36.960938 C 10.96875 40.023438 10.984375 43.082031 11.035156 46.140625 C 11.261719 47.34375 11.960938 48.109375 13.132812 48.4375 C 19.480469 48.484375 25.828125 48.503906 32.179688 48.484375 C 33.023438 48.503906 33.871094 48.484375 34.71875 48.4375 C 35.773438 48.160156 36.441406 47.492188 36.71875 46.4375 C 36.738281 45.839844 36.789062 45.253906 36.867188 44.679688 C 37.355469 44.59375 37.84375 44.496094 38.328125 44.382812 C 38.484375 45.734375 38.242188 47.003906 37.597656 48.195312 C 36.917969 49.0625 36.054688 49.648438 35.007812 49.953125 C 27.621094 49.953125 20.230469 49.953125 12.84375 49.953125 C 11.234375 49.53125 10.175781 48.523438 9.667969 46.921875 C 9.523438 43.609375 9.476562 40.289062 9.523438 36.960938 Z M 9.523438 36.960938 "/>
</g>
</defs>
<g id="surface1">
<use xlink:href="#surface5" mask="url(#mask0)"/>
<path style=" stroke:none;fill-rule:evenodd;fill:rgb(94.509804%,98.039216%,99.607843%);fill-opacity:1;" d="M 32.179688 1.414062 C 32.839844 2.019531 33.246094 2.769531 33.398438 3.664062 C 33.445312 6.234375 33.464844 8.804688 33.445312 11.375 C 33.003906 10.917969 32.515625 10.511719 31.984375 10.15625 C 31.550781 10.046875 31.191406 10.160156 30.90625 10.5 C 29.734375 10.5 28.5625 10.5 27.390625 10.5 C 23.714844 10.480469 20.035156 10.5 16.359375 10.546875 C 16.277344 10.628906 16.195312 10.710938 16.113281 10.789062 C 16.046875 12.191406 16.046875 13.589844 16.113281 14.992188 C 16.148438 15.078125 16.199219 15.160156 16.257812 15.234375 C 20.003906 15.28125 23.746094 15.300781 27.492188 15.28125 C 28.207031 15.28125 28.921875 15.28125 29.640625 15.28125 C 29.84375 15.984375 30.152344 16.636719 30.566406 17.234375 C 31.578125 18.234375 32.570312 19.242188 33.546875 20.265625 C 33.449219 22.167969 33.414062 24.085938 33.445312 26.023438 C 33.382812 26.058594 33.316406 26.089844 33.25 26.125 C 29.269531 27.128906 26.808594 29.636719 25.878906 33.640625 C 25.355469 37.667969 26.703125 40.890625 29.929688 43.3125 C 23.648438 43.3125 17.367188 43.3125 11.085938 43.3125 C 11.085938 41.195312 11.085938 39.078125 11.085938 36.960938 C 12.179688 36.699219 12.878906 36.015625 13.183594 34.914062 C 13.296875 33.984375 13.230469 33.074219 12.988281 32.179688 C 12.617188 31.480469 12.046875 31.023438 11.28125 30.8125 C 12.3125 30.445312 12.949219 29.726562 13.183594 28.664062 C 13.273438 27.875 13.238281 27.09375 13.085938 26.320312 C 12.78125 25.492188 12.214844 24.9375 11.375 24.65625 C 12.351562 24.25 12.957031 23.535156 13.183594 22.507812 C 13.25 21.828125 13.25 21.140625 13.183594 20.460938 C 12.921875 19.441406 12.285156 18.789062 11.28125 18.507812 C 12.703125 17.988281 13.355469 16.964844 13.234375 15.429688 C 13.363281 13.753906 12.613281 12.726562 10.984375 12.351562 C 10.96875 9.457031 10.984375 6.558594 11.035156 3.664062 C 11.304688 2.515625 12.003906 1.78125 13.132812 1.464844 C 19.480469 1.414062 25.828125 1.398438 32.179688 1.414062 Z M 32.179688 1.414062 "/>
<path style=" stroke:none;fill-rule:evenodd;fill:rgb(87.058824%,96.078431%,98.823529%);fill-opacity:1;" d="M 32.179688 1.414062 C 32.960938 1.398438 33.742188 1.417969 34.523438 1.464844 C 35.617188 1.679688 36.351562 2.316406 36.71875 3.367188 C 36.765625 7.144531 36.785156 10.921875 36.765625 14.695312 C 35.628906 13.625 34.523438 12.515625 33.445312 11.375 C 33.464844 8.804688 33.445312 6.234375 33.398438 3.664062 C 33.246094 2.769531 32.839844 2.019531 32.179688 1.414062 Z M 32.179688 1.414062 "/>
<path style=" stroke:none;fill-rule:evenodd;fill:rgb(52.54902%,48.627451%,76.078431%);fill-opacity:1;" d="M 17.53125 3.757812 C 21.792969 3.742188 26.058594 3.757812 30.320312 3.808594 C 30.605469 4.09375 30.6875 4.433594 30.566406 4.835938 C 30.449219 4.984375 30.300781 5.097656 30.125 5.175781 C 25.992188 5.242188 21.859375 5.242188 17.726562 5.175781 C 17.042969 4.777344 16.976562 4.304688 17.53125 3.757812 Z M 17.53125 3.757812 "/>
<path style=" stroke:none;fill-rule:evenodd;fill:rgb(99.607843%,69.019608%,61.960784%);fill-opacity:1;" d="M 33.445312 11.375 C 34.523438 12.515625 35.628906 13.625 36.765625 14.695312 C 37.257812 15.25 37.777344 15.773438 38.328125 16.257812 C 39.859375 17.707031 41.339844 19.207031 42.773438 20.75 C 43.167969 21.382812 43.429688 22.066406 43.554688 22.804688 C 43.601562 25.503906 43.621094 28.207031 43.601562 30.90625 C 42.839844 29.523438 41.796875 28.386719 40.476562 27.492188 C 40.496094 26.253906 40.476562 25.015625 40.429688 23.78125 C 40.339844 23.109375 40.113281 22.492188 39.746094 21.921875 C 36.523438 18.585938 33.25 15.296875 29.929688 12.0625 C 30.140625 11.464844 30.464844 10.941406 30.90625 10.5 C 31.191406 10.160156 31.550781 10.046875 31.984375 10.15625 C 32.515625 10.511719 33.003906 10.917969 33.445312 11.375 Z M 33.445312 11.375 "/>
<path style=" stroke:none;fill-rule:evenodd;fill:rgb(63.529412%,90.196078%,18.039216%);fill-opacity:1;" d="M 27.390625 10.5 C 27.488281 10.578125 27.570312 10.675781 27.636719 10.789062 C 27.703125 12.191406 27.703125 13.589844 27.636719 14.992188 C 27.585938 15.089844 27.539062 15.1875 27.492188 15.28125 C 23.746094 15.300781 20.003906 15.28125 16.257812 15.234375 C 16.199219 15.160156 16.148438 15.078125 16.113281 14.992188 C 16.046875 13.589844 16.046875 12.191406 16.113281 10.789062 C 16.195312 10.710938 16.277344 10.628906 16.359375 10.546875 C 20.035156 10.5 23.714844 10.480469 27.390625 10.5 Z M 27.390625 10.5 "/>
<path style=" stroke:none;fill-rule:evenodd;fill:rgb(59.215686%,83.921569%,16.470588%);fill-opacity:1;" d="M 27.390625 10.5 C 28.5625 10.5 29.734375 10.5 30.90625 10.5 C 30.464844 10.941406 30.140625 11.464844 29.929688 12.0625 C 29.773438 12.359375 29.660156 12.683594 29.589844 13.039062 C 29.523438 13.789062 29.539062 14.539062 29.640625 15.28125 C 28.921875 15.28125 28.207031 15.28125 27.492188 15.28125 C 27.539062 15.1875 27.585938 15.089844 27.636719 14.992188 C 27.703125 13.589844 27.703125 12.191406 27.636719 10.789062 C 27.570312 10.675781 27.488281 10.578125 27.390625 10.5 Z M 27.390625 10.5 "/>
<path style=" stroke:none;fill-rule:evenodd;fill:rgb(99.607843%,80.784314%,74.901961%);fill-opacity:1;" d="M 29.929688 12.0625 C 33.25 15.296875 36.523438 18.585938 39.746094 21.921875 C 40.113281 22.492188 40.339844 23.109375 40.429688 23.78125 C 40.476562 25.015625 40.496094 26.253906 40.476562 27.492188 C 38.910156 26.457031 37.1875 25.9375 35.304688 25.929688 C 35.320312 24.59375 35.304688 23.257812 35.253906 21.921875 C 34.695312 21.351562 34.128906 20.796875 33.546875 20.265625 C 32.570312 19.242188 31.578125 18.234375 30.566406 17.234375 C 30.152344 16.636719 29.84375 15.984375 29.640625 15.28125 C 29.539062 14.539062 29.523438 13.789062 29.589844 13.039062 C 29.660156 12.683594 29.773438 12.359375 29.929688 12.0625 Z M 29.929688 12.0625 "/>
<use xlink:href="#surface8" mask="url(#mask1)"/>
<path style=" stroke:none;fill-rule:evenodd;fill:rgb(99.607843%,69.019608%,61.960784%);fill-opacity:1;" d="M 8.25 12.351562 C 8.675781 12.351562 9.097656 12.351562 9.523438 12.351562 C 10.007812 12.351562 10.5 12.351562 10.984375 12.351562 C 12.613281 12.726562 13.363281 13.753906 13.234375 15.429688 C 13.355469 16.964844 12.703125 17.988281 11.28125 18.507812 C 12.285156 18.789062 12.921875 19.441406 13.183594 20.460938 C 13.25 21.140625 13.25 21.828125 13.183594 22.507812 C 12.957031 23.535156 12.351562 24.25 11.375 24.65625 C 12.214844 24.9375 12.78125 25.492188 13.085938 26.320312 C 13.238281 27.09375 13.273438 27.875 13.183594 28.664062 C 12.949219 29.726562 12.3125 30.445312 11.28125 30.8125 C 12.046875 31.023438 12.617188 31.480469 12.988281 32.179688 C 13.230469 33.074219 13.296875 33.984375 13.183594 34.914062 C 12.878906 36.015625 12.179688 36.699219 11.085938 36.960938 C 11.050781 36.960938 11.019531 36.960938 10.984375 36.960938 C 10.5 36.960938 10.007812 36.960938 9.523438 36.960938 C 9.03125 36.960938 8.546875 36.960938 8.054688 36.960938 C 9.585938 36.546875 10.269531 35.539062 10.109375 33.9375 C 10.34375 32.273438 9.660156 31.21875 8.054688 30.761719 C 9.609375 30.355469 10.292969 29.347656 10.109375 27.734375 C 10.28125 26.230469 9.660156 25.207031 8.25 24.65625 C 9.167969 24.34375 9.773438 23.726562 10.058594 22.804688 C 10.125 21.957031 10.125 21.109375 10.058594 20.265625 C 9.722656 19.359375 9.085938 18.773438 8.15625 18.507812 C 8.976562 18.285156 9.578125 17.796875 9.960938 17.039062 C 10.113281 16.070312 10.144531 15.09375 10.058594 14.109375 C 9.726562 13.242188 9.121094 12.65625 8.25 12.351562 Z M 8.25 12.351562 "/>
<path style=" stroke:none;fill-rule:evenodd;fill:rgb(63.529412%,90.196078%,18.039216%);fill-opacity:1;" d="M 27.390625 18.3125 C 27.488281 18.390625 27.570312 18.488281 27.636719 18.601562 C 27.703125 20.003906 27.703125 21.402344 27.636719 22.804688 C 27.601562 22.890625 27.550781 22.972656 27.492188 23.046875 C 23.8125 23.09375 20.132812 23.113281 16.453125 23.09375 C 16.269531 23.089844 16.15625 22.992188 16.113281 22.804688 C 16.046875 21.402344 16.046875 20.003906 16.113281 18.601562 C 16.195312 18.523438 16.277344 18.441406 16.359375 18.359375 C 20.035156 18.3125 23.714844 18.292969 27.390625 18.3125 Z M 27.390625 18.3125 "/>
<path style=" stroke:none;fill-rule:evenodd;fill:rgb(60.784314%,84.705882%,20.784314%);fill-opacity:1;" d="M 27.390625 18.3125 C 28.761719 18.292969 30.128906 18.3125 31.492188 18.359375 C 31.574219 18.441406 31.65625 18.523438 31.738281 18.601562 C 31.804688 20.003906 31.804688 21.402344 31.738281 22.804688 C 31.6875 22.980469 31.574219 23.09375 31.398438 23.144531 C 26.398438 23.226562 21.417969 23.210938 16.453125 23.09375 C 20.132812 23.113281 23.8125 23.09375 27.492188 23.046875 C 27.550781 22.972656 27.601562 22.890625 27.636719 22.804688 C 27.703125 21.402344 27.703125 20.003906 27.636719 18.601562 C 27.570312 18.488281 27.488281 18.390625 27.390625 18.3125 Z M 27.390625 18.3125 "/>
<path style=" stroke:none;fill-rule:evenodd;fill:rgb(87.45098%,96.078431%,98.823529%);fill-opacity:1;" d="M 33.546875 20.265625 C 34.128906 20.796875 34.695312 21.351562 35.253906 21.921875 C 35.304688 23.257812 35.320312 24.59375 35.304688 25.929688 C 34.679688 25.917969 34.0625 25.953125 33.445312 26.023438 C 33.414062 24.085938 33.449219 22.167969 33.546875 20.265625 Z M 33.546875 20.265625 "/>
<path style=" stroke:none;fill-rule:evenodd;fill:rgb(8.627451%,71.764706%,63.137255%);fill-opacity:1;" d="M 17.53125 27.101562 C 17.886719 27.101562 18.246094 27.101562 18.601562 27.101562 C 18.601562 26.710938 18.601562 26.320312 18.601562 25.929688 C 18.59375 25.691406 18.691406 25.515625 18.898438 25.390625 C 19.355469 25.25 19.730469 25.363281 20.019531 25.734375 C 20.066406 26.15625 20.085938 26.578125 20.070312 27 C 21.898438 26.910156 22.972656 27.757812 23.289062 29.539062 C 23.261719 30.238281 22.902344 30.515625 22.21875 30.371094 C 22.101562 30.257812 21.988281 30.144531 21.875 30.03125 C 21.910156 29.363281 21.632812 28.890625 21.046875 28.613281 C 19.875 28.546875 18.703125 28.546875 17.53125 28.613281 C 17.253906 28.757812 17.039062 28.972656 16.894531 29.25 C 16.785156 29.859375 16.851562 30.445312 17.089844 31.007812 C 17.226562 31.132812 17.375 31.246094 17.53125 31.347656 C 18.804688 31.355469 20.074219 31.421875 21.335938 31.542969 C 22.335938 31.859375 22.972656 32.527344 23.242188 33.546875 C 23.453125 34.578125 23.257812 35.523438 22.65625 36.375 C 21.941406 37.085938 21.078125 37.378906 20.070312 37.257812 C 20.085938 37.679688 20.066406 38.101562 20.019531 38.523438 C 19.734375 39.03125 19.328125 39.144531 18.796875 38.867188 C 18.738281 38.792969 18.6875 38.710938 18.652344 38.625 C 18.605469 38.167969 18.585938 37.710938 18.601562 37.257812 C 16.972656 37.441406 15.914062 36.757812 15.429688 35.203125 C 15.171875 34.261719 15.515625 33.855469 16.453125 33.984375 C 16.605469 34.101562 16.71875 34.25 16.796875 34.421875 C 16.792969 35.050781 17.070312 35.488281 17.625 35.742188 C 18.734375 35.808594 19.839844 35.808594 20.945312 35.742188 C 21.351562 35.597656 21.628906 35.320312 21.777344 34.914062 C 22.054688 33.953125 21.746094 33.289062 20.851562 32.910156 C 19.644531 32.878906 18.441406 32.84375 17.234375 32.8125 C 16.375 32.472656 15.773438 31.871094 15.429688 31.007812 C 15.046875 29.558594 15.421875 28.371094 16.554688 27.441406 C 16.855469 27.257812 17.179688 27.144531 17.53125 27.101562 Z M 17.53125 27.101562 "/>
<path style=" stroke:none;fill-rule:evenodd;fill:rgb(4.705882%,71.372549%,62.352941%);fill-opacity:1;" d="M 35.304688 25.929688 C 37.1875 25.9375 38.910156 26.457031 40.476562 27.492188 C 41.796875 28.386719 42.839844 29.523438 43.601562 30.90625 C 44.863281 33.511719 45.007812 36.179688 44.042969 38.914062 C 42.917969 41.554688 41.015625 43.375 38.328125 44.382812 C 37.84375 44.496094 37.355469 44.59375 36.867188 44.679688 C 35.722656 44.933594 34.582031 44.933594 33.445312 44.679688 C 33.320312 44.699219 33.222656 44.667969 33.15625 44.578125 C 36.3125 43.847656 38.542969 41.992188 39.84375 39.015625 C 40.582031 37.207031 40.761719 35.351562 40.382812 33.445312 C 40.730469 32.875 40.601562 32.453125 39.992188 32.179688 C 38.773438 29.011719 36.523438 26.996094 33.25 26.125 C 33.316406 26.089844 33.382812 26.058594 33.445312 26.023438 C 34.0625 25.953125 34.679688 25.917969 35.304688 25.929688 Z M 35.304688 25.929688 "/>
<path style=" stroke:none;fill-rule:evenodd;fill:rgb(7.058824%,82.352941%,70.196078%);fill-opacity:1;" d="M 33.25 26.125 C 36.523438 26.996094 38.773438 29.011719 39.992188 32.179688 C 39.722656 32.15625 39.496094 32.234375 39.304688 32.421875 C 37.628906 34.117188 35.9375 35.792969 34.226562 37.453125 C 33.171875 36.445312 32.128906 35.417969 31.101562 34.375 C 30.320312 34.023438 29.910156 34.265625 29.882812 35.109375 C 31.164062 36.488281 32.484375 37.839844 33.835938 39.160156 C 34.097656 39.355469 34.359375 39.355469 34.617188 39.160156 C 36.527344 37.234375 38.449219 35.332031 40.382812 33.445312 C 40.761719 35.351562 40.582031 37.207031 39.84375 39.015625 C 38.542969 41.992188 36.3125 43.847656 33.15625 44.578125 C 32.609375 44.519531 32.089844 44.375 31.59375 44.140625 C 31.03125 43.863281 30.480469 43.585938 29.929688 43.3125 C 26.703125 40.890625 25.355469 37.667969 25.878906 33.640625 C 26.808594 29.636719 29.269531 27.128906 33.25 26.125 Z M 33.25 26.125 "/>
<path style=" stroke:none;fill-rule:evenodd;fill:rgb(56.470588%,86.666667%,83.529412%);fill-opacity:1;" d="M 18.601562 25.929688 C 18.601562 26.320312 18.601562 26.710938 18.601562 27.101562 C 18.246094 27.101562 17.886719 27.101562 17.53125 27.101562 C 17.835938 27.003906 18.160156 26.972656 18.507812 27 C 18.476562 26.625 18.507812 26.265625 18.601562 25.929688 Z M 18.601562 25.929688 "/>
<path style=" stroke:none;fill-rule:evenodd;fill:rgb(98.431373%,99.607843%,99.215686%);fill-opacity:1;" d="M 39.992188 32.179688 C 40.601562 32.453125 40.730469 32.875 40.382812 33.445312 C 38.449219 35.332031 36.527344 37.234375 34.617188 39.160156 C 34.359375 39.355469 34.097656 39.355469 33.835938 39.160156 C 32.484375 37.839844 31.164062 36.488281 29.882812 35.109375 C 29.910156 34.265625 30.320312 34.023438 31.101562 34.375 C 32.128906 35.417969 33.171875 36.445312 34.226562 37.453125 C 35.9375 35.792969 37.628906 34.117188 39.304688 32.421875 C 39.496094 32.234375 39.722656 32.15625 39.992188 32.179688 Z M 39.992188 32.179688 "/>
<use xlink:href="#surface11" mask="url(#mask2)"/>
<path style=" stroke:none;fill-rule:evenodd;fill:rgb(51.372549%,47.45098%,75.686275%);fill-opacity:1;" d="M 10.984375 36.960938 C 11.019531 36.960938 11.050781 36.960938 11.085938 36.960938 C 11.085938 39.078125 11.085938 41.195312 11.085938 43.3125 C 17.367188 43.3125 23.648438 43.3125 29.929688 43.3125 C 30.480469 43.585938 31.03125 43.863281 31.59375 44.140625 C 32.089844 44.375 32.609375 44.519531 33.15625 44.578125 C 33.222656 44.667969 33.320312 44.699219 33.445312 44.679688 C 33.625 46.160156 33.203125 47.429688 32.179688 48.484375 C 25.828125 48.503906 19.480469 48.484375 13.132812 48.4375 C 11.960938 48.109375 11.261719 47.34375 11.035156 46.140625 C 10.984375 43.082031 10.96875 40.023438 10.984375 36.960938 Z M 10.984375 36.960938 "/>
<path style=" stroke:none;fill-rule:evenodd;fill:rgb(42.745098%,38.039216%,70.980392%);fill-opacity:1;" d="M 33.445312 44.679688 C 34.582031 44.933594 35.722656 44.933594 36.867188 44.679688 C 36.789062 45.253906 36.738281 45.839844 36.71875 46.4375 C 36.441406 47.492188 35.773438 48.160156 34.71875 48.4375 C 33.871094 48.484375 33.023438 48.503906 32.179688 48.484375 C 33.203125 47.429688 33.625 46.160156 33.445312 44.679688 Z M 33.445312 44.679688 "/>
</g>
</svg>
