<?xml version="1.0" encoding="UTF-8"?>
<svg xmlns="http://www.w3.org/2000/svg" xmlns:xlink="http://www.w3.org/1999/xlink" width="50px" height="50px" viewBox="0 0 50 50" version="1.1">
<defs>
<filter id="alpha" filterUnits="objectBoundingBox" x="0%" y="0%" width="100%" height="100%">
  <feColorMatrix type="matrix" in="SourceGraphic" values="0 0 0 0 1 0 0 0 0 1 0 0 0 0 1 0 0 0 1 0"/>
</filter>
<mask id="mask0">
  <g filter="url(#alpha)">
<rect x="0" y="0" width="50" height="50" style="fill:rgb(0%,0%,0%);fill-opacity:0.988235;stroke:none;"/>
  </g>
</mask>
<clipPath id="clip1">
  <rect x="0" y="0" width="50" height="50"/>
</clipPath>
<g id="surface5" clip-path="url(#clip1)">
<path style=" stroke:none;fill-rule:evenodd;fill:rgb(91.764706%,73.333333%,41.568627%);fill-opacity:1;" d="M 24.65625 -0.046875 C 25.113281 -0.046875 25.570312 -0.046875 26.023438 -0.046875 C 26.449219 0.308594 26.9375 0.535156 27.492188 0.632812 C 27.242188 1.625 26.867188 2.570312 26.367188 3.46875 C 25.550781 4.816406 24.722656 6.152344 23.875 7.46875 C 23.734375 7.476562 23.605469 7.445312 23.484375 7.375 C 22.390625 5.804688 21.53125 4.109375 20.898438 2.296875 C 20.648438 1.578125 20.730469 0.910156 21.140625 0.292969 C 21.371094 0.226562 21.597656 0.226562 21.828125 0.292969 C 22.855469 0.832031 23.800781 0.71875 24.65625 -0.046875 Z M 24.65625 -0.046875 "/>
</g>
<mask id="mask1">
  <g filter="url(#alpha)">
<rect x="0" y="0" width="50" height="50" style="fill:rgb(0%,0%,0%);fill-opacity:0.996078;stroke:none;"/>
  </g>
</mask>
<clipPath id="clip2">
  <rect x="0" y="0" width="50" height="50"/>
</clipPath>
<g id="surface8" clip-path="url(#clip2)">
<path style=" stroke:none;fill-rule:evenodd;fill:rgb(90.980392%,68.235294%,30.196078%);fill-opacity:1;" d="M 29.34375 -0.046875 C 29.800781 -0.046875 30.257812 -0.046875 30.710938 -0.046875 C 31.570312 0.71875 32.515625 0.832031 33.546875 0.292969 C 33.996094 0.144531 34.304688 0.289062 34.472656 0.734375 C 34.648438 1.25 34.648438 1.773438 34.472656 2.296875 C 33.832031 4.164062 32.9375 5.890625 31.789062 7.46875 C 31.363281 7.453125 30.941406 7.472656 30.515625 7.519531 C 28.300781 7.984375 26.085938 7.96875 23.875 7.46875 C 24.722656 6.152344 25.550781 4.816406 26.367188 3.46875 C 26.867188 2.570312 27.242188 1.625 27.492188 0.632812 C 28.203125 0.652344 28.824219 0.421875 29.34375 -0.046875 Z M 29.34375 -0.046875 "/>
</g>
<mask id="mask2">
  <g filter="url(#alpha)">
<rect x="0" y="0" width="50" height="50" style="fill:rgb(0%,0%,0%);fill-opacity:0.960784;stroke:none;"/>
  </g>
</mask>
<clipPath id="clip3">
  <rect x="0" y="0" width="50" height="50"/>
</clipPath>
<g id="surface11" clip-path="url(#clip3)">
<path style=" stroke:none;fill-rule:evenodd;fill:rgb(100%,81.568627%,38.823529%);fill-opacity:1;" d="M 22.703125 7.46875 C 22.359375 7.796875 22.085938 8.1875 21.875 8.640625 C 21.785156 9.179688 21.832031 9.703125 22.023438 10.203125 C 19.84375 10.070312 17.859375 10.609375 16.0625 11.816406 C 15.660156 12.203125 15.300781 12.625 14.992188 13.085938 C 13.90625 13.339844 13.535156 12.929688 13.867188 11.867188 C 14.882812 10.46875 16.234375 9.542969 17.921875 9.082031 C 19.078125 8.796875 20.25 8.601562 21.4375 8.496094 C 20.910156 7.875 20.261719 7.453125 19.484375 7.226562 C 18.246094 7.152344 17.011719 7.089844 15.773438 7.03125 C 14.679688 6.851562 13.6875 6.445312 12.792969 5.8125 C 12.453125 5.09375 12.664062 4.640625 13.429688 4.445312 C 14.3125 4.949219 15.257812 5.292969 16.257812 5.46875 C 16.96875 5.546875 17.667969 5.53125 18.359375 5.421875 C 20.117188 5.460938 21.566406 6.144531 22.703125 7.46875 Z M 22.703125 7.46875 "/>
</g>
<mask id="mask3">
  <g filter="url(#alpha)">
<rect x="0" y="0" width="50" height="50" style="fill:rgb(0%,0%,0%);fill-opacity:0.996078;stroke:none;"/>
  </g>
</mask>
<clipPath id="clip4">
  <rect x="0" y="0" width="50" height="50"/>
</clipPath>
<g id="surface14" clip-path="url(#clip4)">
<path style=" stroke:none;fill-rule:evenodd;fill:rgb(99.607843%,87.45098%,48.627451%);fill-opacity:1;" d="M 23.484375 7.375 C 23.605469 7.445312 23.734375 7.476562 23.875 7.46875 C 26.085938 7.96875 28.300781 7.984375 30.515625 7.519531 C 30.941406 7.472656 31.363281 7.453125 31.789062 7.46875 C 32.589844 7.769531 33.011719 8.355469 33.054688 9.226562 C 33.035156 9.535156 32.972656 9.828125 32.859375 10.109375 C 32.574219 10.539062 32.183594 10.847656 31.6875 11.035156 C 30.082031 11.390625 28.453125 11.570312 26.804688 11.570312 C 25.445312 11.53125 24.109375 11.316406 22.804688 10.9375 C 22.558594 10.773438 22.332031 10.59375 22.117188 10.398438 C 22.085938 10.335938 22.054688 10.269531 22.023438 10.203125 C 21.832031 9.703125 21.785156 9.179688 21.875 8.640625 C 22.085938 8.1875 22.359375 7.796875 22.703125 7.46875 C 22.964844 7.4375 23.226562 7.40625 23.484375 7.375 Z M 23.484375 7.375 "/>
</g>
<mask id="mask4">
  <g filter="url(#alpha)">
<rect x="0" y="0" width="50" height="50" style="fill:rgb(0%,0%,0%);fill-opacity:0.996078;stroke:none;"/>
  </g>
</mask>
<clipPath id="clip5">
  <rect x="0" y="0" width="50" height="50"/>
</clipPath>
<g id="surface17" clip-path="url(#clip5)">
<path style=" stroke:none;fill-rule:evenodd;fill:rgb(90.980392%,68.235294%,30.196078%);fill-opacity:1;" d="M 32.859375 10.109375 C 36.492188 12.714844 39.503906 15.902344 41.894531 19.679688 C 44.363281 23.699219 45.179688 28.027344 44.335938 32.664062 C 43.972656 34.207031 43.371094 35.636719 42.53125 36.960938 C 42.167969 37.160156 41.808594 37.355469 41.453125 37.546875 C 38.15625 38.953125 34.867188 40.386719 31.59375 41.84375 C 31.59375 41.585938 31.59375 41.324219 31.59375 41.0625 C 31.671875 40.660156 31.722656 40.234375 31.738281 39.796875 C 34.609375 37.535156 36.238281 34.574219 36.621094 30.90625 C 36.914062 27.847656 36.425781 24.917969 35.15625 22.117188 C 33.976562 19.507812 32.414062 17.164062 30.46875 15.085938 C 29.289062 13.859375 28.066406 12.6875 26.804688 11.570312 C 28.453125 11.570312 30.082031 11.390625 31.6875 11.035156 C 32.183594 10.847656 32.574219 10.539062 32.859375 10.109375 Z M 32.859375 10.109375 "/>
</g>
<mask id="mask5">
  <g filter="url(#alpha)">
<rect x="0" y="0" width="50" height="50" style="fill:rgb(0%,0%,0%);fill-opacity:0.996078;stroke:none;"/>
  </g>
</mask>
<clipPath id="clip6">
  <rect x="0" y="0" width="50" height="50"/>
</clipPath>
<g id="surface20" clip-path="url(#clip6)">
<path style=" stroke:none;fill-rule:evenodd;fill:rgb(25.098039%,43.529412%,57.647059%);fill-opacity:1;" d="M 7.078125 31.101562 C 7.078125 35.238281 7.078125 39.371094 7.078125 43.507812 C 7.078125 44.449219 7.078125 45.394531 7.078125 46.335938 C 7.117188 46.996094 7.066406 47.648438 6.933594 48.289062 C 6.761719 48.582031 6.515625 48.792969 6.203125 48.925781 C 4.671875 48.992188 3.140625 48.992188 1.609375 48.925781 C 1.027344 48.683594 0.71875 48.246094 0.683594 47.609375 C 0.617188 41.714844 0.617188 35.824219 0.683594 29.929688 C 0.734375 29.199219 1.109375 28.726562 1.804688 28.515625 C 3.3125 28.421875 4.808594 28.457031 6.296875 28.613281 C 6.644531 28.796875 6.890625 29.074219 7.03125 29.445312 C 7.078125 29.996094 7.097656 30.550781 7.078125 31.101562 Z M 7.078125 31.101562 "/>
</g>
</defs>
<g id="surface1">
<use xlink:href="#surface5" mask="url(#mask0)"/>
<use xlink:href="#surface8" mask="url(#mask1)"/>
<use xlink:href="#surface11" mask="url(#mask2)"/>
<use xlink:href="#surface14" mask="url(#mask3)"/>
<use xlink:href="#surface17" mask="url(#mask4)"/>
<path style=" stroke:none;fill-rule:evenodd;fill:rgb(91.764706%,73.72549%,41.960784%);fill-opacity:1;" d="M 22.117188 10.398438 C 22.332031 10.59375 22.558594 10.773438 22.804688 10.9375 C 24.109375 11.316406 25.445312 11.53125 26.804688 11.570312 C 28.066406 12.6875 29.289062 13.859375 30.46875 15.085938 C 32.414062 17.164062 33.976562 19.507812 35.15625 22.117188 C 36.425781 24.917969 36.914062 27.847656 36.621094 30.90625 C 36.238281 34.574219 34.609375 37.535156 31.738281 39.796875 C 31.722656 40.234375 31.671875 40.660156 31.59375 41.0625 C 31.59375 40.835938 31.59375 40.609375 31.59375 40.382812 C 31.589844 37.984375 30.417969 36.535156 28.078125 36.035156 C 24.910156 35.71875 21.75 35.328125 18.601562 34.863281 C 17.074219 34.246094 15.609375 33.496094 14.210938 32.617188 C 13.082031 32.140625 11.941406 31.730469 10.789062 31.398438 C 10.378906 27.523438 11.109375 23.875 12.988281 20.460938 C 15.269531 16.421875 18.3125 13.070312 22.117188 10.398438 Z M 22.117188 10.398438 "/>
<path style=" stroke:none;fill-rule:evenodd;fill:rgb(99.607843%,99.215686%,98.431373%);fill-opacity:1;" d="M 27.390625 14.796875 C 27.800781 14.765625 28.109375 14.925781 28.320312 15.28125 C 28.367188 15.738281 28.386719 16.195312 28.367188 16.648438 C 29.347656 16.789062 30.210938 17.179688 30.957031 17.820312 C 31.230469 18.476562 31.019531 18.867188 30.320312 18.992188 C 29.933594 18.882812 29.574219 18.703125 29.25 18.457031 C 28.960938 18.34375 28.667969 18.265625 28.367188 18.210938 C 28.351562 19.808594 28.367188 21.402344 28.417969 23 C 30.164062 23.347656 31.335938 24.359375 31.933594 26.023438 C 32.253906 28.054688 31.589844 29.667969 29.929688 30.859375 C 29.429688 31.109375 28.910156 31.285156 28.367188 31.398438 C 28.386719 31.886719 28.367188 32.375 28.320312 32.859375 C 27.839844 33.632812 27.351562 33.632812 26.855469 32.859375 C 26.808594 32.375 26.789062 31.886719 26.804688 31.398438 C 25.613281 31.4375 24.539062 31.097656 23.585938 30.371094 C 23.394531 30.054688 23.347656 29.710938 23.4375 29.34375 C 23.605469 29.15625 23.816406 29.058594 24.070312 29.054688 C 24.707031 29.351562 25.359375 29.628906 26.023438 29.882812 C 26.285156 29.929688 26.542969 29.949219 26.804688 29.929688 C 26.824219 27.945312 26.804688 25.960938 26.757812 23.976562 C 25.945312 23.617188 25.199219 23.164062 24.511719 22.609375 C 23.984375 21.953125 23.738281 21.203125 23.78125 20.359375 C 23.847656 18.363281 24.859375 17.160156 26.804688 16.75 C 26.789062 16.292969 26.808594 15.835938 26.855469 15.382812 C 26.988281 15.132812 27.167969 14.9375 27.390625 14.796875 Z M 27.390625 14.796875 "/>
<path style=" stroke:none;fill-rule:evenodd;fill:rgb(91.764706%,73.72549%,42.352941%);fill-opacity:1;" d="M 26.515625 18.3125 C 26.609375 18.3125 26.710938 18.3125 26.804688 18.3125 C 26.824219 19.644531 26.804688 20.980469 26.757812 22.3125 C 25.207031 21.601562 24.847656 20.496094 25.683594 18.992188 C 25.941406 18.730469 26.21875 18.5 26.515625 18.3125 Z M 26.515625 18.3125 "/>
<path style=" stroke:none;fill-rule:evenodd;fill:rgb(91.764706%,73.72549%,42.352941%);fill-opacity:1;" d="M 28.367188 24.65625 C 30.539062 25.359375 31.078125 26.726562 29.980469 28.757812 C 29.597656 29.292969 29.089844 29.648438 28.46875 29.835938 C 28.367188 28.109375 28.335938 26.382812 28.367188 24.65625 Z M 28.367188 24.65625 "/>
<use xlink:href="#surface20" mask="url(#mask5)"/>
<path style=" stroke:none;fill-rule:evenodd;fill:rgb(99.607843%,86.27451%,80.392157%);fill-opacity:1;" d="M 7.078125 31.101562 C 8.324219 31.117188 9.5625 31.214844 10.789062 31.398438 C 11.941406 31.730469 13.082031 32.140625 14.210938 32.617188 C 15.609375 33.496094 17.074219 34.246094 18.601562 34.863281 C 21.75 35.328125 24.910156 35.71875 28.078125 36.035156 C 30.417969 36.535156 31.589844 37.984375 31.59375 40.382812 C 28.628906 40.363281 25.667969 40.382812 22.703125 40.429688 C 22.160156 40.933594 22.195312 41.390625 22.804688 41.796875 C 25.730469 41.84375 28.660156 41.863281 31.59375 41.84375 C 34.867188 40.386719 38.15625 38.953125 41.453125 37.546875 C 41.988281 38.019531 42.25 38.621094 42.234375 39.355469 C 42.277344 40.074219 42.050781 40.695312 41.554688 41.210938 C 38.882812 42.902344 36.214844 44.597656 33.546875 46.289062 C 32.683594 46.730469 31.773438 47.023438 30.8125 47.167969 C 26.21875 47.261719 21.628906 47.230469 17.039062 47.070312 C 13.691406 45.964844 10.371094 44.777344 7.078125 43.507812 C 7.078125 39.371094 7.078125 35.238281 7.078125 31.101562 Z M 7.078125 31.101562 "/>
<path style=" stroke:none;fill-rule:evenodd;fill:rgb(100%,79.607843%,74.509804%);fill-opacity:1;" d="M 31.101562 49.953125 C 26.480469 49.953125 21.859375 49.953125 17.234375 49.953125 C 16.625 49.789062 16.007812 49.609375 15.382812 49.414062 C 12.628906 48.339844 9.863281 47.316406 7.078125 46.335938 C 7.078125 45.394531 7.078125 44.449219 7.078125 43.507812 C 10.371094 44.777344 13.691406 45.964844 17.039062 47.070312 C 21.628906 47.230469 26.21875 47.261719 30.8125 47.167969 C 31.773438 47.023438 32.683594 46.730469 33.546875 46.289062 C 36.214844 44.597656 38.882812 42.902344 41.554688 41.210938 C 42.050781 40.695312 42.277344 40.074219 42.234375 39.355469 C 42.25 38.621094 41.988281 38.019531 41.453125 37.546875 C 41.808594 37.355469 42.167969 37.160156 42.53125 36.960938 C 43.636719 36.5 44.746094 36.027344 45.851562 35.546875 C 48.261719 35.15625 49.351562 36.183594 49.121094 38.625 C 48.859375 39.339844 48.386719 39.878906 47.703125 40.234375 C 43.164062 43.074219 38.640625 45.9375 34.132812 48.828125 C 33.171875 49.371094 32.164062 49.746094 31.101562 49.953125 Z M 31.101562 49.953125 "/>
<path style=" stroke:none;fill-rule:evenodd;fill:rgb(100%,79.607843%,74.509804%);fill-opacity:1;" d="M 31.59375 40.382812 C 31.59375 40.609375 31.59375 40.835938 31.59375 41.0625 C 31.59375 41.324219 31.59375 41.585938 31.59375 41.84375 C 28.660156 41.863281 25.730469 41.84375 22.804688 41.796875 C 22.195312 41.390625 22.160156 40.933594 22.703125 40.429688 C 25.667969 40.382812 28.628906 40.363281 31.59375 40.382812 Z M 31.59375 40.382812 "/>
</g>
</svg>
