<?xml version="1.0" encoding="UTF-8"?>
<svg xmlns="http://www.w3.org/2000/svg" xmlns:xlink="http://www.w3.org/1999/xlink" width="160px" height="40px" viewBox="0 0 160 40" version="1.1">
<g id="surface1">
<path style=" stroke:none;fill-rule:evenodd;fill:rgb(28.235294%,69.411765%,93.333333%);fill-opacity:1;" d="M 50.632812 16.320312 C 50.632812 16.472656 50.699219 16.535156 50.78125 16.460938 C 50.859375 16.382812 50.859375 16.257812 50.78125 16.179688 C 50.699219 16.101562 50.632812 16.164062 50.632812 16.320312 M 53.546875 16.308594 C 53.28125 16.414062 53.304688 16.484375 53.636719 16.597656 C 53.882812 16.683594 54.078125 16.710938 54.078125 16.660156 C 54.078125 16.609375 53.929688 16.546875 53.746094 16.519531 C 53.515625 16.480469 53.53125 16.429688 53.789062 16.351562 C 54 16.289062 54.109375 16.21875 54.035156 16.203125 C 53.957031 16.183594 53.738281 16.230469 53.546875 16.308594 M 51.761719 16.941406 C 52.175781 17.039062 52.832031 17.117188 53.21875 17.113281 C 53.800781 17.109375 53.765625 17.09375 53.003906 17.039062 C 52.503906 17 51.847656 16.921875 51.550781 16.863281 C 51.253906 16.808594 51.347656 16.839844 51.761719 16.941406 M 55.816406 17.59375 C 55.816406 17.691406 56 17.722656 56.386719 17.699219 C 56.703125 17.679688 56.960938 17.648438 56.960938 17.632812 C 56.960938 17.617188 56.703125 17.570312 56.386719 17.527344 C 55.941406 17.46875 55.816406 17.484375 55.816406 17.59375 M 50.632812 17.839844 C 50.632812 17.992188 50.699219 18.058594 50.78125 17.980469 C 50.859375 17.902344 50.859375 17.777344 50.78125 17.699219 C 50.699219 17.621094 50.632812 17.6875 50.632812 17.839844 M 39.964844 17.945312 C 40.105469 17.980469 41.289062 17.996094 42.589844 17.984375 L 44.960938 17.957031 L 42.335938 17.917969 C 40.890625 17.898438 39.824219 17.910156 39.964844 17.945312 M 106.683594 17.957031 C 106.585938 18.019531 106.5625 18.136719 106.632812 18.214844 C 106.710938 18.304688 106.820312 18.261719 106.921875 18.101562 C 107.097656 17.828125 106.984375 17.757812 106.683594 17.957031 M 29.367188 17.980469 C 30.121094 17.996094 31.273438 17.996094 31.929688 17.976562 C 32.582031 17.960938 31.96875 17.945312 30.558594 17.949219 C 29.152344 17.949219 28.617188 17.960938 29.367188 17.980469 M 59.304688 18.113281 C 59.792969 18.429688 59.910156 19.367188 59.523438 19.875 C 59.003906 20.566406 58.085938 20.910156 56.683594 20.945312 C 55.777344 20.96875 55.460938 20.921875 54.453125 20.628906 C 52.328125 20.007812 49.601562 19.40625 49.601562 19.558594 C 49.601562 19.582031 50.160156 19.753906 50.847656 19.941406 C 55.457031 21.191406 54.597656 22.464844 48.746094 23.050781 C 46.089844 23.3125 40.71875 23.316406 37.921875 23.058594 C 34.324219 22.722656 31.253906 22.097656 29.210938 21.28125 C 28.15625 20.863281 28.324219 21.175781 29.457031 21.742188 C 31.425781 22.726562 35.230469 23.53125 39.4375 23.851562 C 41.230469 23.988281 42.265625 24.011719 45.234375 23.988281 C 48.734375 23.960938 48.9375 23.949219 51.546875 23.625 C 55.769531 23.101562 58.882812 22.214844 60.347656 21.121094 C 61.460938 20.289062 60.878906 18.25 59.460938 18.03125 C 59.210938 17.992188 59.160156 18.019531 59.304688 18.113281 M 64.238281 18.058594 C 64.8125 18.074219 65.75 18.074219 66.320312 18.058594 C 66.890625 18.039062 66.425781 18.027344 65.28125 18.027344 C 64.136719 18.027344 63.667969 18.039062 64.238281 18.058594 M 94.523438 18.113281 C 94.429688 18.175781 94.414062 18.3125 94.492188 18.414062 C 94.597656 18.550781 94.644531 18.53125 94.675781 18.332031 L 94.71875 18.066406 L 96.640625 18.09375 C 97.695312 18.109375 98.5625 18.09375 98.5625 18.058594 C 98.558594 18.027344 97.691406 18 96.628906 18 C 95.253906 18 94.648438 18.03125 94.523438 18.113281 M 103.925781 18.054688 C 104.320312 18.074219 104.898438 18.074219 105.203125 18.054688 C 105.507812 18.035156 105.183594 18.019531 104.480469 18.019531 C 103.777344 18.019531 103.527344 18.039062 103.925781 18.054688 M 115.910156 19.421875 L 115.984375 20.839844 L 116.078125 19.464844 L 116.175781 18.089844 L 118.558594 18.027344 L 117.199219 18.011719 L 115.839844 18 L 115.910156 19.421875 M 71.605469 18.457031 C 72 18.476562 72.578125 18.476562 72.882812 18.453125 C 73.191406 18.433594 72.863281 18.417969 72.160156 18.421875 C 71.457031 18.421875 71.207031 18.4375 71.605469 18.457031 M 75.5625 18.621094 C 75.601562 18.808594 75.625 18.8125 75.746094 18.660156 C 75.898438 18.460938 77.257812 18.402344 77.546875 18.578125 C 77.644531 18.640625 77.71875 18.625 77.734375 18.539062 C 77.753906 18.433594 77.503906 18.398438 76.640625 18.398438 C 75.621094 18.398438 75.523438 18.417969 75.5625 18.621094 M 79.660156 18.445312 C 80.175781 18.46875 80.667969 18.542969 80.746094 18.605469 C 80.839844 18.679688 80.875 18.671875 80.84375 18.582031 C 80.808594 18.484375 80.484375 18.433594 79.757812 18.421875 C 78.769531 18.402344 78.761719 18.402344 79.660156 18.445312 M 81.726562 18.511719 C 81.625 18.578125 81.613281 18.679688 81.703125 18.738281 C 81.796875 18.792969 81.882812 18.757812 81.894531 18.660156 C 81.914062 18.515625 82.105469 18.480469 82.851562 18.480469 C 83.367188 18.480469 83.859375 18.515625 83.949219 18.5625 C 84.039062 18.605469 84.074219 18.597656 84.03125 18.542969 C 83.910156 18.386719 81.957031 18.363281 81.726562 18.511719 M 86.640625 18.457031 C 87.035156 18.476562 87.683594 18.476562 88.078125 18.457031 C 88.476562 18.4375 88.152344 18.421875 87.359375 18.421875 C 86.566406 18.421875 86.242188 18.4375 86.640625 18.457031 M 100.996094 18.464844 C 100.90625 18.5 101.257812 18.515625 101.777344 18.496094 C 102.296875 18.476562 102.71875 18.449219 102.71875 18.429688 C 102.71875 18.371094 101.152344 18.402344 100.996094 18.464844 M 106.71875 18.5 C 106.464844 18.679688 106.394531 20.707031 106.640625 20.667969 C 106.773438 20.648438 106.878906 20.148438 106.878906 19.558594 L 106.878906 18.488281 L 108.078125 18.457031 L 109.28125 18.425781 L 108.070312 18.414062 C 107.347656 18.40625 106.804688 18.441406 106.71875 18.5 M 111.925781 18.457031 C 112.320312 18.476562 112.898438 18.476562 113.203125 18.453125 C 113.507812 18.433594 113.183594 18.417969 112.480469 18.421875 C 111.777344 18.421875 111.527344 18.4375 111.925781 18.457031 M 121.203125 18.457031 C 121.601562 18.476562 122.179688 18.476562 122.484375 18.453125 C 122.789062 18.433594 122.464844 18.417969 121.761719 18.421875 C 121.054688 18.421875 120.804688 18.4375 121.203125 18.457031 M 108.875 18.878906 C 108.875 19.035156 108.941406 19.097656 109.019531 19.019531 C 109.101562 18.941406 109.101562 18.816406 109.019531 18.738281 C 108.941406 18.664062 108.875 18.726562 108.875 18.878906 M 69.484375 18.980469 C 69.441406 19.183594 69.527344 19.199219 70.71875 19.199219 C 71.84375 19.199219 71.996094 19.179688 71.960938 19.019531 C 71.933594 18.882812 71.890625 18.875 71.78125 18.980469 C 71.546875 19.199219 69.84375 19.167969 69.664062 18.941406 C 69.546875 18.785156 69.519531 18.792969 69.484375 18.980469 M 90.042969 19.800781 C 90.042969 20.371094 90.097656 20.59375 90.15625 20.296875 C 90.21875 19.996094 90.21875 19.53125 90.15625 19.257812 C 90.09375 18.984375 90.042969 19.226562 90.042969 19.800781 M 119.082031 18.980469 C 119.042969 19.183594 119.125 19.199219 120.320312 19.199219 C 121.445312 19.199219 121.59375 19.179688 121.5625 19.019531 C 121.535156 18.882812 121.488281 18.875 121.378906 18.980469 C 121.148438 19.199219 119.441406 19.167969 119.265625 18.941406 C 119.148438 18.785156 119.121094 18.792969 119.082031 18.980469 M 26.855469 19.058594 C 27.59375 19.269531 27.761719 19.277344 30.214844 19.265625 L 32.800781 19.246094 L 30.246094 19.21875 C 28.167969 19.199219 27.539062 19.160156 26.886719 19.015625 L 26.078125 18.839844 L 26.855469 19.058594 M 75.003906 19.839844 C 75.003906 20.390625 75.054688 20.613281 75.117188 20.339844 C 75.179688 20.066406 75.179688 19.613281 75.117188 19.339844 C 75.054688 19.066406 75.003906 19.289062 75.003906 19.839844 M 77.828125 19.039062 C 77.828125 19.148438 77.9375 19.328125 78.078125 19.441406 C 78.28125 19.597656 78.335938 19.605469 78.332031 19.480469 C 78.328125 19.390625 78.214844 19.210938 78.078125 19.078125 C 77.859375 18.863281 77.835938 18.859375 77.828125 19.039062 M 84.515625 19.019531 C 84.484375 19.179688 84.636719 19.199219 85.761719 19.199219 C 86.773438 19.199219 87.035156 19.171875 87.015625 19.058594 C 87 18.976562 86.925781 18.960938 86.828125 19.019531 C 86.574219 19.175781 84.871094 19.144531 84.699219 18.980469 C 84.589844 18.875 84.546875 18.882812 84.515625 19.019531 M 94.152344 19.121094 C 94.152344 19.273438 94.21875 19.335938 94.300781 19.261719 C 94.382812 19.183594 94.382812 19.058594 94.300781 18.980469 C 94.21875 18.902344 94.152344 18.964844 94.152344 19.121094 M 99.957031 19.640625 C 99.957031 20.078125 100.011719 20.25 100.074219 20.015625 C 100.140625 19.785156 100.140625 19.425781 100.074219 19.21875 C 100.007812 19.007812 99.957031 19.199219 99.957031 19.640625 M 124.601562 19.839844 C 124.601562 20.390625 124.65625 20.613281 124.71875 20.339844 C 124.78125 20.066406 124.78125 19.613281 124.71875 19.339844 C 124.65625 19.066406 124.601562 19.289062 124.601562 19.839844 M 87.707031 19.09375 C 87.691406 19.1875 87.5 19.285156 87.28125 19.308594 C 86.964844 19.339844 86.96875 19.347656 87.289062 19.355469 C 87.777344 19.359375 88.128906 19.167969 87.894531 19.023438 C 87.804688 18.964844 87.71875 18.996094 87.707031 19.09375 M 80.980469 19.175781 C 80.996094 19.253906 81.128906 19.390625 81.28125 19.480469 C 81.511719 19.613281 81.558594 19.601562 81.578125 19.382812 C 81.589844 19.246094 81.457031 19.105469 81.28125 19.078125 C 81.105469 19.054688 80.96875 19.09375 80.980469 19.175781 M 96.714844 19.28125 C 96.714844 19.433594 96.78125 19.496094 96.859375 19.421875 C 96.941406 19.34375 96.941406 19.21875 96.859375 19.140625 C 96.78125 19.0625 96.714844 19.125 96.714844 19.28125 M 42.878906 19.199219 L 40.160156 19.25 L 42.78125 19.265625 C 44.25 19.273438 45.488281 19.246094 45.601562 19.199219 C 45.707031 19.15625 45.753906 19.125 45.699219 19.136719 C 45.644531 19.144531 44.375 19.171875 42.878906 19.199219 M 110.324219 19.175781 C 110.722656 19.195312 111.296875 19.195312 111.605469 19.175781 C 111.910156 19.15625 111.585938 19.140625 110.878906 19.140625 C 110.175781 19.140625 109.925781 19.15625 110.324219 19.175781 M 102.179688 19.640625 C 102.179688 19.902344 102.242188 20.003906 102.3125 19.859375 C 102.382812 19.714844 102.382812 19.5 102.308594 19.378906 C 102.234375 19.257812 102.175781 19.375 102.179688 19.640625 M 54.867188 19.476562 C 53.605469 19.792969 53.96875 20.253906 55.597656 20.40625 C 57.429688 20.582031 59.285156 20.117188 58.589844 19.660156 C 57.96875 19.253906 56.125 19.160156 54.867188 19.476562 M 98.953125 19.601562 C 98.953125 19.753906 99.019531 19.816406 99.101562 19.738281 C 99.179688 19.664062 99.179688 19.535156 99.101562 19.460938 C 99.019531 19.382812 98.953125 19.445312 98.953125 19.601562 M 96.074219 19.679688 C 96.074219 19.835938 96.140625 19.898438 96.21875 19.820312 C 96.300781 19.742188 96.300781 19.617188 96.21875 19.539062 C 96.140625 19.464844 96.074219 19.527344 96.074219 19.679688 M 108.878906 19.800781 C 108.882812 19.976562 108.949219 20.039062 109.027344 19.9375 C 109.101562 19.839844 109.101562 19.695312 109.019531 19.617188 C 108.941406 19.542969 108.878906 19.625 108.878906 19.800781 M 71.808594 19.710938 C 71.496094 19.914062 71.828125 20.347656 72.320312 20.378906 C 72.710938 20.40625 72.71875 20.398438 72.363281 20.335938 C 72.074219 20.285156 71.96875 20.148438 72.050781 19.929688 C 72.179688 19.589844 72.105469 19.519531 71.808594 19.710938 M 87.765625 19.921875 C 87.765625 20.117188 87.828125 20.199219 87.90625 20.101562 C 87.980469 20 87.980469 19.839844 87.90625 19.738281 C 87.828125 19.640625 87.765625 19.722656 87.765625 19.921875 M 121.40625 19.710938 C 121.09375 19.914062 121.425781 20.347656 121.921875 20.378906 C 122.3125 20.40625 122.320312 20.398438 121.960938 20.335938 C 121.671875 20.285156 121.566406 20.148438 121.652344 19.929688 C 121.78125 19.589844 121.703125 19.519531 121.40625 19.710938 M 86.839844 20.035156 C 86.867188 20.238281 87.046875 20.359375 87.359375 20.378906 C 87.6875 20.402344 87.722656 20.390625 87.464844 20.34375 C 87.261719 20.308594 87.027344 20.152344 86.945312 20 C 86.804688 19.730469 86.800781 19.734375 86.839844 20.035156 M 99.273438 20.398438 C 99.273438 20.554688 99.339844 20.617188 99.421875 20.539062 C 99.5 20.464844 99.5 20.335938 99.421875 20.261719 C 99.339844 20.183594 99.273438 20.246094 99.273438 20.398438 M 95.804688 20.433594 C 95.707031 20.5 95.695312 20.617188 95.777344 20.695312 C 95.875 20.792969 95.9375 20.769531 95.960938 20.625 C 95.988281 20.46875 96.199219 20.402344 96.71875 20.375 L 97.441406 20.339844 L 96.710938 20.332031 C 96.308594 20.324219 95.898438 20.371094 95.804688 20.433594 M 80.0625 22.78125 L 80.160156 23.160156 L 83.039062 23.160156 L 83.136719 22.78125 L 83.234375 22.398438 L 79.964844 22.398438 L 80.0625 22.78125 M 90.300781 22.78125 L 90.398438 23.160156 L 93.601562 23.160156 L 93.699219 22.78125 L 93.796875 22.398438 L 90.203125 22.398438 L 90.300781 22.78125 M 100.863281 22.78125 L 100.960938 23.160156 L 103.839844 23.160156 L 103.9375 22.78125 L 104.035156 22.398438 L 100.765625 22.398438 L 100.863281 22.78125 "/>
<path style=" stroke:none;fill-rule:evenodd;fill:rgb(6.666667%,30.588235%,15.686275%);fill-opacity:1;" d="M 34.976562 16.191406 C 34.140625 16.375 34.074219 16.433594 33.976562 17.09375 C 33.894531 17.625 33.742188 17.824219 33.355469 17.898438 C 33.039062 17.960938 31.828125 18 30.234375 18 C 27.925781 18 27.550781 18.019531 26.9375 18.183594 C 26.011719 18.429688 26.03125 18.804688 26.980469 19.027344 C 27.605469 19.171875 28.097656 19.199219 30.109375 19.199219 C 33.558594 19.199219 33.917969 19.28125 33.925781 20.066406 C 33.929688 20.746094 34.320312 21.019531 35.5625 21.191406 C 36.246094 21.289062 36.5625 21.292969 37.355469 21.207031 C 38.667969 21.074219 39.039062 20.824219 39.039062 20.082031 C 39.039062 19.273438 39.371094 19.199219 42.9375 19.199219 C 45.074219 19.199219 45.503906 19.175781 46.066406 19.023438 C 46.957031 18.785156 46.914062 18.394531 45.980469 18.175781 C 45.347656 18.023438 44.867188 18 42.667969 18 C 39.339844 18 39.039062 17.929688 39.039062 17.128906 C 39.039062 16.476562 38.496094 16.125 37.371094 16.050781 C 36.199219 15.972656 35.925781 15.988281 34.976562 16.191406 M 50.324219 16.746094 C 50.121094 16.855469 49.644531 16.972656 49.265625 17 L 48.570312 17.054688 L 49.320312 17.148438 C 49.730469 17.199219 50.230469 17.324219 50.433594 17.425781 L 50.800781 17.609375 L 51 17.410156 C 51.109375 17.300781 51.5 17.1875 51.867188 17.15625 L 52.535156 17.105469 L 51.84375 16.984375 C 51.464844 16.917969 51.050781 16.792969 50.921875 16.703125 C 50.699219 16.554688 50.664062 16.558594 50.324219 16.746094 M 55.15625 17.503906 C 54.898438 17.605469 54.914062 17.667969 55.214844 17.738281 C 55.53125 17.8125 55.664062 17.804688 55.8125 17.710938 C 55.914062 17.640625 55.890625 17.535156 55.753906 17.476562 C 55.550781 17.382812 55.441406 17.390625 55.15625 17.503906 M 106.878906 18.125 C 106.878906 18.308594 106.992188 18.328125 107.921875 18.304688 C 108.742188 18.285156 108.96875 18.242188 108.996094 18.101562 C 109.027344 17.945312 108.871094 17.921875 107.957031 17.921875 C 107.015625 17.921875 106.878906 17.945312 106.878906 18.125 M 63.359375 19.441406 L 63.359375 20.800781 L 65.246094 20.800781 C 66.621094 20.800781 67.332031 20.757812 67.882812 20.648438 C 68.582031 20.507812 68.648438 20.425781 68.75 19.601562 C 68.917969 18.210938 68.628906 18.078125 65.417969 18.078125 L 63.359375 18.078125 L 63.359375 19.441406 M 94.714844 18.175781 C 94.710938 18.234375 94.496094 18.765625 94.238281 19.359375 C 93.59375 20.851562 93.578125 20.800781 94.699219 20.800781 C 95.484375 20.800781 95.652344 20.765625 95.738281 20.578125 C 95.8125 20.421875 96.042969 20.351562 96.558594 20.335938 C 97.171875 20.3125 97.28125 20.34375 97.28125 20.554688 C 97.28125 20.78125 97.367188 20.800781 98.359375 20.800781 L 99.441406 20.800781 L 99.292969 20.460938 C 99.210938 20.273438 98.976562 19.671875 98.773438 19.121094 L 98.398438 18.121094 L 96.558594 18.097656 C 95.21875 18.078125 94.71875 18.101562 94.714844 18.175781 M 103.359375 18.304688 C 103.359375 18.511719 103.277344 18.527344 102.292969 18.496094 C 100.445312 18.441406 100.160156 18.59375 100.160156 19.640625 C 100.160156 20.359375 100.265625 20.574219 100.664062 20.675781 C 101.257812 20.824219 102.4375 20.839844 102.976562 20.703125 C 103.273438 20.628906 103.359375 20.628906 103.359375 20.703125 C 103.359375 20.761719 103.820312 20.800781 104.480469 20.800781 L 105.601562 20.800781 L 105.601562 18.078125 L 104.480469 18.078125 C 103.46875 18.078125 103.359375 18.101562 103.359375 18.304688 M 116.160156 19.441406 L 116.160156 20.800781 L 118.398438 20.800781 L 118.398438 18.078125 L 116.160156 18.078125 L 116.160156 19.441406 M 70.289062 18.625 C 70 18.707031 69.761719 18.851562 69.761719 18.945312 C 69.761719 19.085938 69.949219 19.121094 70.71875 19.121094 C 71.359375 19.121094 71.679688 19.078125 71.679688 19 C 71.679688 18.933594 71.894531 18.878906 72.160156 18.878906 C 72.460938 18.878906 72.640625 18.957031 72.640625 19.082031 C 72.640625 19.238281 72.378906 19.308594 71.390625 19.40625 C 70.558594 19.488281 70.007812 19.609375 69.75 19.765625 C 69.320312 20.023438 69.507812 20.507812 70.105469 20.6875 C 70.5625 20.824219 71.734375 20.835938 72.257812 20.703125 C 72.554688 20.628906 72.640625 20.628906 72.640625 20.703125 C 72.640625 20.761719 73.101562 20.800781 73.761719 20.800781 L 74.878906 20.800781 L 74.878906 19.800781 C 74.878906 18.90625 74.8125 18.78125 74.238281 18.640625 C 73.386719 18.425781 71.039062 18.417969 70.289062 18.625 M 75.84375 18.621094 C 75.84375 18.695312 76.058594 19.191406 76.324219 19.71875 C 76.585938 20.242188 76.800781 20.703125 76.800781 20.738281 C 76.800781 20.773438 77.359375 20.800781 78.042969 20.800781 L 79.285156 20.800781 L 79.535156 20.179688 C 79.804688 19.511719 79.820312 19.519531 80.472656 20.5 C 80.652344 20.777344 80.753906 20.800781 81.71875 20.800781 L 82.765625 20.800781 L 83.152344 19.980469 C 83.367188 19.527344 83.628906 19.007812 83.734375 18.820312 C 83.921875 18.484375 83.914062 18.480469 82.941406 18.480469 C 81.894531 18.480469 81.882812 18.488281 81.507812 19.398438 C 81.410156 19.632812 81.402344 19.632812 81.183594 19.339844 C 81.058594 19.175781 80.882812 18.914062 80.785156 18.761719 C 80.632812 18.515625 80.496094 18.480469 79.695312 18.480469 C 78.800781 18.480469 78.773438 18.492188 78.488281 19.058594 L 78.199219 19.640625 L 77.960938 19.238281 C 77.527344 18.503906 77.484375 18.480469 76.632812 18.480469 C 76.089844 18.480469 75.839844 18.523438 75.84375 18.621094 M 85.296875 18.65625 C 85.023438 18.753906 84.800781 18.898438 84.800781 18.976562 C 84.800781 19.167969 86.34375 19.167969 86.902344 18.980469 C 87.214844 18.875 87.410156 18.863281 87.6875 18.929688 C 88.308594 19.085938 87.898438 19.300781 86.808594 19.394531 C 85.148438 19.535156 84.675781 19.707031 84.703125 20.160156 C 84.714844 20.378906 84.90625 20.613281 85.121094 20.679688 C 85.644531 20.839844 86.6875 20.832031 87.414062 20.667969 C 87.960938 20.542969 88 20.542969 88 20.667969 C 88 20.761719 88.28125 20.800781 88.960938 20.800781 L 89.921875 20.800781 L 89.921875 19.773438 C 89.921875 18.570312 89.734375 18.480469 87.273438 18.480469 C 86.109375 18.480469 85.691406 18.519531 85.296875 18.65625 M 106.878906 19.554688 C 106.878906 20.1875 106.746094 20.652344 106.558594 20.679688 C 106.382812 20.707031 106.238281 20.800781 106.238281 20.882812 C 106.238281 21.003906 106.460938 21.039062 107.160156 21.039062 C 108.707031 21.039062 108.875 20.90625 108.917969 19.640625 L 108.960938 18.480469 L 106.878906 18.480469 L 106.878906 19.554688 M 110.660156 18.578125 C 110.382812 18.636719 110.066406 18.777344 109.953125 18.898438 C 109.757812 19.109375 109.808594 19.121094 110.875 19.121094 C 111.660156 19.121094 112 19.082031 112 19 C 112 18.933594 112.214844 18.878906 112.480469 18.878906 C 112.777344 18.878906 112.960938 18.957031 112.960938 19.082031 C 112.960938 19.242188 112.695312 19.308594 111.671875 19.410156 C 110.960938 19.480469 110.242188 19.605469 110.070312 19.683594 C 109.597656 19.90625 109.699219 20.421875 110.257812 20.621094 C 110.855469 20.835938 112.15625 20.855469 112.613281 20.660156 C 112.925781 20.527344 112.941406 20.527344 112.949219 20.660156 C 112.957031 20.765625 113.230469 20.800781 114.078125 20.800781 L 115.199219 20.800781 L 115.199219 19.800781 C 115.199219 18.90625 115.132812 18.78125 114.558594 18.640625 C 113.820312 18.453125 111.472656 18.417969 110.660156 18.578125 M 119.863281 18.605469 C 119.585938 18.675781 119.359375 18.820312 119.359375 18.925781 C 119.359375 19.089844 119.515625 19.121094 120.320312 19.121094 C 120.960938 19.121094 121.28125 19.078125 121.28125 19 C 121.28125 18.933594 121.496094 18.878906 121.761719 18.878906 C 122.078125 18.878906 122.238281 18.960938 122.238281 19.113281 C 122.238281 19.308594 122.078125 19.355469 121.285156 19.398438 C 119.808594 19.480469 118.945312 19.808594 119.128906 20.21875 C 119.214844 20.40625 119.460938 20.613281 119.679688 20.679688 C 120.144531 20.820312 121.320312 20.839844 121.820312 20.714844 C 122.070312 20.652344 122.226562 20.652344 122.382812 20.714844 C 122.5 20.761719 123.019531 20.800781 123.539062 20.800781 L 124.480469 20.800781 L 124.480469 19.800781 C 124.480469 18.90625 124.410156 18.78125 123.839844 18.640625 C 123.039062 18.441406 120.609375 18.417969 119.863281 18.605469 M 65.601562 19.441406 C 65.601562 20.167969 65.683594 20.320312 66.078125 20.320312 C 66.476562 20.320312 66.558594 20.167969 66.558594 19.441406 C 66.558594 18.710938 66.476562 18.558594 66.078125 18.558594 C 65.683594 18.558594 65.601562 18.710938 65.601562 19.441406 M 96.355469 18.847656 C 96.335938 19.03125 96.226562 19.34375 96.117188 19.546875 C 95.945312 19.859375 95.996094 19.921875 96.4375 19.921875 C 96.851562 19.921875 96.957031 19.839844 96.941406 19.539062 C 96.929688 19.332031 96.804688 19.015625 96.660156 18.839844 L 96.394531 18.519531 L 96.355469 18.847656 M 102.21875 19.246094 C 102.015625 19.585938 102.21875 20.300781 102.539062 20.382812 C 103.058594 20.511719 103.359375 20.222656 103.359375 19.59375 C 103.359375 19.027344 103.265625 18.878906 102.898438 18.878906 C 102.597656 18.878906 102.363281 19.007812 102.21875 19.246094 M 71.808594 19.710938 C 71.523438 19.898438 71.8125 20.34375 72.238281 20.378906 C 72.523438 20.402344 72.640625 20.296875 72.640625 20.007812 C 72.640625 19.621094 72.1875 19.464844 71.808594 19.710938 M 87.105469 19.695312 C 86.621094 19.816406 86.601562 20.292969 87.074219 20.367188 C 87.59375 20.445312 87.988281 20.246094 87.996094 19.898438 C 88 19.589844 87.757812 19.53125 87.105469 19.695312 M 112.214844 19.652344 C 112.097656 19.683594 112 19.863281 112 20.054688 C 112 20.308594 112.128906 20.398438 112.480469 20.398438 C 112.84375 20.398438 112.960938 20.300781 112.960938 20 C 112.960938 19.628906 112.734375 19.523438 112.214844 19.652344 M 121.40625 19.710938 C 121.121094 19.898438 121.410156 20.34375 121.839844 20.378906 C 122.125 20.402344 122.238281 20.296875 122.238281 20.007812 C 122.238281 19.621094 121.789062 19.464844 121.40625 19.710938 "/>
</g>
</svg>
