<?xml version="1.0" encoding="UTF-8" standalone="no"?>
<svg
   xmlns:dc="http://purl.org/dc/elements/1.1/"
   xmlns:cc="http://creativecommons.org/ns#"
   xmlns:rdf="http://www.w3.org/1999/02/22-rdf-syntax-ns#"
   xmlns:svg="http://www.w3.org/2000/svg"
   xmlns="http://www.w3.org/2000/svg"
   xmlns:sodipodi="http://sodipodi.sourceforge.net/DTD/sodipodi-0.dtd"
   xmlns:inkscape="http://www.inkscape.org/namespaces/inkscape"
   version="1.1"
   width="308.95676"
   height="101.6009"
   style="clip-rule:evenodd;fill-rule:evenodd;image-rendering:optimizeQuality;shape-rendering:geometricPrecision;text-rendering:geometricPrecision"
   id="svg925"
   sodipodi:docname="logo.svg"
   inkscape:version="0.92.5 (2060ec1f9f, 2020-04-08)">
  <metadata
     id="metadata931">
    <rdf:RDF>
      <cc:Work
         rdf:about="">
        <dc:format>image/svg+xml</dc:format>
        <dc:type
           rdf:resource="http://purl.org/dc/dcmitype/StillImage" />
        <dc:title></dc:title>
      </cc:Work>
    </rdf:RDF>
  </metadata>
  <defs
     id="defs929" />
  <sodipodi:namedview
     pagecolor="#ffffff"
     bordercolor="#666666"
     borderopacity="1"
     objecttolerance="10"
     gridtolerance="10"
     guidetolerance="10"
     inkscape:pageopacity="0"
     inkscape:pageshadow="2"
     inkscape:window-width="1920"
     inkscape:window-height="1080"
     id="namedview927"
     showgrid="false"
     showborder="true"
     fit-margin-top="0"
     fit-margin-left="0"
     fit-margin-right="0"
     fit-margin-bottom="0"
     inkscape:zoom="1.676"
     inkscape:cx="169.44325"
     inkscape:cy="50.46222"
     inkscape:window-x="0"
     inkscape:window-y="0"
     inkscape:window-maximized="1"
     inkscape:current-layer="svg925" />
  <g
     id="g499"
     transform="translate(-80.55675,-198.86132)">
    <path
       style="opacity:1;fill:#436c52"
       d="m 120.5,203.5 c -3.058,-2.465 -6.224,-2.465 -9.5,0 -0.704,-2.227 -1.871,-2.56 -3.5,-1 2.875,-3.783 6.541,-4.616 11,-2.5 1.323,0.816 1.989,1.983 2,3.5 z"
       id="path497"
       inkscape:connector-curvature="0" />
  </g>
  <g
     id="g503"
     transform="translate(-80.55675,-198.86132)">
    <path
       style="opacity:0.847;fill:#88928a"
       d="m 167.5,201.5 c 0.864,1.188 1.864,2.355 3,3.5 -1.201,0.903 -2.035,2.069 -2.5,3.5 -0.465,-1.431 -1.299,-2.597 -2.5,-3.5 1.323,-0.816 1.989,-1.983 2,-3.5 z"
       id="path501"
       inkscape:connector-curvature="0" />
  </g>
  <g
     id="g507"
     transform="translate(-80.55675,-198.86132)">
    <path
       style="opacity:1;fill:#054c20"
       d="m 119.5,221.5 c -1.524,0.674 -2.858,1.674 -4,3 -1.022,-0.355 -1.689,-1.022 -2,-2 0.327,-4.714 -0.007,-9.38 -1,-14 -0.751,0.876 -1.251,1.876 -1.5,3 -0.813,-1.936 -1.313,-3.936 -1.5,-6 3.131,1.858 5.631,1.191 7.5,-2 1.839,2.211 1.672,4.377 -0.5,6.5 0.764,2.069 1.264,4.236 1.5,6.5 0.333,-0.333 0.667,-0.667 1,-1 0.495,1.973 0.662,3.973 0.5,6 z"
       id="path505"
       inkscape:connector-curvature="0" />
  </g>
  <g
     id="g511"
     transform="translate(-80.55675,-198.86132)">
    <path
       style="opacity:1;fill:#0e4b24"
       d="m 120.5,203.5 c 0.988,5.14 1.321,10.474 1,16 0,1.333 0,2.667 0,4 -0.667,0 -1,-0.333 -1,-1 0,-0.667 -0.333,-1 -1,-1 0.162,-2.027 -0.005,-4.027 -0.5,-6 -0.333,0.333 -0.667,0.667 -1,1 -0.236,-2.264 -0.736,-4.431 -1.5,-6.5 2.172,-2.123 2.339,-4.289 0.5,-6.5 -1.869,3.191 -4.369,3.858 -7.5,2 0.187,2.064 0.687,4.064 1.5,6 0.249,-1.124 0.749,-2.124 1.5,-3 0.993,4.62 1.327,9.286 1,14 -1.967,0.768 -3.633,0.768 -5,0 -0.617,-0.111 -1.117,-0.444 -1.5,-1 -0.333,1.333 -0.667,2.667 -1,4 -1.011,-0.837 -2.178,-1.17 -3.5,-1 0,-0.333 0,-0.667 0,-1 2.412,-0.194 3.412,-1.527 3,-4 -0.166,-5.011 0.001,-10.011 0.5,-15 0.278,-0.916 0.778,-1.582 1.5,-2 1.629,-1.56 2.796,-1.227 3.5,1 3.276,-2.465 6.442,-2.465 9.5,0 z"
       id="path509"
       inkscape:connector-curvature="0" />
  </g>
  <g
     id="g515"
     transform="translate(-80.55675,-198.86132)">
    <path
       style="opacity:0.99199997;fill:#5f7e68"
       d="m 159.5,209.5 c -1.667,0.667 -3.333,1.333 -5,2 2.22,-3.26 3.386,-6.926 3.5,-11 0.363,3.044 0.863,6.044 1.5,9 z"
       id="path513"
       inkscape:connector-curvature="0" />
  </g>
  <g
     id="g519"
     transform="translate(-80.55675,-198.86132)">
    <path
       style="opacity:0.50199998;fill:#a5b4a7"
       d="m 153.5,211.5 c -0.111,0.617 -0.444,1.117 -1,1.5 0.916,0.278 1.582,0.778 2,1.5 -7.041,-0.714 -7.375,-1.714 -1,-3 z"
       id="path517"
       inkscape:connector-curvature="0" />
  </g>
  <g
     id="g523"
     transform="translate(-80.55675,-198.86132)">
    <path
       style="opacity:1;fill:#134825"
       d="m 159.5,209.5 c 0,2 0,4 0,6 -1.716,-0.129 -3.383,-0.462 -5,-1 -0.418,-0.722 -1.084,-1.222 -2,-1.5 0.556,-0.383 0.889,-0.883 1,-1.5 0.333,0 0.667,0 1,0 1.667,-0.667 3.333,-1.333 5,-2 z"
       id="path521"
       inkscape:connector-curvature="0" />
  </g>
  <g
     id="g527"
     transform="translate(-80.55675,-198.86132)">
    <path
       style="opacity:1;fill:#6c8975"
       d="m 159.5,209.5 c 2.396,1.638 5.062,2.804 8,3.5 -7.313,0.983 -10.48,5.15 -9.5,12.5 0.064,-4.138 -1.103,-7.804 -3.5,-11 1.617,0.538 3.284,0.871 5,1 0,-2 0,-4 0,-6 z"
       id="path525"
       inkscape:connector-curvature="0" />
  </g>
  <g
     id="g531"
     transform="translate(-80.55675,-198.86132)">
    <path
       style="opacity:1;fill:#6b8474"
       d="m 172.5,213.5 c 0.341,3.062 2.008,5.228 5,6.5 -3.229,0.356 -4.729,2.19 -4.5,5.5 0.229,-3.31 -1.271,-5.144 -4.5,-5.5 3.193,-1.026 4.526,-3.192 4,-6.5 z"
       id="path529"
       inkscape:connector-curvature="0" />
  </g>
  <g
     id="g535"
     transform="translate(-80.55675,-198.86132)">
    <path
       style="opacity:1;fill:#05491d"
       d="m 113.5,222.5 c 0.311,0.978 0.978,1.645 2,2 1.142,-1.326 2.476,-2.326 4,-3 0.667,0 1,0.333 1,1 -2.573,1.379 -4.073,3.379 -4.5,6 2.682,2.85 5.516,5.516 8.5,8 1.701,-1.054 3.368,-2.054 5,-3 0.791,1.556 1.124,2.89 1,4 2.65,-1.994 5.65,-2.994 9,-3 0,1 0,2 0,3 -5.475,0.989 -11.142,1.322 -17,1 -2.355,-4.355 -5.688,-7.688 -10,-10 -1.245,-1.988 -2.578,-3.988 -4,-6 1.367,0.768 3.033,0.768 5,0 z"
       id="path533"
       inkscape:connector-curvature="0" />
  </g>
  <g
     id="g539"
     transform="translate(-80.55675,-198.86132)">
    <path
       style="opacity:0.53699999;fill:#a8c1ac"
       d="m 105.5,219.5 c 0.412,2.473 -0.588,3.806 -3,4 1.012,-1.372 2.012,-2.705 3,-4 z"
       id="path537"
       inkscape:connector-curvature="0" />
  </g>
  <g
     id="g543"
     transform="translate(-80.55675,-198.86132)">
    <path
       style="opacity:0.09299999;fill:#c1d4c9"
       d="m 340.5,223.5 c -2.333,0 -4.667,0 -7,0 0,1.667 0,3.333 0,5 -0.961,-1.765 -1.295,-3.765 -1,-6 2.885,-0.306 5.552,0.027 8,1 z"
       id="path541"
       inkscape:connector-curvature="0" />
  </g>
  <g
     id="g547"
     transform="translate(-80.55675,-198.86132)">
    <path
       style="opacity:1;fill:#074c21"
       d="m 120.5,222.5 c 0,0.667 0.333,1 1,1 0.931,1.522 2.098,2.855 3.5,4 1.766,-0.733 3.599,-1.067 5.5,-1 1.603,-0.188 2.937,0.312 4,1.5 -2.247,1.342 -3.913,3.176 -5,5.5 -1.632,0.946 -3.299,1.946 -5,3 -2.984,-2.484 -5.818,-5.15 -8.5,-8 0.427,-2.621 1.927,-4.621 4.5,-6 z"
       id="path545"
       inkscape:connector-curvature="0" />
  </g>
  <g
     id="g551"
     transform="translate(-80.55675,-198.86132)">
    <path
       style="opacity:0.35700001;fill:#94ae9c"
       d="m 307.5,225.5 c -4,0 -8,0 -12,0 0.302,2.559 -0.032,4.893 -1,7 0,-2.667 0,-5.333 0,-8 4.532,-0.318 8.866,0.015 13,1 z"
       id="path549"
       inkscape:connector-curvature="0" />
  </g>
  <g
     id="g555"
     transform="translate(-80.55675,-198.86132)">
    <path
       style="opacity:0.56499999;fill:#678b73"
       d="m 322.5,225.5 c 2.193,-1.297 4.527,-1.297 7,0 1.05,0.929 1.05,1.595 0,2 -0.333,0 -0.667,0 -1,0 -1.418,-1.808 -3.418,-2.475 -6,-2 z"
       id="path553"
       inkscape:connector-curvature="0" />
  </g>
  <g
     id="g559"
     transform="translate(-80.55675,-198.86132)">
    <path
       style="opacity:1;fill:#215231"
       d="m 340.5,223.5 c 0,1.667 0,3.333 0,5 -2.333,0 -4.667,0 -7,0 0,-1.667 0,-3.333 0,-5 2.333,0 4.667,0 7,0 z"
       id="path557"
       inkscape:connector-curvature="0" />
  </g>
  <g
     id="g563"
     transform="translate(-80.55675,-198.86132)">
    <path
       style="opacity:1;fill:#094a20"
       d="m 108.5,222.5 c 1.422,2.012 2.755,4.012 4,6 -1.167,3.647 -3.334,6.647 -6.5,9 -0.494,1.634 -0.66,3.301 -0.5,5 -0.333,0 -0.667,0 -1,0 -0.667,0 -1,-0.333 -1,-1 -0.111,-0.617 -0.444,-1.117 -1,-1.5 -5.6569,-0.499 -11.3236,-0.666 -17,-0.5 -1.1005,-1.105 -1.7671,-2.438 -2,-4 1.6084,-1.038 2.6084,-0.371 3,2 4.967,1.162 9.967,1.329 15,0.5 -2.5109,-2.179 -4.6776,-4.679 -6.5,-7.5 -1.8402,1.333 -2.3402,1.166 -1.5,-0.5 -0.948,-0.483 -1.948,-0.649 -3,-0.5 0.3333,3 -1,4.333 -4,4 -0.2135,-1.644 0.1198,-3.144 1,-4.5 -0.948,-0.483 -1.948,-0.649 -3,-0.5 0.5283,-1.221 1.195,-2.387 2,-3.5 5.3229,-0.499 10.6563,-0.666 16,-0.5 1.322,-0.17 2.489,0.163 3.5,1 0.333,-1.333 0.667,-2.667 1,-4 0.383,0.556 0.883,0.889 1.5,1 z"
       id="path561"
       inkscape:connector-curvature="0" />
  </g>
  <g
     id="g567"
     transform="translate(-80.55675,-198.86132)">
    <path
       style="opacity:1;fill:#084920"
       d="m 130.5,226.5 c 3.506,-0.998 7.172,-0.998 11,0 -0.117,1.984 0.55,3.65 2,5 -0.333,0.333 -0.667,0.667 -1,1 -1.416,-1.639 -3.083,-2.473 -5,-2.5 1.581,1.828 2.915,3.828 4,6 -0.544,0.717 -1.211,1.217 -2,1.5 0,-1 0,-2 0,-3 -3.35,0.006 -6.35,1.006 -9,3 0.124,-1.11 -0.209,-2.444 -1,-4 1.087,-2.324 2.753,-4.158 5,-5.5 -1.063,-1.188 -2.397,-1.688 -4,-1.5 z"
       id="path565"
       inkscape:connector-curvature="0" />
  </g>
  <g
     id="g571"
     transform="translate(-80.55675,-198.86132)">
    <path
       style="opacity:1;fill:#074c21"
       d="m 84.5,228.5 c 1.052,-0.149 2.052,0.017 3,0.5 -0.8802,1.356 -1.2135,2.856 -1,4.5 3,0.333 4.3333,-1 4,-4 1.052,-0.149 2.052,0.017 3,0.5 -0.8402,1.666 -0.3402,1.833 1.5,0.5 1.8224,2.821 3.9891,5.321 6.5,7.5 -5.033,0.829 -10.033,0.662 -15,-0.5 -0.3916,-2.371 -1.3916,-3.038 -3,-2 -1.678,-2.81 -1.3447,-5.143 1,-7 z"
       id="path569"
       inkscape:connector-curvature="0" />
  </g>
  <g
     id="g575"
     transform="translate(-80.55675,-198.86132)">
    <path
       style="opacity:0.26300001;fill:#afcab6"
       d="m 242.5,230.5 c -2,0 -4,0 -6,0 0,2 0,4 0,6 -0.968,-2.107 -1.302,-4.441 -1,-7 2.559,-0.302 4.893,0.032 7,1 z"
       id="path573"
       inkscape:connector-curvature="0" />
  </g>
  <g
     id="g579"
     transform="translate(-80.55675,-198.86132)">
    <path
       style="opacity:0.25899999;fill:#9fbfae"
       d="m 245.5,230.5 c 2.107,-0.968 4.441,-1.302 7,-1 0,1.333 0,2.667 0,4 -0.904,-0.709 -1.237,-1.709 -1,-3 -2,0 -4,0 -6,0 z"
       id="path577"
       inkscape:connector-curvature="0" />
  </g>
  <g
     id="g583"
     transform="translate(-80.55675,-198.86132)">
    <path
       style="opacity:0.25899999;fill:#a4bdae"
       d="m 261.5,233.5 c 0,-1 0,-2 0,-3 -2,0 -4,0 -6,0 0.284,1.915 -0.049,3.581 -1,5 0,-2 0,-4 0,-6 2.667,0 5.333,0 8,0 0.268,1.599 -0.066,2.932 -1,4 z"
       id="path581"
       inkscape:connector-curvature="0" />
  </g>
  <g
     id="g587"
     transform="translate(-80.55675,-198.86132)">
    <path
       style="opacity:1;fill:#6d9078"
       d="m 102.5,223.5 c 0,0.333 0,0.667 0,1 -5.3437,-0.166 -10.6771,0.001 -16,0.5 -0.805,1.113 -1.4717,2.279 -2,3.5 -2.3447,1.857 -2.678,4.19 -1,7 0.2329,1.562 0.8995,2.895 2,4 -6.591,-4.823 -6.591,-9.99 0,-15.5 5.6569,-0.499 11.3236,-0.666 17,-0.5 z"
       id="path585"
       inkscape:connector-curvature="0" />
  </g>
  <g
     id="g591"
     transform="translate(-80.55675,-198.86132)">
    <path
       style="opacity:1;fill:#084b21"
       d="m 112.5,228.5 c 4.312,2.312 7.645,5.645 10,10 -0.838,0.342 -1.172,1.008 -1,2 0,1.667 0,3.333 0,5 0,3.333 0,6.667 0,10 -0.821,-3.141 -1.321,-6.475 -1.5,-10 -0.498,3.317 -0.665,6.65 -0.5,10 -1.71,-1.7 -3.71,-3.033 -6,-4 -2.177,1.004 -2.511,0.338 -1,-2 -1.13,-1.122 -1.797,-2.456 -2,-4 -0.901,-2.227 -2.567,-3.227 -5,-3 -0.16,-1.699 0.006,-3.366 0.5,-5 3.166,-2.353 5.333,-5.353 6.5,-9 z"
       id="path589"
       inkscape:connector-curvature="0" />
  </g>
  <g
     id="g595"
     transform="translate(-80.55675,-198.86132)">
    <path
       style="opacity:1;fill:#2c5d3a"
       d="m 121.5,219.5 c 0.864,1.188 1.864,2.355 3,3.5 5.667,0.333 11.333,0.667 17,1 4.353,2.857 5.686,6.69 4,11.5 -0.651,-0.591 -1.318,-1.257 -2,-2 -0.795,1.995 -1.461,3.995 -2,6 -6.711,-0.213 -13.377,0.12 -20,1 -0.172,-0.992 0.162,-1.658 1,-2 5.858,0.322 11.525,-0.011 17,-1 0.789,-0.283 1.456,-0.783 2,-1.5 -1.085,-2.172 -2.419,-4.172 -4,-6 1.917,0.027 3.584,0.861 5,2.5 0.333,-0.333 0.667,-0.667 1,-1 -1.45,-1.35 -2.117,-3.016 -2,-5 -3.828,-0.998 -7.494,-0.998 -11,0 -1.901,-0.067 -3.734,0.267 -5.5,1 -1.402,-1.145 -2.569,-2.478 -3.5,-4 0,-1.333 0,-2.667 0,-4 z"
       id="path593"
       inkscape:connector-curvature="0" />
  </g>
  <g
     id="g599"
     transform="translate(-80.55675,-198.86132)">
    <path
       style="opacity:0.00400002;fill:#fefffe"
       d="m 341.5,230.5 c 1.025,0.397 1.192,1.063 0.5,2 -0.464,-0.594 -0.631,-1.261 -0.5,-2 z"
       id="path597"
       inkscape:connector-curvature="0" />
  </g>
  <g
     id="g603"
     transform="translate(-80.55675,-198.86132)">
    <path
       style="opacity:1;fill:#6f917b"
       d="m 346.5,230.5 c 2.804,-1.138 5.804,-1.305 9,-0.5 2.251,0.748 3.584,2.248 4,4.5 -1.105,-1.1 -2.438,-1.767 -4,-2 -2.645,-1.742 -5.645,-2.409 -9,-2 z"
       id="path601"
       inkscape:connector-curvature="0" />
  </g>
  <g
     id="g607"
     transform="translate(-80.55675,-198.86132)">
    <path
       style="opacity:1;fill:#2f5f3e"
       d="m 375.5,230.5 c 4.913,-0.358 9.247,0.975 13,4 1.157,8.156 1.323,16.49 0.5,25 -2.605,1.314 -5.105,1.314 -7.5,0 1.307,-0.653 2.64,-1.32 4,-2 1.333,-7.333 1.333,-14.667 0,-22 -2.975,-1.517 -3.642,-0.851 -2,2 0.047,1.538 -0.62,2.538 -2,3 0,-0.333 0,-0.667 0,-1 0,-0.333 0,-0.667 0,-1 0,-0.333 0,-0.667 0,-1 0,-0.333 0,-0.667 0,-1 -0.709,-0.904 -1.709,-1.237 -3,-1 0,1 0,2 0,3 -2,0 -4,0 -6,0 0,-1.667 0,-3.333 0,-5 0,-2 1,-3 3,-3 z"
       id="path605"
       inkscape:connector-curvature="0" />
  </g>
  <g
     id="g611"
     transform="translate(-80.55675,-198.86132)">
    <path
       style="opacity:1;fill:#5d836a"
       d="m 375.5,230.5 c 2.804,-1.138 5.804,-1.305 9,-0.5 2.251,0.748 3.584,2.248 4,4.5 -3.753,-3.025 -8.087,-4.358 -13,-4 z"
       id="path609"
       inkscape:connector-curvature="0" />
  </g>
  <g
     id="g615"
     transform="translate(-80.55675,-198.86132)">
    <path
       style="opacity:0.00400002;fill:#fefffe"
       d="m 214.5,232.5 c 0.992,-0.172 1.658,0.162 2,1 -0.667,2 -1.333,4 -2,6 0,-2.333 0,-4.667 0,-7 z"
       id="path613"
       inkscape:connector-curvature="0" />
  </g>
  <g
     id="g619"
     transform="translate(-80.55675,-198.86132)">
    <path
       style="opacity:0.45500004;fill:#a0b8a7"
       d="m 220.5,230.5 c -0.667,1.333 -1.667,2.333 -3,3 0,-2 1,-3 3,-3 z"
       id="path617"
       inkscape:connector-curvature="0" />
  </g>
  <g
     id="g623"
     transform="translate(-80.55675,-198.86132)">
    <path
       style="opacity:1;fill:#4d7a5b"
       d="m 145.5,235.5 c -0.333,2.333 -1.667,3.667 -4,4 0.539,-2.005 1.205,-4.005 2,-6 0.682,0.743 1.349,1.409 2,2 z"
       id="path621"
       inkscape:connector-curvature="0" />
  </g>
  <g
     id="g627"
     transform="translate(-80.55675,-198.86132)">
    <path
       style="opacity:1;fill:#104e26"
       d="m 212.5,238.5 c -1.235,-0.221 -2.235,-0.888 -3,-2 -0.667,5.485 -1.333,10.819 -2,16 0,-0.333 0,-0.667 0,-1 0.256,-6.724 -0.077,-13.391 -1,-20 -2.088,-0.365 -4.421,-0.365 -7,0 -0.214,-1.644 0.12,-3.144 1,-4.5 4.037,-0.607 8.037,-0.44 12,0.5 0,3.667 0,7.333 0,11 z"
       id="path625"
       inkscape:connector-curvature="0" />
  </g>
  <g
     id="g631"
     transform="translate(-80.55675,-198.86132)">
    <path
       style="opacity:1;fill:#215631"
       d="m 233.5,259.5 c -2,0 -4,0 -6,0 0.328,-5.375 -0.005,-10.708 -1,-16 -1.022,0.355 -1.689,1.022 -2,2 -1.293,3.534 -1.293,7.201 0,11 -1.189,0.929 -2.522,1.262 -4,1 -0.248,-3.08 -0.914,-6.08 -2,-9 0.571,-2.813 1.904,-5.146 4,-7 0.333,0 0.667,0 1,0 1.679,0.215 2.679,-0.452 3,-2 0,-1 0,-2 0,-3 -0.709,-0.904 -1.709,-1.237 -3,-1 0,1 0,2 0,3 -2,0 -4,0 -6,0 0,-1.667 0,-3.333 0,-5 1.333,-0.667 2.333,-1.667 3,-3 2.804,-1.138 5.804,-1.305 9,-0.5 2.167,0.833 3.667,2.333 4.5,4.5 0.823,8.51 0.657,16.844 -0.5,25 z m -9,-14 c 1.248,0.834 1.915,2.167 2,4 -0.333,1.333 -0.667,2.667 -1,4 -0.98,-2.586 -1.313,-5.253 -1,-8 z"
       id="path629"
       inkscape:connector-curvature="0" />
  </g>
  <g
     id="g635"
     transform="translate(-80.55675,-198.86132)">
    <path
       style="opacity:1;fill:#346244"
       d="m 307.5,225.5 c 0.967,7.969 1.634,15.969 2,24 -1.427,-1.648 -2.26,-3.648 -2.5,-6 -0.499,-5.323 -0.666,-10.656 -0.5,-16 -3.125,-0.979 -6.458,-1.313 -10,-1 -0.333,8.494 -0.333,16.66 0,24.5 -1.75,1.754 -2.417,3.921 -2,6.5 1.322,0.17 2.489,-0.163 3.5,-1 0.483,0.948 0.649,1.948 0.5,3 -1.788,1.122 -3.788,1.289 -6,0.5 -0.559,-0.725 -0.892,-1.558 -1,-2.5 0.941,-8.359 1.941,-16.692 3,-25 0.968,-2.107 1.302,-4.441 1,-7 4,0 8,0 12,0 z m -7,12 c 0.667,3 1.333,6 2,9 0,0.333 0,0.667 0,1 -1.676,-0.683 -2.343,-2.017 -2,-4 0,-2 0,-4 0,-6 z"
       id="path633"
       inkscape:connector-curvature="0" />
  </g>
  <g
     id="g639"
     transform="translate(-80.55675,-198.86132)">
    <path
       style="opacity:1;fill:#074d1f"
       d="m 328.5,229.5 c 0,9.667 0,19.333 0,29 -2.761,0.585 -4.427,-0.415 -5,-3 1.276,-6.815 1.276,-13.482 0,-20 -0.149,-1.052 0.017,-2.052 0.5,-3 1.751,-0.722 3.251,-1.722 4.5,-3 z"
       id="path637"
       inkscape:connector-curvature="0" />
  </g>
  <g
     id="g643"
     transform="translate(-80.55675,-198.86132)">
    <path
       style="opacity:0.34500002;fill:#87a593"
       d="m 339.5,260.5 c 0,-10 0,-20 0,-30 -2,0 -4,0 -6,0 0.327,9.182 -0.007,18.182 -1,27 0,-9.333 0,-18.667 0,-28 2.667,0 5.333,0 8,0 0.328,10.514 -0.006,20.847 -1,31 z"
       id="path641"
       inkscape:connector-curvature="0" />
  </g>
  <g
     id="g647"
     transform="translate(-80.55675,-198.86132)">
    <path
       style="opacity:0.02900002;fill:#c8eff6"
       d="m 189.5,235.5 c -1.293,-1.342 -2.126,-3.009 -2.5,-5 -0.174,5.184 -0.674,10.184 -1.5,15 -0.086,-7.363 -0.253,-14.696 -0.5,-22 2.385,3.653 3.885,7.653 4.5,12 z"
       id="path645"
       inkscape:connector-curvature="0" />
  </g>
  <g
     id="g651"
     transform="translate(-80.55675,-198.86132)">
    <path
       style="opacity:1;fill:#0f4c25"
       d="m 306.5,227.5 c -3.222,-0.392 -6.222,0.108 -9,1.5 1.178,0.967 2.511,1.467 4,1.5 3.172,7.404 3.839,15.071 2,23 -1.599,-0.268 -2.932,0.066 -4,1 0.284,1.915 -0.049,3.581 -1,5 0.149,-1.052 -0.017,-2.052 -0.5,-3 -1.011,0.837 -2.178,1.17 -3.5,1 -0.417,-2.579 0.25,-4.746 2,-6.5 -0.333,-7.84 -0.333,-16.006 0,-24.5 3.542,-0.313 6.875,0.021 10,1 z m -6,10 c 0.667,3 1.333,6 2,9 0,0.333 0,0.667 0,1 -1.676,-0.683 -2.343,-2.017 -2,-4 0,-2 0,-4 0,-6 z"
       id="path649"
       inkscape:connector-curvature="0" />
  </g>
  <g
     id="g655"
     transform="translate(-80.55675,-198.86132)">
    <path
       style="opacity:1;fill:#0c4c23"
       d="m 322.5,225.5 c 2.582,-0.475 4.582,0.192 6,2 0,0.667 0,1.333 0,2 -1.249,1.278 -2.749,2.278 -4.5,3 -0.483,0.948 -0.649,1.948 -0.5,3 -0.333,0 -0.667,0 -1,0 -1,0 -2,0 -3,0 -1.597,1.237 -2.763,2.904 -3.5,5 -0.24,3.157 -0.073,6.324 0.5,9.5 -0.063,2.281 -0.897,4.114 -2.5,5.5 -0.667,-7.333 -0.667,-14.667 0,-22 0.513,-1.027 1.013,-2.027 1.5,-3 2.06,-1.311 4.226,-1.311 6.5,0 0.494,-1.634 0.66,-3.301 0.5,-5 z"
       id="path653"
       inkscape:connector-curvature="0" />
  </g>
  <g
     id="g659"
     transform="translate(-80.55675,-198.86132)">
    <path
       style="opacity:1;fill:#346142"
       d="m 261.5,233.5 c -0.589,9.049 -1.589,18.049 -3,27 -2.357,0.163 -4.69,-0.003 -7,-0.5 -0.906,-1.699 -1.239,-3.533 -1,-5.5 0,-0.667 0,-1.333 0,-2 0.961,1.765 1.295,3.765 1,6 2,0 4,0 6,0 0.303,-5.685 0.47,-11.352 0.5,-17 -0.333,-0.667 -0.667,-1.333 -1,-2 -0.374,1.991 -1.207,3.658 -2.5,5 0,-2.333 0,-4.667 0,-7 0,-0.667 0,-1.333 0,-2 0.951,-1.419 1.284,-3.085 1,-5 2,0 4,0 6,0 0,1 0,2 0,3 z"
       id="path657"
       inkscape:connector-curvature="0" />
  </g>
  <g
     id="g663"
     transform="translate(-80.55675,-198.86132)">
    <path
       style="opacity:1;fill:#215831"
       d="m 306.5,227.5 c -0.166,5.344 10e-4,10.677 0.5,16 0.24,2.352 1.073,4.352 2.5,6 0.597,3.441 1.263,6.775 2,10 -2.448,0.973 -5.115,1.306 -8,1 0,-1.333 0,-2.667 0,-4 0,-1 0,-2 0,-3 1.839,-7.929 1.172,-15.596 -2,-23 -1.489,-0.033 -2.822,-0.533 -4,-1.5 2.778,-1.392 5.778,-1.892 9,-1.5 z"
       id="path661"
       inkscape:connector-curvature="0" />
  </g>
  <g
     id="g667"
     transform="translate(-80.55675,-198.86132)">
    <path
       style="opacity:0.00899999;fill:#bed2c7"
       d="m 372.5,233.5 c 0,1.667 0,3.333 0,5 2,0 4,0 6,0 0,-1 0,-2 0,-3 1.291,-0.237 2.291,0.096 3,1 -2.667,0.333 -2.667,0.667 0,1 0,0.333 0,0.667 0,1 -0.667,0 -1,0.333 -1,1 -3,0 -6,0 -9,0 -0.295,-2.235 0.039,-4.235 1,-6 z"
       id="path665"
       inkscape:connector-curvature="0" />
  </g>
  <g
     id="g671"
     transform="translate(-80.55675,-198.86132)">
    <path
       style="opacity:0.39200003;fill:#97b7a4"
       d="m 216.5,233.5 c 0.333,0 0.667,0 1,0 0,1.667 0,3.333 0,5 2,0 4,0 6,0 0,-1 0,-2 0,-3 1.291,-0.237 2.291,0.096 3,1 -1.548,0.321 -2.215,1.321 -2,3 -2.667,0 -5.333,0 -8,0 0,-2 0,-4 0,-6 z"
       id="path669"
       inkscape:connector-curvature="0" />
  </g>
  <g
     id="g675"
     transform="translate(-80.55675,-198.86132)">
    <path
       style="opacity:0.38800001;fill:#96b6a1"
       d="m 264.5,235.5 c 0,1 0,2 0,3 2.711,0.315 5.044,-0.352 7,-2 0,1 0,2 0,3 -2.667,0 -5.333,0 -8,0 -0.268,-1.599 0.066,-2.932 1,-4 z"
       id="path673"
       inkscape:connector-curvature="0" />
  </g>
  <g
     id="g679"
     transform="translate(-80.55675,-198.86132)">
    <path
       style="opacity:0.39599998;fill:#9cb8a8"
       d="m 343.5,233.5 c 0,1.667 0,3.333 0,5 2,0 4,0 6,0 0,-1 0,-2 0,-3 1,0 2,0 3,0 0.284,1.915 -0.049,3.581 -1,5 -0.122,-4.338 -0.455,-4.672 -1,-1 -2.667,0 -5.333,0 -8,0 -0.295,-2.235 0.039,-4.235 1,-6 z"
       id="path677"
       inkscape:connector-curvature="0" />
  </g>
  <g
     id="g683"
     transform="translate(-80.55675,-198.86132)">
    <path
       style="opacity:0.553;fill:#7d9788"
       d="m 85.5,239.5 c 5.6764,-0.166 11.3431,0.001 17,0.5 0.556,0.383 0.889,0.883 1,1.5 -6.1336,-0.586 -12.1336,-1.252 -18,-2 z"
       id="path681"
       inkscape:connector-curvature="0" />
  </g>
  <g
     id="g687"
     transform="translate(-80.55675,-198.86132)">
    <path
       style="opacity:0.56099997;fill:#7c9785"
       d="m 141.5,239.5 c -5.151,0.827 -10.484,1.327 -16,1.5 -2.109,0.907 -3.442,2.407 -4,4.5 0,-1.667 0,-3.333 0,-5 6.623,-0.88 13.289,-1.213 20,-1 z"
       id="path685"
       inkscape:connector-curvature="0" />
  </g>
  <g
     id="g691"
     transform="translate(-80.55675,-198.86132)">
    <path
       style="opacity:1;fill:#3c6a4a"
       d="m 328.5,227.5 c 0.333,0 0.667,0 1,0 0.717,10.397 1.05,20.73 1,31 -1.027,1.524 -2.527,2.191 -4.5,2 -1.385,-0.014 -2.551,-0.348 -3.5,-1 -0.286,-2.433 -0.952,-2.433 -2,0 -4.117,1.863 -6.951,0.529 -8.5,-4 -0.667,-7 -0.667,-14 0,-21 0.498,-2.044 1.665,-3.378 3.5,-4 -0.487,0.973 -0.987,1.973 -1.5,3 -0.667,7.333 -0.667,14.667 0,22 1.603,-1.386 2.437,-3.219 2.5,-5.5 -0.573,-3.176 -0.74,-6.343 -0.5,-9.5 0.737,-2.096 1.903,-3.763 3.5,-5 0,0.333 0,0.667 0,1 -0.449,5.852 0.051,11.519 1.5,17 1.325,-4.901 1.825,-9.901 1.5,-15 0,-1 0,-2 0,-3 0.333,0 0.667,0 1,0 1.276,6.518 1.276,13.185 0,20 0.573,2.585 2.239,3.585 5,3 0,-9.667 0,-19.333 0,-29 0,-0.667 0,-1.333 0,-2 z m -9,9 c 1.278,0.282 2.278,0.949 3,2 0.325,5.099 -0.175,10.099 -1.5,15 -1.449,-5.481 -1.949,-11.148 -1.5,-17 z"
       id="path689"
       inkscape:connector-curvature="0" />
  </g>
  <g
     id="g695"
     transform="translate(-80.55675,-198.86132)">
    <path
       style="opacity:0.122;fill:#c9dcce"
       d="m 319.5,236.5 c 0,-0.333 0,-0.667 0,-1 1,0 2,0 3,0 0,1 0,2 0,3 -0.722,-1.051 -1.722,-1.718 -3,-2 z"
       id="path693"
       inkscape:connector-curvature="0" />
  </g>
  <g
     id="g699"
     transform="translate(-80.55675,-198.86132)">
    <path
       style="opacity:1;fill:#1c532e"
       d="m 369.5,225.5 c 0,11.667 0,23.333 0,35 -2.559,0.302 -4.893,-0.032 -7,-1 0,-11.333 0,-22.667 0,-34 2.333,0 4.667,0 7,0 z"
       id="path697"
       inkscape:connector-curvature="0" />
  </g>
  <g
     id="g703"
     transform="translate(-80.55675,-198.86132)">
    <path
       style="opacity:0.68599997;fill:#96b4a1"
       d="m 226.5,239.5 c -0.321,1.548 -1.321,2.215 -3,2 0.79,-0.901 1.79,-1.568 3,-2 z"
       id="path701"
       inkscape:connector-curvature="0" />
  </g>
  <g
     id="g707"
     transform="translate(-80.55675,-198.86132)">
    <path
       style="opacity:0.31799999;fill:#95c3a8"
       d="m 252.5,236.5 c 0.667,0.333 1.333,0.667 2,1 0,2.333 0,4.667 0,7 -1.54,-2.338 -2.206,-5.005 -2,-8 z"
       id="path705"
       inkscape:connector-curvature="0" />
  </g>
  <g
     id="g711"
     transform="translate(-80.55675,-198.86132)">
    <path
       style="opacity:0.34100001;fill:#a0c4ad"
       d="m 302.5,246.5 c -0.667,-3 -1.333,-6 -2,-9 -0.162,-2.027 0.005,-4.027 0.5,-6 1.16,4.934 1.66,9.934 1.5,15 z"
       id="path709"
       inkscape:connector-curvature="0" />
  </g>
  <g
     id="g715"
     transform="translate(-80.55675,-198.86132)">
    <path
       style="opacity:0.675;fill:#9bb3a5"
       d="m 380.5,239.5 c 0.333,0 0.667,0 1,0 0,0.333 0,0.667 0,1 0,0.333 0,0.667 0,1 -1,0 -2,0 -3,0 0.667,-0.667 1.333,-1.333 2,-2 z"
       id="path713"
       inkscape:connector-curvature="0" />
  </g>
  <g
     id="g719"
     transform="translate(-80.55675,-198.86132)">
    <path
       style="opacity:1;fill:#81c5ea"
       d="m 180.5,253.5 c 0.182,-2.175 0.849,-4.175 2,-6 -2.569,-5.057 -6.569,-6.39 -12,-4 4.349,-4.172 8.515,-3.839 12.5,1 1.07,3.642 0.236,6.642 -2.5,9 z"
       id="path717"
       inkscape:connector-curvature="0" />
  </g>
  <g
     id="g723"
     transform="translate(-80.55675,-198.86132)">
    <path
       style="opacity:0.99800002;fill:#3f654c"
       d="m 210.5,225.5 c -3.937,-0.293 -7.77,0.04 -11.5,1 -0.499,4.989 -0.666,9.989 -0.5,15 -0.166,4.679 0.001,9.345 0.5,14 2.395,3.181 5.395,3.848 9,2 1.893,-0.508 3.393,-1.508 4.5,-3 0.993,-8.484 1.326,-17.151 1,-26 0.934,1.068 1.268,2.401 1,4 0,2.333 0,4.667 0,7 0,1.667 0,3.333 0,5 0,2.333 0,4.667 0,7 0.247,3.005 -0.753,5.505 -3,7.5 -4.566,1.309 -9.233,1.809 -14,1.5 0,-12 0,-24 0,-36 4.532,-0.318 8.866,0.015 13,1 z m -4,6 c 0.923,6.609 1.256,13.276 1,20 -0.891,0.61 -1.891,0.943 -3,1 0,-0.333 0,-0.667 0,-1 0.084,-6.377 0.084,-12.544 0,-18.5 0.544,-0.717 1.211,-1.217 2,-1.5 z"
       id="path721"
       inkscape:connector-curvature="0" />
  </g>
  <g
     id="g727"
     transform="translate(-80.55675,-198.86132)">
    <path
       style="opacity:1;fill:#295b39"
       d="m 242.5,230.5 c 0,1.333 0,2.667 0,4 0,1.667 0,3.333 0,5 -0.722,-0.418 -1.222,-1.084 -1.5,-2 -0.374,0.916 -0.874,1.75 -1.5,2.5 0.808,0.308 1.475,0.808 2,1.5 -0.667,1.667 -1.333,3.333 -2,5 0.933,3.929 1.266,7.929 1,12 2.222,0.322 4.056,-0.345 5.5,-2 0.667,-3.333 0.667,-6.667 0,-10 -0.893,1.211 -1.726,1.211 -2.5,0 0.627,-0.917 0.961,-1.917 1,-3 0,-1.333 0,-2.667 0,-4 -0.31,-3.213 0.023,-6.213 1,-9 2,0 4,0 6,0 -0.237,1.291 0.096,2.291 1,3 0,1 0,2 0,3 -0.206,2.995 0.46,5.662 2,8 0.107,1.879 -0.393,2.212 -1.5,1 -0.847,-3.818 -2.014,-7.484 -3.5,-11 -1.22,0.387 -1.887,1.22 -2,2.5 0.848,2.77 1.181,5.603 1,8.5 0,1 0,2 0,3 -0.005,4.034 -0.338,8.034 -1,12 -2.948,0.277 -5.781,-0.056 -8.5,-1 -1.081,-7.647 -1.914,-15.314 -2.5,-23 0,-2 0,-4 0,-6 2,0 4,0 6,0 z"
       id="path725"
       inkscape:connector-curvature="0" />
  </g>
  <g
     id="g731"
     transform="translate(-80.55675,-198.86132)">
    <path
       style="opacity:0.9449999;fill:#6ba07d"
       d="m 242.5,234.5 c 0.667,1.667 1.333,3.333 2,5 0,1.333 0,2.667 0,4 -1.604,-0.787 -2.271,-2.12 -2,-4 0,-1.667 0,-3.333 0,-5 z"
       id="path729"
       inkscape:connector-curvature="0" />
  </g>
  <g
     id="g735"
     transform="translate(-80.55675,-198.86132)">
    <path
       style="opacity:1;fill:#235932"
       d="m 274.5,259.5 c 0.166,-5.011 -10e-4,-10.011 -0.5,-15 -0.692,-0.525 -1.192,-1.192 -1.5,-2 2.052,-1.887 2.386,-3.887 1,-6 -0.667,0 -1.333,0 -2,0 -1.956,1.648 -4.289,2.315 -7,2 0,-1 0,-2 0,-3 0.712,-4.376 3.379,-6.376 8,-6 3.535,-0.149 6.368,1.184 8.5,4 0.667,8.667 0.667,17.333 0,26 -2.274,1.311 -4.44,1.311 -6.5,0 z"
       id="path733"
       inkscape:connector-curvature="0" />
  </g>
  <g
     id="g739"
     transform="translate(-80.55675,-198.86132)">
    <path
       style="opacity:0.00700001;fill:#fefffe"
       d="m 214.5,244.5 c 0.667,1 1.333,2 2,3 0,2 0,4 0,6 -0.667,-0.667 -1.333,-1.333 -2,-2 0,-2.333 0,-4.667 0,-7 z"
       id="path737"
       inkscape:connector-curvature="0" />
  </g>
  <g
     id="g743"
     transform="translate(-80.55675,-198.86132)">
    <path
       style="opacity:1;fill:#0c4d22"
       d="m 346.5,230.5 c 3.355,-0.409 6.355,0.258 9,2 2.943,7.634 3.776,15.634 2.5,24 -1.082,-5.921 -1.915,-11.921 -2.5,-18 -0.788,-1.27 -1.788,-2.27 -3,-3 -1,0 -2,0 -3,0 0,1 0,2 0,3 -2,0 -4,0 -6,0 0,-1.667 0,-3.333 0,-5 0,-2 1,-3 3,-3 z"
       id="path741"
       inkscape:connector-curvature="0" />
  </g>
  <g
     id="g747"
     transform="translate(-80.55675,-198.86132)">
    <path
       style="opacity:1;fill:#0a4c21"
       d="m 242.5,239.5 c -0.271,1.88 0.396,3.213 2,4 -0.039,1.083 -0.373,2.083 -1,3 0.774,1.211 1.607,1.211 2.5,0 0.667,3.333 0.667,6.667 0,10 -1.444,1.655 -3.278,2.322 -5.5,2 0.266,-4.071 -0.067,-8.071 -1,-12 0.667,-1.667 1.333,-3.333 2,-5 -0.525,-0.692 -1.192,-1.192 -2,-1.5 0.626,-0.75 1.126,-1.584 1.5,-2.5 0.278,0.916 0.778,1.582 1.5,2 z"
       id="path745"
       inkscape:connector-curvature="0" />
  </g>
  <g
     id="g751"
     transform="translate(-80.55675,-198.86132)">
    <path
       style="opacity:1;fill:#1d4f2f"
       d="m 339.5,260.5 c -1.891,2.672 -4.558,3.672 -8,3 -0.295,-2.235 0.039,-4.235 1,-6 0.993,-8.818 1.327,-17.818 1,-27 2,0 4,0 6,0 0,10 0,20 0,30 z"
       id="path749"
       inkscape:connector-curvature="0" />
  </g>
  <g
     id="g755"
     transform="translate(-80.55675,-198.86132)">
    <path
       style="opacity:1;fill:#074d20"
       d="m 334.5,231.5 c 1.322,-0.17 2.489,0.163 3.5,1 0.2,9.005 -0.133,18.005 -1,27 -1.297,1.284 -2.464,1.117 -3.5,-0.5 0.985,-9.083 1.318,-18.249 1,-27.5 z"
       id="path753"
       inkscape:connector-curvature="0" />
  </g>
  <g
     id="g759"
     transform="translate(-80.55675,-198.86132)">
    <path
       style="opacity:1;fill:#205332"
       d="m 104.5,242.5 c 0.333,0 0.667,0 1,0 2.433,-0.227 4.099,0.773 5,3 -1.552,4.775 -2.052,9.775 -1.5,15 2.874,3.305 6.374,3.971 10.5,2 0,-2.333 0,-4.667 0,-7 -0.165,-3.35 0.002,-6.683 0.5,-10 0.179,3.525 0.679,6.859 1.5,10 0.998,1.95 0.832,3.95 -0.5,6 -0.422,1.926 -1.589,2.926 -3.5,3 -2.667,0 -5.333,0 -8,0 -1.673,-0.843 -2.84,-2.176 -3.5,-4 -0.252,-6.048 -0.752,-12.048 -1.5,-18 z"
       id="path757"
       inkscape:connector-curvature="0" />
  </g>
  <g
     id="g763"
     transform="translate(-80.55675,-198.86132)">
    <path
       style="opacity:0.97600002;fill:#8dcaf2"
       d="m 170.5,243.5 c -1.857,7.127 0.81,10.794 8,11 -3.877,1.81 -7.043,0.81 -9.5,-3 -0.667,-2.333 -0.667,-4.667 0,-7 0.383,-0.556 0.883,-0.889 1.5,-1 z"
       id="path761"
       inkscape:connector-curvature="0" />
  </g>
  <g
     id="g767"
     transform="translate(-80.55675,-198.86132)">
    <path
       style="opacity:0.30199998;fill:#9bc3a6"
       d="m 300.5,243.5 c -0.343,1.983 0.324,3.317 2,4 -0.709,0.904 -1.709,1.237 -3,1 -0.284,-1.915 0.049,-3.581 1,-5 z"
       id="path765"
       inkscape:connector-curvature="0" />
  </g>
  <g
     id="g771"
     transform="translate(-80.55675,-198.86132)">
    <path
       style="opacity:1;fill:#40aff1"
       d="m 180.5,253.5 c -0.342,0.838 -1.008,1.172 -2,1 -7.19,-0.206 -9.857,-3.873 -8,-11 5.431,-2.39 9.431,-1.057 12,4 -1.151,1.825 -1.818,3.825 -2,6 z"
       id="path769"
       inkscape:connector-curvature="0" />
  </g>
  <g
     id="g775"
     transform="translate(-80.55675,-198.86132)">
    <path
       style="opacity:0.77999998;fill:#a5cae0"
       d="m 163.5,250.5 c -0.739,-0.131 -1.406,0.036 -2,0.5 0.752,0.671 1.086,1.504 1,2.5 -2.616,-2.955 -5.282,-5.955 -8,-9 0.167,-0.333 0.333,-0.667 0.5,-1 3.364,1.755 6.198,4.088 8.5,7 z"
       id="path773"
       inkscape:connector-curvature="0" />
  </g>
  <g
     id="g779"
     transform="translate(-80.55675,-198.86132)">
    <path
       style="opacity:0.678;fill:#82af94"
       d="m 248.5,245.5 c 1.663,1.938 2.329,4.272 2,7 0,0.667 0,1.333 0,2 -0.667,-2 -1.333,-4 -2,-6 0,-1 0,-2 0,-3 z"
       id="path777"
       inkscape:connector-curvature="0" />
  </g>
  <g
     id="g783"
     transform="translate(-80.55675,-198.86132)">
    <path
       style="opacity:0.35100002;fill:#91b4a0"
       d="m 369.5,225.5 c -2.333,0 -4.667,0 -7,0 0,11.333 0,22.667 0,34 -0.995,-11.488 -1.328,-23.155 -1,-35 2.885,-0.306 5.552,0.027 8,1 z"
       id="path781"
       inkscape:connector-curvature="0" />
  </g>
  <g
     id="g787"
     transform="translate(-80.55675,-198.86132)">
    <path
       style="opacity:1;fill:#084c21"
       d="m 204.5,251.5 c 0,0.333 0,0.667 0,1 1,1.333 2,1.333 3,0 0.667,-5.181 1.333,-10.515 2,-16 0.765,1.112 1.765,1.779 3,2 0,5.333 0,10.667 0,16 -1.107,1.492 -2.607,2.492 -4.5,3 -3.605,1.848 -6.605,1.181 -9,-2 -0.499,-4.655 -0.666,-9.321 -0.5,-14 2.014,-1.342 2.347,-3.008 1,-5 0.056,-1.237 0.556,-2.237 1.5,-3 1.716,5.829 1.882,11.662 0.5,17.5 0.948,0.483 1.948,0.649 3,0.5 z"
       id="path785"
       inkscape:connector-curvature="0" />
  </g>
  <g
     id="g791"
     transform="translate(-80.55675,-198.86132)">
    <path
       style="opacity:1;fill:#174e2b"
       d="m 210.5,225.5 c 2,0 3,1 3,3 0.326,8.849 -0.007,17.516 -1,26 0,-5.333 0,-10.667 0,-16 0,-3.667 0,-7.333 0,-11 -3.963,-0.94 -7.963,-1.107 -12,-0.5 -0.88,1.356 -1.214,2.856 -1,4.5 2.579,-0.365 4.912,-0.365 7,0 -0.789,0.283 -1.456,0.783 -2,1.5 0.084,5.956 0.084,12.123 0,18.5 -1.052,0.149 -2.052,-0.017 -3,-0.5 1.382,-5.838 1.216,-11.671 -0.5,-17.5 -0.944,0.763 -1.444,1.763 -1.5,3 1.347,1.992 1.014,3.658 -1,5 -0.166,-5.011 0.001,-10.011 0.5,-15 3.73,-0.96 7.563,-1.293 11.5,-1 z"
       id="path789"
       inkscape:connector-curvature="0" />
  </g>
  <g
     id="g795"
     transform="translate(-80.55675,-198.86132)">
    <path
       style="opacity:1;fill:#456f54"
       d="m 222.5,241.5 c -2.096,1.854 -3.429,4.187 -4,7 1.086,2.92 1.752,5.92 2,9 1.478,0.262 2.811,-0.071 4,-1 -1.293,-3.799 -1.293,-7.466 0,-11 0.311,-0.978 0.978,-1.645 2,-2 0.995,5.292 1.328,10.625 1,16 2,0 4,0 6,0 -0.949,0.652 -2.115,0.986 -3.5,1 -1.658,-0.175 -2.991,-0.842 -4,-2 -3.199,2.629 -6.199,2.296 -9,-1 -0.49,-1.293 -0.657,-2.627 -0.5,-4 0,-2 0,-4 0,-6 0.667,-3.333 2.667,-5.333 6,-6 z m 2,4 c -0.313,2.747 0.02,5.414 1,8 0.333,-1.333 0.667,-2.667 1,-4 -0.085,-1.833 -0.752,-3.166 -2,-4 z"
       id="path793"
       inkscape:connector-curvature="0" />
  </g>
  <g
     id="g799"
     transform="translate(-80.55675,-198.86132)">
    <path
       style="opacity:1;fill:#094c22"
       d="m 254.5,244.5 c 1.293,-1.342 2.126,-3.009 2.5,-5 0.333,0.667 0.667,1.333 1,2 -0.03,5.648 -0.197,11.315 -0.5,17 -2,0 -4,0 -6,0 0.295,-2.235 -0.039,-4.235 -1,-6 0.329,-2.728 -0.337,-5.062 -2,-7 0.181,-2.897 -0.152,-5.73 -1,-8.5 0.113,-1.28 0.78,-2.113 2,-2.5 1.486,3.516 2.653,7.182 3.5,11 1.107,1.212 1.607,0.879 1.5,-1 z"
       id="path797"
       inkscape:connector-curvature="0" />
  </g>
  <g
     id="g803"
     transform="translate(-80.55675,-198.86132)">
    <path
       style="opacity:0.17600002;fill:#c2daca"
       d="m 379.5,245.5 c 0.296,1.903 0.963,3.57 2,5 0,1 0,2 0,3 -0.667,1.333 -1.333,1.333 -2,0 -0.333,0 -0.667,0 -1,0 -0.306,-2.885 0.027,-5.552 1,-8 z"
       id="path801"
       inkscape:connector-curvature="0" />
  </g>
  <g
     id="g807"
     transform="translate(-80.55675,-198.86132)">
    <path
       style="opacity:1;fill:#255735"
       d="m 378.5,241.5 c 1,0 2,0 3,0 1.226,4.133 1.226,8.133 0,12 0,-1 0,-2 0,-3 0.423,-2.281 -0.244,-3.948 -2,-5 -0.973,2.448 -1.306,5.115 -1,8 -2.987,0.448 -3.987,1.948 -3,4.5 1.634,0.494 3.301,0.66 5,0.5 -2.916,2.588 -5.749,2.254 -8.5,-1 -0.667,-4 -0.667,-8 0,-12 1.547,-2.387 3.713,-3.72 6.5,-4 z m 1,4 c 1.756,1.052 2.423,2.719 2,5 -1.037,-1.43 -1.704,-3.097 -2,-5 z"
       id="path805"
       inkscape:connector-curvature="0" />
  </g>
  <g
     id="g811"
     transform="translate(-80.55675,-198.86132)">
    <path
       style="opacity:0.58399999;fill:#97bea9"
       d="m 207.5,251.5 c 0,0.333 0,0.667 0,1 -1,1.333 -2,1.333 -3,0 1.109,-0.057 2.109,-0.39 3,-1 z"
       id="path809"
       inkscape:connector-curvature="0" />
  </g>
  <g
     id="g815"
     transform="translate(-80.55675,-198.86132)">
    <path
       style="opacity:0.447;fill:#99b8a2"
       d="m 299.5,254.5 c 1.068,-0.934 2.401,-1.268 4,-1 0,1 0,2 0,3 -0.967,-1.306 -2.301,-1.973 -4,-2 z"
       id="path813"
       inkscape:connector-curvature="0" />
  </g>
  <g
     id="g819"
     transform="translate(-80.55675,-198.86132)">
    <path
       style="opacity:1;fill:#074c21"
       d="m 110.5,245.5 c 0.203,1.544 0.87,2.878 2,4 -1.511,2.338 -1.177,3.004 1,2 2.29,0.967 4.29,2.3 6,4 0,2.333 0,4.667 0,7 -4.126,1.971 -7.626,1.305 -10.5,-2 -0.552,-5.225 -0.052,-10.225 1.5,-15 z"
       id="path817"
       inkscape:connector-curvature="0" />
  </g>
  <g
     id="g823"
     transform="translate(-80.55675,-198.86132)">
    <path
       style="opacity:0.98000004;fill:#6dbbeb"
       d="m 189.5,235.5 c 1.017,7.305 1.183,14.639 0.5,22 -0.701,3.609 -1.868,6.942 -3.5,10 -0.057,-2.384 0.277,-4.718 1,-7 -0.137,-1.607 -0.804,-2.941 -2,-4 -1.499,2.91 -3.833,4.576 -7,5 1.188,-0.864 2.355,-1.864 3.5,-3 1.612,-4.232 2.779,-8.566 3.5,-13 0.826,-4.816 1.326,-9.816 1.5,-15 0.374,1.991 1.207,3.658 2.5,5 z"
       id="path821"
       inkscape:connector-curvature="0" />
  </g>
  <g
     id="g827"
     transform="translate(-80.55675,-198.86132)">
    <path
       style="opacity:1;fill:#588467"
       d="m 273.5,236.5 c 1.386,2.113 1.052,4.113 -1,6 0.308,0.808 0.808,1.475 1.5,2 0.499,4.989 0.666,9.989 0.5,15 -0.667,0 -1.333,0 -2,0 1.619,-2.425 1.286,-4.425 -1,-6 1.248,-0.834 1.915,-2.167 2,-4 -0.167,-1.333 -0.333,-2.667 -0.5,-4 -0.383,0.556 -0.883,0.889 -1.5,1 0.412,-2.473 -0.588,-3.806 -3,-4 1.28,-1.431 2.947,-2.098 5,-2 0,-1.333 0,-2.667 0,-4 z"
       id="path825"
       inkscape:connector-curvature="0" />
  </g>
  <g
     id="g831"
     transform="translate(-80.55675,-198.86132)">
    <path
       style="opacity:1;fill:#2e5f3c"
       d="m 355.5,232.5 c 1.562,0.233 2.895,0.9 4,2 1.074,8.298 1.24,16.632 0.5,25 -2.418,0.71 -4.918,0.71 -7.5,0 0.131,-0.739 -0.036,-1.406 -0.5,-2 -2.719,0.944 -5.552,1.277 -8.5,1 -4.337,-9.316 -1.671,-15.316 8,-18 0.951,-1.419 1.284,-3.085 1,-5 1.212,0.73 2.212,1.73 3,3 0.585,6.079 1.418,12.079 2.5,18 1.276,-8.366 0.443,-16.366 -2.5,-24 z m -5,13 c 1.134,2.466 1.301,5.133 0.5,8 -0.383,-0.556 -0.883,-0.889 -1.5,-1 -0.052,-2.403 0.281,-4.736 1,-7 z"
       id="path829"
       inkscape:connector-curvature="0" />
  </g>
  <g
     id="g835"
     transform="translate(-80.55675,-198.86132)">
    <path
       style="opacity:0.05499998;fill:#b2dbc4"
       d="m 350.5,245.5 c 0.06,-0.543 0.393,-0.876 1,-1 0.987,3.268 1.32,6.602 1,10 -1.679,0.215 -2.679,-0.452 -3,-2 0.617,0.111 1.117,0.444 1.5,1 0.801,-2.867 0.634,-5.534 -0.5,-8 z"
       id="path833"
       inkscape:connector-curvature="0" />
  </g>
  <g
     id="g839"
     transform="translate(-80.55675,-198.86132)">
    <path
       style="opacity:1;fill:#0d4e24"
       d="m 381.5,259.5 c 0,-0.667 -0.333,-1 -1,-1 -1.699,0.16 -3.366,-0.006 -5,-0.5 -0.987,-2.552 0.013,-4.052 3,-4.5 0.333,0 0.667,0 1,0 0.667,1.333 1.333,1.333 2,0 1.226,-3.867 1.226,-7.867 0,-12 0,-0.333 0,-0.667 0,-1 1.38,-0.462 2.047,-1.462 2,-3 -1.642,-2.851 -0.975,-3.517 2,-2 1.333,7.333 1.333,14.667 0,22 -1.36,0.68 -2.693,1.347 -4,2 z"
       id="path837"
       inkscape:connector-curvature="0" />
  </g>
  <g
     id="g843"
     transform="translate(-80.55675,-198.86132)">
    <path
       style="opacity:1;fill:#6dbce9"
       d="m 163.5,250.5 c 3.433,3.33 6.766,6.83 10,10.5 1.634,0.494 3.301,0.66 5,0.5 -2.928,0.687 -5.928,1.021 -9,1 -0.907,2.921 -1.24,5.921 -1,9 0.928,3.983 -0.405,6.65 -4,8 4.451,-9.057 3.785,-17.723 -2,-26 0.086,-0.996 -0.248,-1.829 -1,-2.5 0.594,-0.464 1.261,-0.631 2,-0.5 z"
       id="path841"
       inkscape:connector-curvature="0" />
  </g>
  <g
     id="g847"
     transform="translate(-80.55675,-198.86132)">
    <path
       style="opacity:1;fill:#265935"
       d="m 268.5,242.5 c 2.412,0.194 3.412,1.527 3,4 0,2.333 0,4.667 0,7 2.286,1.575 2.619,3.575 1,6 -3.753,1.685 -6.586,0.685 -8.5,-3 -0.667,-3.333 -0.667,-6.667 0,-10 0.748,-2.251 2.248,-3.584 4.5,-4 z"
       id="path845"
       inkscape:connector-curvature="0" />
  </g>
  <g
     id="g851"
     transform="translate(-80.55675,-198.86132)">
    <path
       style="opacity:0.00400002;fill:#fefffe"
       d="m 311.5,258.5 c 1.333,0.667 1.333,0.667 0,0 z"
       id="path849"
       inkscape:connector-curvature="0" />
  </g>
  <g
     id="g855"
     transform="translate(-80.55675,-198.86132)">
    <path
       style="opacity:0.00799997;fill:#cde4d5"
       d="m 322.5,259.5 c -0.667,0 -1.333,0 -2,0 1.048,-2.433 1.714,-2.433 2,0 z"
       id="path853"
       inkscape:connector-curvature="0" />
  </g>
  <g
     id="g859"
     transform="translate(-80.55675,-198.86132)">
    <path
       style="opacity:1;fill:#72957b"
       d="m 352.5,259.5 c -3.319,1.596 -6.319,1.262 -9,-1 2.948,0.277 5.781,-0.056 8.5,-1 0.464,0.594 0.631,1.261 0.5,2 z"
       id="path857"
       inkscape:connector-curvature="0" />
  </g>
  <g
     id="g863"
     transform="translate(-80.55675,-198.86132)">
    <path
       style="opacity:1;fill:#46b4f4"
       d="m 186.5,267.5 c -1.712,5.09 -4.212,9.756 -7.5,14 -2.436,2.947 -5.269,5.28 -8.5,7 1.333,-1.333 1.333,-2.667 0,-4 2.092,-0.061 3.592,-1.061 4.5,-3 0.314,-2.369 1.148,-4.536 2.5,-6.5 -0.167,-0.5 -0.333,-1 -0.5,-1.5 -1.398,0.551 -2.732,0.884 -4,1 0.828,-3.553 -0.172,-6.553 -3,-9 -0.191,2.208 -0.691,4.208 -1.5,6 -0.24,-3.079 0.093,-6.079 1,-9 3.072,0.021 6.072,-0.313 9,-1 3.167,-0.424 5.501,-2.09 7,-5 1.196,1.059 1.863,2.393 2,4 -0.723,2.282 -1.057,4.616 -1,7 z"
       id="path861"
       inkscape:connector-curvature="0" />
  </g>
  <g
     id="g867"
     transform="translate(-80.55675,-198.86132)">
    <path
       style="opacity:0.831;fill:#7f9d89"
       d="m 109.5,264.5 c 2.667,0 5.333,0 8,0 -2.667,2.667 -5.333,2.667 -8,0 z"
       id="path865"
       inkscape:connector-curvature="0" />
  </g>
  <g
     id="g871"
     transform="translate(-80.55675,-198.86132)">
    <path
       style="opacity:1;fill:#8dc2df"
       d="m 99.5,276.5 c -1.3474,-0.528 -2.6807,-0.695 -4,-0.5 1.0822,1.33 1.7488,2.83 2,4.5 -5.0509,-5.002 -7.8842,-11.002 -8.5,-18 2.7792,5.233 6.2792,9.9 10.5,14 z"
       id="path869"
       inkscape:connector-curvature="0" />
  </g>
  <g
     id="g875"
     transform="translate(-80.55675,-198.86132)">
    <path
       style="opacity:1;fill:#39b1f9"
       d="m 170.5,284.5 c -0.658,-0.898 -1.324,-1.898 -2,-3 -2.552,3.792 -3.885,3.125 -4,-2 3.595,-1.35 4.928,-4.017 4,-8 0.809,-1.792 1.309,-3.792 1.5,-6 2.828,2.447 3.828,5.447 3,9 1.268,-0.116 2.602,-0.449 4,-1 0.167,0.5 0.333,1 0.5,1.5 -1.352,1.964 -2.186,4.131 -2.5,6.5 -0.908,1.939 -2.408,2.939 -4.5,3 z"
       id="path873"
       inkscape:connector-curvature="0" />
  </g>
  <g
     id="g879"
     transform="translate(-80.55675,-198.86132)">
    <path
       style="opacity:0.87999998;fill:#b2de9a"
       d="m 249.5,288.5 c 3,0 6,0 9,0 0,-2.667 0,-5.333 0,-8 -3,0 -6,0 -9,0 2.837,-1.902 6.171,-2.569 10,-2 0.427,3.504 0.427,7.171 0,11 -3.542,0.313 -6.875,-0.021 -10,-1 z"
       id="path877"
       inkscape:connector-curvature="0" />
  </g>
  <g
     id="g883"
     transform="translate(-80.55675,-198.86132)">
    <path
       style="opacity:0.81800011;fill:#bee2ac"
       d="m 324.5,279.5 c -8.157,-2.014 -10.824,0.819 -8,8.5 2.761,0.722 5.427,0.555 8,-0.5 -1.194,1.277 -2.86,1.944 -5,2 -4.34,0.591 -6.34,-1.242 -6,-5.5 0.103,-1.561 0.437,-3.061 1,-4.5 3.48,-1.306 6.813,-1.306 10,0 z"
       id="path881"
       inkscape:connector-curvature="0" />
  </g>
  <g
     id="g887"
     transform="translate(-80.55675,-198.86132)">
    <path
       style="opacity:1;fill:#91d66f"
       d="m 249.5,280.5 c 3,0 6,0 9,0 0,2.667 0,5.333 0,8 -3,0 -6,0 -9,0 -1.267,-2.772 -1.267,-5.439 0,-8 z"
       id="path885"
       inkscape:connector-curvature="0" />
  </g>
  <g
     id="g891"
     transform="translate(-80.55675,-198.86132)">
    <path
       style="opacity:1;fill:#98d97b"
       d="m 291.5,279.5 c -0.333,2.667 -0.667,5.333 -1,8 -2.333,0 -4.667,0 -7,0 -0.333,-2.667 -0.667,-5.333 -1,-8 3,-1.333 6,-1.333 9,0 z"
       id="path889"
       inkscape:connector-curvature="0" />
  </g>
  <g
     id="g895"
     transform="translate(-80.55675,-198.86132)">
    <path
       style="opacity:1;fill:#8acf68"
       d="m 324.5,279.5 c 0,2.667 0,5.333 0,8 -2.573,1.055 -5.239,1.222 -8,0.5 -2.824,-7.681 -0.157,-10.514 8,-8.5 z"
       id="path893"
       inkscape:connector-curvature="0" />
  </g>
  <g
     id="g899"
     transform="translate(-80.55675,-198.86132)">
    <path
       style="opacity:1;fill:#7cd955"
       d="m 317.5,280.5 c 3.946,-0.012 5.613,1.988 5,6 -1.667,0 -3.333,0 -5,0 0,-2 0,-4 0,-6 z"
       id="path897"
       inkscape:connector-curvature="0" />
  </g>
  <g
     id="g903"
     transform="translate(-80.55675,-198.86132)">
    <path
       style="opacity:1;fill:#70bae8"
       d="m 99.5,276.5 c 5.515,4.527 11.515,8.193 18,11 -3.7,-0.632 -7.367,-1.132 -11,-1.5 2.893,2.084 5.226,4.584 7,7.5 -6.548,-2.886 -11.882,-7.219 -16,-13 -0.2512,-1.67 -0.9178,-3.17 -2,-4.5 1.3193,-0.195 2.6526,-0.028 4,0.5 z"
       id="path901"
       inkscape:connector-curvature="0" />
  </g>
  <g
     id="g907"
     transform="translate(-80.55675,-198.86132)">
    <path
       style="opacity:1;fill:#43b3f5"
       d="m 164.5,279.5 c 0.115,5.125 1.448,5.792 4,2 0.676,1.102 1.342,2.102 2,3 1.333,1.333 1.333,2.667 0,4 0,0.667 -0.333,1 -1,1 -2.027,-0.162 -4.027,0.005 -6,0.5 -2.891,2.068 -5.891,3.901 -9,5.5 0.039,-1.256 -0.461,-2.256 -1.5,-3 -2.554,1.276 -5.221,2.276 -8,3 -3.286,-0.201 -3.786,-1.035 -1.5,-2.5 -1.882,-0.198 -3.548,-0.698 -5,-1.5 4.027,-0.639 8.027,-1.472 12,-2.5 1.82,-0.2 3.153,-1.034 4,-2.5 3.611,-1.817 6.945,-4.15 10,-7 z"
       id="path905"
       inkscape:connector-curvature="0" />
  </g>
  <g
     id="g911"
     transform="translate(-80.55675,-198.86132)">
    <path
       style="opacity:1;fill:#afd99a"
       d="m 282.5,279.5 c 0.333,2.667 0.667,5.333 1,8 2.333,0 4.667,0 7,0 0.333,-2.667 0.667,-5.333 1,-8 3.343,9.488 0.177,12.488 -9.5,9 -0.805,-3.196 -0.638,-6.196 0.5,-9 z"
       id="path909"
       inkscape:connector-curvature="0" />
  </g>
  <g
     id="g915"
     transform="translate(-80.55675,-198.86132)">
    <path
       style="opacity:0.553;fill:#97d1ed"
       d="m 154.5,286.5 c -0.847,1.466 -2.18,2.3 -4,2.5 -3.973,1.028 -7.973,1.861 -12,2.5 -7.581,0.895 -14.581,-0.438 -21,-4 5.929,1.325 11.929,2.325 18,3 6.511,-0.595 12.844,-1.929 19,-4 z"
       id="path913"
       inkscape:connector-curvature="0" />
  </g>
  <g
     id="g919"
     transform="translate(-80.55675,-198.86132)">
    <path
       style="opacity:1;fill:#3db1f5"
       d="m 117.5,287.5 c 6.419,3.562 13.419,4.895 21,4 1.452,0.802 3.118,1.302 5,1.5 -2.286,1.465 -1.786,2.299 1.5,2.5 2.779,-0.724 5.446,-1.724 8,-3 1.039,0.744 1.539,1.744 1.5,3 -5.247,2.485 -10.913,3.485 -17,3 -3.667,-0.167 -7.333,-0.333 -11,-0.5 -3.697,-2.092 -7.697,-3.259 -12,-3.5 -0.667,0 -1,-0.333 -1,-1 -1.774,-2.916 -4.107,-5.416 -7,-7.5 3.633,0.368 7.3,0.868 11,1.5 z"
       id="path917"
       inkscape:connector-curvature="0" />
  </g>
  <g
     id="g923"
     transform="translate(-80.55675,-198.86132)">
    <path
       style="opacity:0.925;fill:#7cc3ed"
       d="m 169.5,289.5 c -13.04,9.977 -27.706,13.144 -44,9.5 -3.968,-1.038 -7.635,-2.538 -11,-4.5 4.303,0.241 8.303,1.408 12,3.5 3.667,0.167 7.333,0.333 11,0.5 6.087,0.485 11.753,-0.515 17,-3 3.109,-1.599 6.109,-3.432 9,-5.5 1.973,-0.495 3.973,-0.662 6,-0.5 z"
       id="path921"
       inkscape:connector-curvature="0" />
  </g>
</svg>
