<?xml version="1.0" encoding="UTF-8"?>
<svg xmlns="http://www.w3.org/2000/svg" xmlns:xlink="http://www.w3.org/1999/xlink" width="50px" height="50px" viewBox="0 0 50 50" version="1.1">
<g id="surface1">
<path style=" stroke:none;fill-rule:evenodd;fill:rgb(28.235294%,69.411765%,93.333333%);fill-opacity:1;" d="M 15.824219 20.398438 C 15.824219 20.59375 15.84375 20.671875 15.867188 20.574219 C 15.894531 20.480469 15.894531 20.320312 15.867188 20.226562 C 15.84375 20.128906 15.824219 20.207031 15.824219 20.398438 M 16.734375 20.382812 C 16.652344 20.515625 16.65625 20.605469 16.761719 20.75 C 16.835938 20.851562 16.898438 20.886719 16.898438 20.824219 C 16.898438 20.761719 16.851562 20.683594 16.796875 20.648438 C 16.722656 20.601562 16.726562 20.535156 16.808594 20.4375 C 16.875 20.359375 16.910156 20.277344 16.886719 20.253906 C 16.863281 20.226562 16.792969 20.289062 16.734375 20.382812 M 16.175781 21.175781 C 16.304688 21.296875 16.511719 21.394531 16.628906 21.390625 C 16.8125 21.382812 16.800781 21.367188 16.5625 21.296875 C 16.40625 21.25 16.203125 21.152344 16.109375 21.082031 C 16.015625 21.007812 16.046875 21.050781 16.175781 21.175781 M 17.441406 21.992188 C 17.441406 22.113281 17.5 22.15625 17.621094 22.125 C 17.71875 22.097656 17.800781 22.0625 17.800781 22.042969 C 17.800781 22.023438 17.71875 21.964844 17.621094 21.910156 C 17.480469 21.835938 17.441406 21.855469 17.441406 21.992188 M 15.824219 22.300781 C 15.824219 22.492188 15.84375 22.570312 15.867188 22.476562 C 15.894531 22.378906 15.894531 22.222656 15.867188 22.125 C 15.84375 22.027344 15.824219 22.109375 15.824219 22.300781 M 12.488281 22.429688 C 12.535156 22.472656 12.902344 22.496094 13.308594 22.480469 L 14.050781 22.449219 L 13.230469 22.398438 C 12.777344 22.371094 12.445312 22.386719 12.488281 22.429688 M 33.339844 22.445312 C 33.308594 22.523438 33.300781 22.667969 33.324219 22.769531 C 33.347656 22.882812 33.382812 22.828125 33.414062 22.625 C 33.46875 22.285156 33.433594 22.199219 33.339844 22.445312 M 9.175781 22.472656 C 9.414062 22.496094 9.773438 22.496094 9.976562 22.472656 C 10.183594 22.453125 9.988281 22.433594 9.550781 22.433594 C 9.109375 22.433594 8.941406 22.453125 9.175781 22.472656 M 18.53125 22.640625 C 18.683594 23.039062 18.722656 24.207031 18.601562 24.84375 C 18.4375 25.707031 18.152344 26.140625 17.714844 26.183594 C 17.429688 26.210938 17.332031 26.152344 17.015625 25.785156 C 16.351562 25.011719 15.5 24.261719 15.5 24.449219 C 15.5 24.480469 15.675781 24.695312 15.890625 24.925781 C 17.332031 26.492188 17.0625 28.082031 15.234375 28.8125 C 14.402344 29.140625 12.722656 29.148438 11.851562 28.824219 C 10.726562 28.402344 9.765625 27.621094 9.128906 26.605469 C 8.800781 26.078125 8.851562 26.472656 9.207031 27.179688 C 9.820312 28.410156 11.007812 29.414062 12.324219 29.8125 C 12.886719 29.984375 13.207031 30.015625 14.136719 29.984375 C 15.230469 29.949219 15.292969 29.9375 16.109375 29.53125 C 17.429688 28.875 18.402344 27.765625 18.859375 26.398438 C 19.207031 25.359375 19.023438 22.8125 18.582031 22.539062 C 18.503906 22.492188 18.488281 22.523438 18.53125 22.640625 M 20.074219 22.574219 C 20.253906 22.59375 20.546875 22.59375 20.726562 22.574219 C 20.902344 22.550781 20.757812 22.53125 20.398438 22.53125 C 20.042969 22.53125 19.894531 22.550781 20.074219 22.574219 M 29.539062 22.644531 C 29.507812 22.722656 29.503906 22.890625 29.527344 23.019531 C 29.5625 23.191406 29.578125 23.164062 29.585938 22.917969 L 29.601562 22.582031 L 30.199219 22.617188 C 30.53125 22.636719 30.800781 22.617188 30.800781 22.574219 C 30.800781 22.535156 30.527344 22.5 30.195312 22.5 C 29.765625 22.5 29.578125 22.539062 29.539062 22.644531 M 32.476562 22.570312 C 32.601562 22.59375 32.78125 22.59375 32.875 22.570312 C 32.972656 22.542969 32.871094 22.523438 32.648438 22.523438 C 32.429688 22.527344 32.351562 22.546875 32.476562 22.570312 M 36.222656 24.273438 L 36.246094 26.050781 L 36.273438 24.332031 L 36.304688 22.613281 L 36.675781 22.574219 L 37.050781 22.535156 L 36.625 22.515625 L 36.199219 22.5 L 36.222656 24.273438 M 22.375 23.070312 C 22.5 23.09375 22.679688 23.09375 22.777344 23.070312 C 22.871094 23.042969 22.769531 23.023438 22.550781 23.023438 C 22.328125 23.027344 22.25 23.046875 22.375 23.070312 M 23.613281 23.273438 C 23.625 23.511719 23.632812 23.519531 23.671875 23.324219 C 23.71875 23.078125 24.144531 23 24.234375 23.226562 C 24.265625 23.300781 24.289062 23.28125 24.292969 23.175781 C 24.296875 23.039062 24.21875 23 23.949219 23 C 23.632812 23 23.601562 23.023438 23.613281 23.273438 M 24.894531 23.054688 C 25.054688 23.085938 25.207031 23.175781 25.234375 23.257812 C 25.261719 23.351562 25.273438 23.339844 25.265625 23.226562 C 25.253906 23.101562 25.152344 23.042969 24.925781 23.023438 C 24.613281 23 24.613281 23.003906 24.894531 23.054688 M 25.539062 23.140625 C 25.507812 23.222656 25.503906 23.351562 25.53125 23.421875 C 25.5625 23.492188 25.585938 23.449219 25.59375 23.324219 C 25.597656 23.144531 25.65625 23.101562 25.890625 23.101562 C 26.050781 23.101562 26.207031 23.144531 26.234375 23.203125 C 26.261719 23.257812 26.273438 23.246094 26.261719 23.175781 C 26.222656 22.984375 25.613281 22.953125 25.539062 23.140625 M 27.074219 23.070312 C 27.199219 23.09375 27.402344 23.09375 27.523438 23.070312 C 27.648438 23.046875 27.546875 23.027344 27.300781 23.027344 C 27.050781 23.027344 26.953125 23.046875 27.074219 23.070312 M 31.5625 23.082031 C 31.535156 23.128906 31.644531 23.144531 31.804688 23.121094 C 31.96875 23.097656 32.101562 23.058594 32.101562 23.039062 C 32.101562 22.960938 31.609375 23 31.5625 23.082031 M 33.347656 23.125 C 33.269531 23.347656 33.246094 25.882812 33.324219 25.835938 C 33.367188 25.808594 33.398438 25.1875 33.398438 24.449219 L 33.398438 23.113281 L 34.148438 23.035156 L 33.773438 23.015625 C 33.546875 23.007812 33.375 23.050781 33.347656 23.125 M 34.976562 23.070312 C 35.101562 23.09375 35.28125 23.09375 35.375 23.070312 C 35.472656 23.042969 35.371094 23.023438 35.148438 23.023438 C 34.929688 23.027344 34.851562 23.046875 34.976562 23.070312 M 37.875 23.070312 C 38 23.09375 38.179688 23.09375 38.277344 23.070312 C 38.371094 23.042969 38.269531 23.023438 38.050781 23.023438 C 37.828125 23.027344 37.75 23.046875 37.875 23.070312 M 34.023438 23.601562 C 34.023438 23.792969 34.042969 23.871094 34.070312 23.773438 C 34.09375 23.679688 34.09375 23.519531 34.070312 23.425781 C 34.042969 23.328125 34.023438 23.40625 34.023438 23.601562 M 21.714844 23.726562 C 21.699219 23.980469 21.726562 24 22.101562 24 C 22.453125 24 22.5 23.972656 22.488281 23.773438 C 22.480469 23.605469 22.464844 23.59375 22.429688 23.726562 C 22.359375 24 21.824219 23.960938 21.769531 23.675781 C 21.734375 23.480469 21.726562 23.488281 21.714844 23.726562 M 28.140625 24.75 C 28.140625 25.464844 28.15625 25.746094 28.175781 25.371094 C 28.195312 24.996094 28.195312 24.414062 28.175781 24.070312 C 28.15625 23.730469 28.140625 24.035156 28.140625 24.75 M 37.214844 23.726562 C 37.199219 23.980469 37.226562 24 37.601562 24 C 37.953125 24 38 23.972656 37.988281 23.773438 C 37.980469 23.605469 37.964844 23.59375 37.929688 23.726562 C 37.859375 24 37.324219 23.960938 37.269531 23.675781 C 37.234375 23.480469 37.226562 23.488281 37.214844 23.726562 M 8.390625 23.824219 C 8.621094 24.085938 8.675781 24.097656 9.441406 24.078125 L 10.25 24.058594 L 9.453125 24.023438 C 8.800781 23.996094 8.605469 23.949219 8.402344 23.769531 L 8.148438 23.550781 L 8.390625 23.824219 M 23.4375 24.800781 C 23.4375 25.488281 23.453125 25.769531 23.472656 25.425781 C 23.492188 25.082031 23.492188 24.519531 23.472656 24.175781 C 23.453125 23.832031 23.4375 24.113281 23.4375 24.800781 M 24.320312 23.800781 C 24.320312 23.9375 24.355469 24.164062 24.398438 24.300781 C 24.460938 24.496094 24.480469 24.507812 24.476562 24.351562 C 24.476562 24.238281 24.441406 24.015625 24.398438 23.851562 C 24.332031 23.582031 24.324219 23.574219 24.320312 23.800781 M 26.410156 23.773438 C 26.402344 23.972656 26.449219 24 26.800781 24 C 27.117188 24 27.199219 23.964844 27.191406 23.824219 C 27.1875 23.71875 27.164062 23.699219 27.132812 23.773438 C 27.054688 23.96875 26.523438 23.929688 26.46875 23.726562 C 26.433594 23.59375 26.421875 23.605469 26.410156 23.773438 M 29.421875 23.898438 C 29.421875 24.09375 29.445312 24.171875 29.46875 24.074219 C 29.492188 23.980469 29.492188 23.820312 29.46875 23.726562 C 29.445312 23.628906 29.421875 23.707031 29.421875 23.898438 M 31.238281 24.550781 C 31.238281 25.101562 31.253906 25.3125 31.273438 25.023438 C 31.292969 24.730469 31.292969 24.28125 31.273438 24.023438 C 31.253906 23.761719 31.234375 24 31.238281 24.550781 M 38.9375 24.800781 C 38.9375 25.488281 38.953125 25.769531 38.972656 25.425781 C 38.992188 25.082031 38.992188 24.519531 38.972656 24.175781 C 38.953125 23.832031 38.9375 24.113281 38.9375 24.800781 M 27.40625 23.867188 C 27.402344 23.984375 27.34375 24.105469 27.273438 24.132812 C 27.175781 24.171875 27.179688 24.1875 27.277344 24.191406 C 27.429688 24.203125 27.539062 23.960938 27.46875 23.777344 C 27.4375 23.707031 27.414062 23.746094 27.40625 23.867188 M 25.308594 23.96875 C 25.3125 24.070312 25.351562 24.238281 25.398438 24.351562 C 25.472656 24.519531 25.488281 24.5 25.492188 24.230469 C 25.496094 24.054688 25.453125 23.882812 25.398438 23.851562 C 25.34375 23.816406 25.304688 23.871094 25.308594 23.96875 M 30.222656 24.101562 C 30.222656 24.292969 30.242188 24.371094 30.269531 24.273438 C 30.292969 24.179688 30.292969 24.019531 30.269531 23.925781 C 30.242188 23.828125 30.222656 23.90625 30.222656 24.101562 M 13.398438 24 L 12.550781 24.0625 L 13.367188 24.082031 C 13.828125 24.09375 14.214844 24.054688 14.25 24 C 14.285156 23.945312 14.296875 23.910156 14.28125 23.917969 C 14.265625 23.929688 13.867188 23.964844 13.398438 24 M 34.476562 23.96875 C 34.601562 23.996094 34.78125 23.992188 34.875 23.96875 C 34.972656 23.945312 34.871094 23.925781 34.648438 23.925781 C 34.429688 23.925781 34.351562 23.945312 34.476562 23.96875 M 31.929688 24.550781 C 31.929688 24.878906 31.949219 25.003906 31.972656 24.824219 C 31.996094 24.644531 31.996094 24.375 31.972656 24.222656 C 31.949219 24.074219 31.929688 24.21875 31.929688 24.550781 M 17.144531 24.34375 C 16.75 24.738281 16.863281 25.316406 17.375 25.507812 C 17.949219 25.726562 18.527344 25.148438 18.308594 24.574219 C 18.117188 24.066406 17.539062 23.953125 17.144531 24.34375 M 30.921875 24.5 C 30.921875 24.691406 30.945312 24.769531 30.96875 24.675781 C 30.992188 24.578125 30.992188 24.421875 30.96875 24.324219 C 30.945312 24.230469 30.921875 24.308594 30.921875 24.5 M 30.023438 24.601562 C 30.023438 24.792969 30.042969 24.871094 30.070312 24.773438 C 30.09375 24.679688 30.09375 24.519531 30.070312 24.425781 C 30.042969 24.328125 30.023438 24.40625 30.023438 24.601562 M 34.023438 24.75 C 34.027344 24.96875 34.046875 25.046875 34.070312 24.921875 C 34.09375 24.800781 34.09375 24.621094 34.070312 24.523438 C 34.042969 24.429688 34.023438 24.53125 34.023438 24.75 M 22.441406 24.640625 C 22.34375 24.894531 22.445312 25.433594 22.601562 25.476562 C 22.722656 25.507812 22.726562 25.496094 22.613281 25.417969 C 22.523438 25.355469 22.488281 25.183594 22.515625 24.910156 C 22.558594 24.484375 22.53125 24.398438 22.441406 24.640625 M 27.425781 24.898438 C 27.425781 25.148438 27.445312 25.25 27.46875 25.125 C 27.496094 25 27.496094 24.796875 27.46875 24.675781 C 27.445312 24.550781 27.425781 24.652344 27.425781 24.898438 M 37.941406 24.640625 C 37.84375 24.894531 37.945312 25.433594 38.101562 25.476562 C 38.222656 25.507812 38.226562 25.496094 38.113281 25.417969 C 38.023438 25.355469 37.988281 25.183594 38.015625 24.910156 C 38.058594 24.484375 38.03125 24.398438 37.941406 24.640625 M 27.136719 25.042969 C 27.144531 25.296875 27.203125 25.449219 27.300781 25.476562 C 27.402344 25.503906 27.414062 25.488281 27.332031 25.433594 C 27.269531 25.386719 27.195312 25.191406 27.171875 25 C 27.125 24.664062 27.125 24.667969 27.136719 25.042969 M 31.023438 25.5 C 31.023438 25.691406 31.042969 25.769531 31.070312 25.675781 C 31.09375 25.578125 31.09375 25.421875 31.070312 25.324219 C 31.042969 25.230469 31.023438 25.308594 31.023438 25.5 M 29.9375 25.542969 C 29.90625 25.625 29.902344 25.769531 29.929688 25.871094 C 29.960938 25.992188 29.980469 25.960938 29.988281 25.78125 C 29.996094 25.589844 30.0625 25.5 30.226562 25.46875 L 30.449219 25.425781 L 30.222656 25.414062 C 30.097656 25.40625 29.96875 25.464844 29.9375 25.542969 M 25.019531 28.476562 L 25.050781 28.949219 L 25.949219 28.949219 L 25.980469 28.476562 L 26.011719 28 L 24.988281 28 L 25.019531 28.476562 M 28.21875 28.476562 L 28.25 28.949219 L 29.25 28.949219 L 29.28125 28.476562 L 29.3125 28 L 28.1875 28 L 28.21875 28.476562 M 31.519531 28.476562 L 31.550781 28.949219 L 32.449219 28.949219 L 32.480469 28.476562 L 32.511719 28 L 31.488281 28 L 31.519531 28.476562 "/>
<path style=" stroke:none;fill-rule:evenodd;fill:rgb(6.666667%,30.588235%,15.686275%);fill-opacity:1;" d="M 10.929688 20.242188 C 10.667969 20.464844 10.648438 20.542969 10.617188 21.367188 C 10.59375 22.03125 10.542969 22.28125 10.421875 22.375 C 10.324219 22.453125 9.945312 22.5 9.449219 22.5 C 8.726562 22.5 8.609375 22.527344 8.417969 22.730469 C 8.128906 23.039062 8.136719 23.503906 8.429688 23.78125 C 8.625 23.964844 8.78125 24 9.410156 24 C 10.488281 24 10.597656 24.101562 10.601562 25.082031 C 10.601562 25.933594 10.726562 26.273438 11.113281 26.488281 C 11.328125 26.609375 11.425781 26.613281 11.671875 26.511719 C 12.082031 26.339844 12.199219 26.027344 12.199219 25.101562 C 12.199219 24.09375 12.304688 24 13.417969 24 C 14.085938 24 14.21875 23.96875 14.394531 23.78125 C 14.671875 23.484375 14.660156 22.992188 14.367188 22.71875 C 14.171875 22.53125 14.019531 22.5 13.335938 22.5 C 12.292969 22.5 12.199219 22.410156 12.199219 21.414062 C 12.199219 20.597656 12.03125 20.15625 11.679688 20.0625 C 11.3125 19.964844 11.226562 19.984375 10.929688 20.242188 M 15.726562 20.933594 C 15.664062 21.070312 15.515625 21.214844 15.394531 21.25 L 15.179688 21.320312 L 15.410156 21.4375 C 15.539062 21.5 15.699219 21.65625 15.761719 21.785156 L 15.875 22.011719 L 15.9375 21.761719 C 15.972656 21.625 16.09375 21.484375 16.207031 21.445312 L 16.417969 21.382812 L 16.203125 21.230469 C 16.082031 21.148438 15.953125 20.988281 15.914062 20.882812 C 15.84375 20.695312 15.832031 20.699219 15.726562 20.933594 M 17.234375 21.878906 C 17.15625 22.007812 17.160156 22.085938 17.253906 22.171875 C 17.355469 22.265625 17.394531 22.257812 17.441406 22.136719 C 17.472656 22.050781 17.464844 21.921875 17.421875 21.84375 C 17.359375 21.730469 17.324219 21.738281 17.234375 21.878906 M 33.398438 22.65625 C 33.398438 22.886719 33.433594 22.910156 33.726562 22.882812 C 33.980469 22.855469 34.050781 22.804688 34.0625 22.625 C 34.070312 22.433594 34.023438 22.398438 33.734375 22.398438 C 33.441406 22.398438 33.398438 22.433594 33.398438 22.65625 M 19.800781 24.300781 L 19.800781 26 L 20.390625 26 C 20.820312 26 21.042969 25.949219 21.214844 25.808594 C 21.433594 25.632812 21.453125 25.535156 21.484375 24.5 C 21.535156 22.765625 21.445312 22.601562 20.441406 22.601562 L 19.800781 22.601562 L 19.800781 24.300781 M 29.597656 22.71875 C 29.597656 22.792969 29.53125 23.457031 29.449219 24.199219 C 29.25 26.066406 29.242188 26 29.59375 26 C 29.839844 26 29.890625 25.957031 29.917969 25.726562 C 29.941406 25.527344 30.015625 25.441406 30.175781 25.417969 C 30.367188 25.390625 30.398438 25.433594 30.398438 25.691406 C 30.398438 25.976562 30.425781 26 30.738281 26 L 31.074219 26 L 31.027344 25.574219 C 31.003906 25.339844 30.929688 24.585938 30.867188 23.898438 L 30.75 22.648438 L 30.175781 22.621094 C 29.753906 22.597656 29.597656 22.625 29.597656 22.71875 M 32.300781 22.878906 C 32.300781 23.136719 32.273438 23.15625 31.964844 23.121094 C 31.390625 23.054688 31.300781 23.246094 31.300781 24.550781 C 31.300781 25.449219 31.332031 25.71875 31.457031 25.84375 C 31.644531 26.03125 32.011719 26.046875 32.179688 25.878906 C 32.273438 25.785156 32.300781 25.785156 32.300781 25.878906 C 32.300781 25.949219 32.445312 26 32.648438 26 L 33 26 L 33 22.601562 L 32.648438 22.601562 C 32.332031 22.601562 32.300781 22.625 32.300781 22.878906 M 36.300781 24.300781 L 36.300781 26 L 37 26 L 37 22.601562 L 36.300781 22.601562 L 36.300781 24.300781 M 21.964844 23.28125 C 21.875 23.382812 21.800781 23.5625 21.800781 23.683594 C 21.800781 23.859375 21.859375 23.898438 22.101562 23.898438 C 22.300781 23.898438 22.398438 23.851562 22.398438 23.75 C 22.398438 23.667969 22.46875 23.601562 22.550781 23.601562 C 22.644531 23.601562 22.699219 23.695312 22.699219 23.851562 C 22.699219 24.050781 22.617188 24.132812 22.308594 24.257812 C 22.050781 24.363281 21.878906 24.511719 21.796875 24.707031 C 21.664062 25.03125 21.722656 25.636719 21.90625 25.859375 C 22.050781 26.03125 22.417969 26.042969 22.578125 25.878906 C 22.671875 25.785156 22.699219 25.785156 22.699219 25.878906 C 22.699219 25.949219 22.84375 26 23.050781 26 L 23.398438 26 L 23.398438 24.75 C 23.398438 23.632812 23.378906 23.480469 23.199219 23.300781 C 22.933594 23.035156 22.199219 23.023438 21.964844 23.28125 M 23.699219 23.273438 C 23.703125 23.371094 23.769531 23.988281 23.851562 24.644531 C 23.933594 25.304688 24 25.878906 24 25.921875 C 24 25.964844 24.175781 26 24.386719 26 L 24.777344 26 L 24.855469 25.226562 C 24.9375 24.390625 24.945312 24.398438 25.148438 25.625 C 25.203125 25.96875 25.234375 26 25.535156 26 L 25.863281 26 L 25.984375 24.976562 C 26.050781 24.410156 26.132812 23.757812 26.167969 23.523438 C 26.226562 23.105469 26.222656 23.101562 25.917969 23.101562 C 25.589844 23.101562 25.589844 23.109375 25.46875 24.25 C 25.441406 24.542969 25.4375 24.539062 25.371094 24.175781 C 25.332031 23.96875 25.277344 23.640625 25.246094 23.449219 C 25.199219 23.144531 25.15625 23.101562 24.90625 23.101562 C 24.625 23.101562 24.617188 23.113281 24.527344 23.824219 L 24.4375 24.550781 L 24.363281 24.050781 C 24.226562 23.132812 24.214844 23.101562 23.949219 23.101562 C 23.777344 23.101562 23.699219 23.15625 23.699219 23.273438 M 26.65625 23.324219 C 26.570312 23.445312 26.5 23.625 26.5 23.722656 C 26.5 23.960938 26.980469 23.960938 27.15625 23.726562 C 27.253906 23.59375 27.316406 23.578125 27.402344 23.664062 C 27.597656 23.855469 27.46875 24.125 27.128906 24.242188 C 26.609375 24.417969 26.460938 24.632812 26.46875 25.199219 C 26.472656 25.476562 26.53125 25.769531 26.601562 25.851562 C 26.765625 26.046875 27.089844 26.039062 27.316406 25.835938 C 27.488281 25.679688 27.5 25.679688 27.5 25.835938 C 27.5 25.953125 27.585938 26 27.800781 26 L 28.101562 26 L 28.101562 24.714844 C 28.101562 23.214844 28.042969 23.101562 27.273438 23.101562 C 26.910156 23.101562 26.777344 23.148438 26.65625 23.324219 M 33.398438 24.445312 C 33.398438 25.230469 33.359375 25.8125 33.300781 25.851562 C 33.246094 25.882812 33.199219 26 33.199219 26.105469 C 33.199219 26.253906 33.269531 26.300781 33.488281 26.300781 C 33.96875 26.300781 34.023438 26.132812 34.035156 24.550781 L 34.050781 23.101562 L 33.398438 23.101562 L 33.398438 24.445312 M 34.582031 23.226562 C 34.496094 23.292969 34.394531 23.472656 34.359375 23.625 C 34.300781 23.886719 34.316406 23.898438 34.648438 23.898438 C 34.894531 23.898438 35 23.855469 35 23.75 C 35 23.667969 35.066406 23.601562 35.148438 23.601562 C 35.242188 23.601562 35.300781 23.695312 35.300781 23.851562 C 35.300781 24.050781 35.21875 24.132812 34.898438 24.261719 C 34.675781 24.351562 34.449219 24.503906 34.398438 24.605469 C 34.25 24.882812 34.28125 25.527344 34.457031 25.777344 C 34.640625 26.042969 35.050781 26.070312 35.191406 25.824219 C 35.289062 25.660156 35.292969 25.660156 35.296875 25.824219 C 35.300781 25.957031 35.382812 26 35.648438 26 L 36 26 L 36 24.75 C 36 23.632812 35.980469 23.480469 35.800781 23.300781 C 35.570312 23.070312 34.835938 23.023438 34.582031 23.226562 M 37.457031 23.257812 C 37.371094 23.34375 37.300781 23.523438 37.300781 23.65625 C 37.300781 23.859375 37.347656 23.898438 37.601562 23.898438 C 37.800781 23.898438 37.898438 23.851562 37.898438 23.75 C 37.898438 23.667969 37.96875 23.601562 38.050781 23.601562 C 38.148438 23.601562 38.199219 23.699219 38.199219 23.890625 C 38.199219 24.136719 38.148438 24.195312 37.902344 24.25 C 37.441406 24.351562 37.171875 24.761719 37.226562 25.273438 C 37.253906 25.507812 37.332031 25.765625 37.398438 25.851562 C 37.546875 26.023438 37.914062 26.046875 38.070312 25.890625 C 38.148438 25.8125 38.195312 25.8125 38.246094 25.890625 C 38.28125 25.949219 38.445312 26 38.605469 26 L 38.898438 26 L 38.898438 24.75 C 38.898438 23.632812 38.878906 23.480469 38.699219 23.300781 C 38.449219 23.050781 37.691406 23.023438 37.457031 23.257812 M 20.5 24.300781 C 20.5 25.210938 20.527344 25.398438 20.648438 25.398438 C 20.773438 25.398438 20.800781 25.210938 20.800781 24.300781 C 20.800781 23.390625 20.773438 23.199219 20.648438 23.199219 C 20.527344 23.199219 20.5 23.390625 20.5 24.300781 M 30.113281 23.5625 C 30.105469 23.785156 30.070312 24.179688 30.035156 24.4375 C 29.984375 24.824219 30 24.898438 30.136719 24.898438 C 30.265625 24.898438 30.296875 24.800781 30.292969 24.425781 C 30.292969 24.164062 30.25 23.769531 30.207031 23.550781 L 30.121094 23.148438 L 30.113281 23.5625 M 31.945312 24.058594 C 31.878906 24.480469 31.945312 25.375 32.042969 25.476562 C 32.207031 25.640625 32.300781 25.277344 32.300781 24.492188 C 32.300781 23.78125 32.269531 23.601562 32.15625 23.601562 C 32.0625 23.601562 31.988281 23.757812 31.945312 24.058594 M 22.441406 24.640625 C 22.351562 24.871094 22.441406 25.433594 22.574219 25.476562 C 22.664062 25.503906 22.699219 25.371094 22.699219 25.007812 C 22.699219 24.527344 22.558594 24.328125 22.441406 24.640625 M 27.21875 24.621094 C 27.070312 24.769531 27.0625 25.363281 27.210938 25.457031 C 27.371094 25.558594 27.496094 25.304688 27.5 24.875 C 27.5 24.484375 27.425781 24.414062 27.21875 24.621094 M 35.066406 24.566406 C 35.03125 24.601562 35 24.828125 35 25.066406 C 35 25.386719 35.039062 25.5 35.148438 25.5 C 35.261719 25.5 35.300781 25.378906 35.300781 25 C 35.300781 24.535156 35.230469 24.402344 35.066406 24.566406 M 37.941406 24.640625 C 37.851562 24.871094 37.941406 25.433594 38.074219 25.476562 C 38.164062 25.503906 38.199219 25.371094 38.199219 25.007812 C 38.199219 24.527344 38.058594 24.328125 37.941406 24.640625 "/>
</g>
</svg>
